<?xml version="1.0" encoding="UTF-8" standalone="no"?>
<!-- Generator: Adobe Illustrator 15.0.0, SVG Export Plug-In . SVG Version: 6.00 Build 0)  -->

<svg
   version="1.1"
   x="0px"
   y="0px"
   width="53.880001mm"
   height="62.220619mm"
   viewBox="0 0 203.64095 235.16454"
   enable-background="new 0 0 231 207"
   xml:space="preserve"
   id="svg17"
   sodipodi:docname="foil_mask.svg"
   inkscape:version="1.4.2 (f4327f4, 2025-05-13)"
   xmlns:inkscape="http://www.inkscape.org/namespaces/inkscape"
   xmlns:sodipodi="http://sodipodi.sourceforge.net/DTD/sodipodi-0.dtd"
   xmlns:xlink="http://www.w3.org/1999/xlink"
   xmlns="http://www.w3.org/2000/svg"
   xmlns:svg="http://www.w3.org/2000/svg"><defs
   id="defs17"><inkscape:path-effect
   effect="powermask"
   id="path-effect14"
   is_visible="true"
   lpeversion="1"
   uri="#mask-powermask-path-effect14"
   invert="false"
   hide_mask="false"
   background="true"
   background_color="#ffffffff" /><inkscape:path-effect
   effect="powermask"
   id="path-effect11"
   is_visible="true"
   lpeversion="1"
   uri="#mask-powermask-path-effect11"
   invert="false"
   hide_mask="false"
   background="true"
   background_color="#ffffffff" />
	
	
	
	

	
	
		
	
		
	
		
	
		
	
	
	

		
			
		
			
		
			
		
			
		
			
		
			
		
			
		
			
		
			
	<filter
   id="mask-powermask-path-effect6_inverse"
   inkscape:label="filtermask-powermask-path-effect6"
   style="color-interpolation-filters:sRGB"
   height="100"
   width="100"
   x="-50"
   y="-50"><feColorMatrix
     id="mask-powermask-path-effect6_primitive1"
     values="1"
     type="saturate"
     result="fbSourceGraphic" /><feColorMatrix
     id="mask-powermask-path-effect6_primitive2"
     values="-1 0 0 0 1 0 -1 0 0 1 0 0 -1 0 1 0 0 0 1 0 "
     in="fbSourceGraphic" /></filter><filter
   id="mask-powermask-path-effect8_inverse"
   inkscape:label="filtermask-powermask-path-effect8"
   style="color-interpolation-filters:sRGB"
   height="100"
   width="100"
   x="-50"
   y="-50"><feColorMatrix
     id="mask-powermask-path-effect8_primitive1"
     values="1"
     type="saturate"
     result="fbSourceGraphic" /><feColorMatrix
     id="mask-powermask-path-effect8_primitive2"
     values="-1 0 0 0 1 0 -1 0 0 1 0 0 -1 0 1 0 0 0 1 0 "
     in="fbSourceGraphic" /></filter><filter
   id="mask-powermask-path-effect10_inverse"
   inkscape:label="filtermask-powermask-path-effect10"
   style="color-interpolation-filters:sRGB"
   height="100"
   width="100"
   x="-50"
   y="-50"><feColorMatrix
     id="mask-powermask-path-effect10_primitive1"
     values="1"
     type="saturate"
     result="fbSourceGraphic" /><feColorMatrix
     id="mask-powermask-path-effect10_primitive2"
     values="-1 0 0 0 1 0 -1 0 0 1 0 0 -1 0 1 0 0 0 1 0 "
     in="fbSourceGraphic" /></filter><mask
   maskUnits="userSpaceOnUse"
   id="mask-powermask-path-effect11"><g
     id="g11"
     style="font-size:16px;font-family:Arial;-inkscape-font-specification:Arial;letter-spacing:1.8px;fill:#000000;stroke-width:9.14646"
     aria-label="PIETRO GREGORIO&#10;SOFTWARE ENGINEER"
     transform="translate(602.99983,-457.41703)"><path
       style="font-weight:bold;font-family:Consolas;-inkscape-font-specification:'Consolas Bold';fill:#000000"
       d="m 20.596255,288.86008 q 0,0.79687 -0.265625,1.47656 -0.265625,0.67187 -0.789062,1.16406 -0.523438,0.49219 -1.304688,0.76563 -0.78125,0.27343 -1.8125,0.27343 h -0.976562 v 3.28125 h -1.9375 v -10.21093 h 2.992187 q 0.992188,0 1.75,0.21875 0.765625,0.21093 1.28125,0.625 0.523438,0.41406 0.789063,1.02343 0.273437,0.60157 0.273437,1.38282 z m -2.015625,0.13281 q 0,-0.40625 -0.132812,-0.73438 -0.125,-0.33593 -0.390625,-0.57031 -0.257813,-0.23437 -0.65625,-0.35937 -0.398438,-0.125 -0.945313,-0.125 h -1.007812 v 3.74218 h 1.070312 q 0.5,0 0.882813,-0.13281 0.382812,-0.14062 0.640625,-0.39844 0.265625,-0.25781 0.398437,-0.61718 0.140625,-0.35938 0.140625,-0.80469 z m 5.64375,-1.8125 v -1.57031 h 6.453125 v 1.57031 h -2.25 v 7.05469 h 2.25 v 1.58593 H 24.22438 v -1.58593 h 2.25 v -7.05469 z m 10.862501,8.64062 v -10.21093 h 6.148437 v 1.625 h -4.195312 v 2.53906 h 4 v 1.58594 h -4 v 2.83593 h 4.195312 v 1.625 z m 14.542186,-8.60937 v 8.60937 h -1.96875 v -8.60937 h -2.796875 v -1.60156 h 7.5625 v 1.60156 z m 11.370314,8.60937 -1.4375,-3.28125 q -0.203125,-0.46875 -0.570312,-0.70312 -0.359375,-0.24219 -0.851563,-0.24219 h -0.367187 v 4.22656 h -1.921875 v -10.21093 h 2.976562 q 0.84375,0 1.53125,0.14843 0.6875,0.14063 1.171875,0.47657 0.484375,0.33593 0.742188,0.875 0.265625,0.53906 0.265625,1.32031 0,0.5625 -0.164063,1 -0.164062,0.4375 -0.460937,0.75781 -0.296875,0.3125 -0.710938,0.50781 -0.40625,0.19532 -0.890625,0.27344 0.375,0.0781 0.6875,0.42969 0.3125,0.34375 0.625,1 l 1.632813,3.42187 z m -0.476562,-7.20312 q 0,-0.75 -0.476563,-1.07813 -0.476562,-0.32812 -1.429687,-0.32812 h -0.84375 v 2.88281 h 0.78125 q 0.445312,0 0.804687,-0.0937 0.367188,-0.0937 0.625,-0.28125 0.257813,-0.1875 0.398438,-0.46094 0.140625,-0.28125 0.140625,-0.64062 z m 13.424999,2.05469 q 0,1.39062 -0.328125,2.39843 -0.320313,1.00782 -0.890625,1.65625 -0.5625,0.64844 -1.328125,0.96094 -0.757813,0.3125 -1.625,0.3125 -2.015625,0 -3.03125,-1.33594 -1.015625,-1.34375 -1.015625,-3.89843 0,-1.39063 0.320312,-2.39844 0.328125,-1.00781 0.890625,-1.65625 0.570313,-0.64844 1.328125,-0.96094 0.765625,-0.3125 1.632813,-0.3125 2.015625,0 3.03125,1.33594 1.015625,1.33594 1.015625,3.89844 z m -2.03125,0.0937 q 0,-1.8125 -0.484375,-2.70313 -0.484375,-0.89062 -1.59375,-0.89062 -0.554688,0 -0.945313,0.23437 -0.390625,0.22656 -0.648437,0.67188 -0.25,0.44531 -0.367188,1.10156 -0.117187,0.64844 -0.117187,1.49219 0,1.8125 0.484375,2.70312 0.492187,0.89063 1.59375,0.89063 0.554687,0 0.945312,-0.22657 0.398438,-0.23437 0.648438,-0.67968 0.25,-0.44532 0.367187,-1.09375 0.117188,-0.65625 0.117188,-1.5 z m 19.162498,0.73437 v -1.58594 h 3.632813 v 5.44532 q -0.703125,0.32812 -1.46875,0.48437 -0.765625,0.15625 -1.664063,0.15625 -1.0625,0 -1.914062,-0.32812 -0.84375,-0.32813 -1.4375,-0.97657 -0.59375,-0.64843 -0.914063,-1.60937 -0.3125,-0.96094 -0.3125,-2.22656 0,-1.27344 0.328125,-2.28125 0.335938,-1.00782 0.96875,-1.70313 0.640625,-0.70312 1.5625,-1.07031 0.929688,-0.36719 2.117188,-0.36719 0.703125,0 1.367187,0.125 0.671875,0.11719 1.335938,0.32031 v 1.89844 q -0.578125,-0.27344 -1.28125,-0.44531 -0.695313,-0.17969 -1.40625,-0.17969 -0.71875,0 -1.273438,0.25 -0.546875,0.25 -0.921875,0.71094 -0.367187,0.46094 -0.5625,1.13281 -0.1875,0.67188 -0.1875,1.51563 0,0.8125 0.148438,1.46875 0.148437,0.64843 0.476562,1.10937 0.335938,0.45313 0.859375,0.69531 0.523438,0.24219 1.273438,0.24219 0.179687,0 0.3125,-0.008 0.132812,-0.0156 0.25,-0.0391 0.117187,-0.0234 0.21875,-0.0547 0.109375,-0.0312 0.226562,-0.0703 v -2.60938 z m 12.307814,4.32031 -1.4375,-3.28125 q -0.20312,-0.46875 -0.57031,-0.70312 -0.35938,-0.24219 -0.85156,-0.24219 h -0.36719 v 4.22656 h -1.921876 v -10.21093 h 2.976566 q 0.84375,0 1.53125,0.14843 0.6875,0.14063 1.17187,0.47657 0.48438,0.33593 0.74219,0.875 0.26562,0.53906 0.26562,1.32031 0,0.5625 -0.16406,1 -0.16406,0.4375 -0.46094,0.75781 -0.29687,0.3125 -0.71093,0.50781 -0.40625,0.19532 -0.89063,0.27344 0.375,0.0781 0.6875,0.42969 0.3125,0.34375 0.625,1 l 1.63281,3.42187 z m -0.47656,-7.20312 q 0,-0.75 -0.47656,-1.07813 -0.47657,-0.32812 -1.42969,-0.32812 h -0.84375 v 2.88281 h 0.78125 q 0.44531,0 0.80469,-0.0937 0.36718,-0.0937 0.625,-0.28125 0.25781,-0.1875 0.39843,-0.46094 0.14063,-0.28125 0.14063,-0.64062 z m 6.35468,7.20312 v -10.21093 h 6.14844 v 1.625 h -4.19531 v 2.53906 h 4 v 1.58594 h -4 v 2.83593 h 4.19531 v 1.625 z m 13.60469,-4.32031 v -1.58594 h 3.63282 v 5.44532 q -0.70313,0.32812 -1.46875,0.48437 -0.76563,0.15625 -1.66407,0.15625 -1.0625,0 -1.91406,-0.32812 -0.84375,-0.32813 -1.4375,-0.97657 -0.59375,-0.64843 -0.91406,-1.60937 -0.3125,-0.96094 -0.3125,-2.22656 0,-1.27344 0.32812,-2.28125 0.33594,-1.00782 0.96875,-1.70313 0.64063,-0.70312 1.5625,-1.07031 0.92969,-0.36719 2.11719,-0.36719 0.70313,0 1.36719,0.125 0.67187,0.11719 1.33594,0.32031 v 1.89844 q -0.57813,-0.27344 -1.28125,-0.44531 -0.69532,-0.17969 -1.40625,-0.17969 -0.71875,0 -1.27344,0.25 -0.54688,0.25 -0.92188,0.71094 -0.36718,0.46094 -0.5625,1.13281 -0.1875,0.67188 -0.1875,1.51563 0,0.8125 0.14844,1.46875 0.14844,0.64843 0.47656,1.10937 0.33594,0.45313 0.85938,0.69531 0.52344,0.24219 1.27344,0.24219 0.17968,0 0.3125,-0.008 0.13281,-0.0156 0.25,-0.0391 0.11718,-0.0234 0.21875,-0.0547 0.10937,-0.0312 0.22656,-0.0703 v -2.60938 z m 14.65938,-0.82812 q 0,1.39062 -0.32812,2.39843 -0.32032,1.00782 -0.89063,1.65625 -0.5625,0.64844 -1.32812,0.96094 -0.75782,0.3125 -1.625,0.3125 -2.01563,0 -3.03125,-1.33594 -1.01563,-1.34375 -1.01563,-3.89843 0,-1.39063 0.32031,-2.39844 0.32813,-1.00781 0.89063,-1.65625 0.57031,-0.64844 1.32812,-0.96094 0.76563,-0.3125 1.63282,-0.3125 2.01562,0 3.03125,1.33594 1.01562,1.33594 1.01562,3.89844 z m -2.03125,0.0937 q 0,-1.8125 -0.48437,-2.70313 -0.48438,-0.89062 -1.59375,-0.89062 -0.55469,0 -0.94532,0.23437 -0.39062,0.22656 -0.64843,0.67188 -0.25,0.44531 -0.36719,1.10156 -0.11719,0.64844 -0.11719,1.49219 0,1.8125 0.48438,2.70312 0.49218,0.89063 1.59375,0.89063 0.55468,0 0.94531,-0.22657 0.39844,-0.23437 0.64844,-0.67968 0.25,-0.44532 0.36718,-1.09375 0.11719,-0.65625 0.11719,-1.5 z m 10.27656,5.05468 -1.4375,-3.28125 q -0.20313,-0.46875 -0.57031,-0.70312 -0.35938,-0.24219 -0.85157,-0.24219 h -0.36718 v 4.22656 h -1.92188 v -10.21093 h 2.97656 q 0.84375,0 1.53125,0.14843 0.6875,0.14063 1.17188,0.47657 0.48437,0.33593 0.74219,0.875 0.26562,0.53906 0.26562,1.32031 0,0.5625 -0.16406,1 -0.16406,0.4375 -0.46094,0.75781 -0.29687,0.3125 -0.71094,0.50781 -0.40625,0.19532 -0.89062,0.27344 0.375,0.0781 0.6875,0.42969 0.3125,0.34375 0.625,1 l 1.63281,3.42187 z m -0.47656,-7.20312 q 0,-0.75 -0.47657,-1.07813 -0.47656,-0.32812 -1.42968,-0.32812 h -0.84375 v 2.88281 h 0.78125 q 0.44531,0 0.80468,-0.0937 0.36719,-0.0937 0.625,-0.28125 0.25782,-0.1875 0.39844,-0.46094 0.14063,-0.28125 0.14063,-0.64062 z m 6.08905,-1.4375 v -1.57031 H 157.84 v 1.57031 h -2.25 v 7.05469 h 2.25 v 1.58593 h -6.45313 v -1.58593 h 2.25 v -7.05469 z m 17.93282,3.49219 q 0,1.39062 -0.32813,2.39843 -0.32031,1.00782 -0.89062,1.65625 -0.5625,0.64844 -1.32813,0.96094 -0.75781,0.3125 -1.625,0.3125 -2.01562,0 -3.03125,-1.33594 -1.01562,-1.34375 -1.01562,-3.89843 0,-1.39063 0.32031,-2.39844 0.32813,-1.00781 0.89063,-1.65625 0.57031,-0.64844 1.32812,-0.96094 0.76563,-0.3125 1.63281,-0.3125 2.01563,0 3.03125,1.33594 1.01563,1.33594 1.01563,3.89844 z m -2.03125,0.0937 q 0,-1.8125 -0.48438,-2.70313 -0.48437,-0.89062 -1.59375,-0.89062 -0.55468,0 -0.94531,0.23437 -0.39062,0.22656 -0.64844,0.67188 -0.25,0.44531 -0.36718,1.10156 -0.11719,0.64844 -0.11719,1.49219 0,1.8125 0.48437,2.70312 0.49219,0.89063 1.59375,0.89063 0.55469,0 0.94532,-0.22657 0.39843,-0.23437 0.64843,-0.67968 0.25,-0.44532 0.36719,-1.09375 0.11719,-0.65625 0.11719,-1.5 z"
       id="path10" /><path
       style="font-weight:bold;font-family:Consolas;-inkscape-font-specification:'Consolas Bold';fill:#000000"
       d="m 20.42438,313.26434 q 0,0.83593 -0.3125,1.45312 -0.304687,0.61719 -0.859375,1.02344 -0.554687,0.39844 -1.320312,0.59375 -0.765625,0.19531 -1.671875,0.19531 -0.804688,0 -1.554688,-0.0937 -0.75,-0.0937 -1.484375,-0.3125 v -1.89844 q 0.359375,0.125 0.75,0.23438 0.390625,0.10937 0.78125,0.19531 0.398438,0.0781 0.789063,0.125 0.390625,0.0469 0.757812,0.0469 0.546875,0 0.929688,-0.0937 0.382812,-0.0937 0.625,-0.25782 0.242187,-0.16406 0.351562,-0.39062 0.109375,-0.22656 0.109375,-0.5 0,-0.375 -0.21875,-0.625 -0.210937,-0.25781 -0.5625,-0.45313 -0.351562,-0.19531 -0.804687,-0.35156 -0.445313,-0.15625 -0.914063,-0.33594 -0.460937,-0.17968 -0.914062,-0.40625 -0.445313,-0.22656 -0.796875,-0.5625 -0.351563,-0.33593 -0.570313,-0.79687 -0.210937,-0.46875 -0.210937,-1.125 0,-0.60156 0.21875,-1.14063 0.21875,-0.53906 0.6875,-0.9375 0.46875,-0.40625 1.203125,-0.64062 0.734375,-0.24219 1.773437,-0.24219 0.304688,0 0.632813,0.0312 0.335937,0.0234 0.65625,0.0703 0.328125,0.0391 0.625,0.10157 0.304687,0.0547 0.554687,0.11718 v 1.75782 q -0.25,-0.0937 -0.546875,-0.17188 -0.296875,-0.0781 -0.617187,-0.13281 -0.3125,-0.0625 -0.632813,-0.0937 -0.320312,-0.0312 -0.609375,-0.0312 -0.507812,0 -0.859375,0.0859 -0.351562,0.0781 -0.578125,0.22656 -0.226562,0.14062 -0.328125,0.35156 -0.101562,0.21094 -0.101562,0.46875 0,0.32031 0.210937,0.55469 0.21875,0.22656 0.570313,0.41406 0.359375,0.17969 0.804687,0.34375 0.453125,0.15625 0.921875,0.34375 0.476563,0.17969 0.921875,0.41406 0.453125,0.23438 0.804688,0.57032 0.359375,0.33593 0.570312,0.79687 0.21875,0.45313 0.21875,1.07813 z m 11.135938,-2.0625 q 0,1.39062 -0.328125,2.39843 -0.320313,1.00782 -0.890625,1.65625 -0.5625,0.64844 -1.328125,0.96094 -0.757813,0.3125 -1.625,0.3125 -2.015625,0 -3.03125,-1.33594 -1.015625,-1.34375 -1.015625,-3.89843 0,-1.39063 0.320312,-2.39844 0.328125,-1.00781 0.890625,-1.65625 0.570313,-0.64844 1.328125,-0.96094 0.765625,-0.3125 1.632813,-0.3125 2.015625,0 3.03125,1.33594 1.015625,1.33594 1.015625,3.89844 z m -2.03125,0.0937 q 0,-1.8125 -0.484375,-2.70313 -0.484375,-0.89062 -1.59375,-0.89062 -0.554688,0 -0.945313,0.23437 -0.390625,0.22656 -0.648437,0.67188 -0.25,0.44531 -0.367188,1.10156 -0.117187,0.64844 -0.117187,1.49219 0,1.8125 0.484375,2.70312 0.492187,0.89063 1.59375,0.89063 0.554687,0 0.945312,-0.22657 0.398438,-0.23437 0.648438,-0.67968 0.25,-0.44532 0.367187,-1.09375 0.117188,-0.65625 0.117188,-1.5 z m 7.510938,-3.53125 v 2.82812 h 3.859375 v 1.57813 h -3.859375 v 4.17968 h -1.953125 v -10.21093 h 6.03125 v 1.625 z m 12.589061,-0.0234 v 8.60937 h -1.96875 v -8.60937 h -2.796875 v -1.60156 h 7.5625 v 1.60156 z m 13.182814,8.60937 h -2.257812 l -1.007813,-3.14843 -0.367187,-1.28125 -0.351563,1.3125 -0.992187,3.11718 h -2.164063 l -0.570312,-10.21093 h 1.695312 l 0.242188,6.54687 0.0625,1.78906 0.460937,-1.59375 1.125,-3.63281 h 1.210938 l 1.1875,3.85156 0.382812,1.35938 0.03125,-1.59375 0.257813,-6.72656 h 1.632812 z m 9.268749,0 -0.5625,-2.01562 h -3.5625 l -0.578125,2.01562 h -1.90625 l 3.023438,-10.21093 h 2.6875 l 3.023437,10.21093 z m -2.320312,-8.33593 -1.34375,4.75 h 2.671875 z m 12.432812,8.33593 -1.4375,-3.28125 q -0.203125,-0.46875 -0.570313,-0.70312 -0.359375,-0.24219 -0.851562,-0.24219 h -0.367188 v 4.22656 h -1.921875 v -10.21093 h 2.976563 q 0.84375,0 1.53125,0.14843 0.6875,0.14063 1.171875,0.47657 0.484375,0.33593 0.742187,0.875 0.265625,0.53906 0.265625,1.32031 0,0.5625 -0.164062,1 -0.164063,0.4375 -0.460938,0.75781 -0.296875,0.3125 -0.710937,0.50781 -0.40625,0.19532 -0.890625,0.27344 0.375,0.0781 0.6875,0.42969 0.3125,0.34375 0.625,1 l 1.632812,3.42187 z m -0.476563,-7.20312 q 0,-0.75 -0.476562,-1.07813 -0.476563,-0.32812 -1.429688,-0.32812 h -0.84375 v 2.88281 h 0.78125 q 0.445313,0 0.804688,-0.0937 0.367187,-0.0937 0.625,-0.28125 0.257812,-0.1875 0.398437,-0.46094 0.140625,-0.28125 0.140625,-0.64062 z m 6.354687,7.20312 v -10.21093 h 6.148437 v 1.625 h -4.195312 v 2.53906 h 4 v 1.58594 h -4 v 2.83593 h 4.195312 v 1.625 z m 21.193746,0 v -10.21093 h 6.14844 v 1.625 h -4.19531 v 2.53906 h 4 v 1.58594 h -4 v 2.83593 h 4.19531 v 1.625 z m 14.94063,0 -2.73437,-6.09375 -0.5625,-1.3125 v 4.23438 3.17187 h -1.75 v -10.21093 h 2.35937 l 2.78906,6.13281 0.49219,1.19531 v -4.50781 -2.82031 h 1.75 v 10.21093 z m 9.26094,-4.32031 v -1.58594 h 3.63281 v 5.44532 q -0.70312,0.32812 -1.46875,0.48437 -0.76562,0.15625 -1.66406,0.15625 -1.0625,0 -1.91406,-0.32812 -0.84375,-0.32813 -1.4375,-0.97657 -0.59375,-0.64843 -0.91406,-1.60937 -0.3125,-0.96094 -0.3125,-2.22656 0,-1.27344 0.32812,-2.28125 0.33594,-1.00782 0.96875,-1.70313 0.64063,-0.70312 1.5625,-1.07031 0.92969,-0.36719 2.11719,-0.36719 0.70312,0 1.36719,0.125 0.67187,0.11719 1.33593,0.32031 v 1.89844 q -0.57812,-0.27344 -1.28125,-0.44531 -0.69531,-0.17969 -1.40625,-0.17969 -0.71875,0 -1.27343,0.25 -0.54688,0.25 -0.92188,0.71094 -0.36719,0.46094 -0.5625,1.13281 -0.1875,0.67188 -0.1875,1.51563 0,0.8125 0.14844,1.46875 0.14844,0.64843 0.47656,1.10937 0.33594,0.45313 0.85938,0.69531 0.52343,0.24219 1.27343,0.24219 0.17969,0 0.3125,-0.008 0.13282,-0.0156 0.25,-0.0391 0.11719,-0.0234 0.21875,-0.0547 0.10938,-0.0312 0.22657,-0.0703 v -2.60938 z m 7.32343,-4.32031 v -1.57031 h 6.45313 v 1.57031 h -2.25 v 7.05469 h 2.25 v 1.58593 H 140.79 v -1.58593 h 2.25 v -7.05469 z m 15.20625,8.64062 -2.73438,-6.09375 -0.5625,-1.3125 v 4.23438 3.17187 h -1.75 v -10.21093 h 2.35938 l 2.78906,6.13281 0.49219,1.19531 v -4.50781 -2.82031 h 1.75 v 10.21093 z m 6.25313,0 v -10.21093 h 6.14843 v 1.625 h -4.19531 v 2.53906 h 4 v 1.58594 h -4 v 2.83593 h 4.19531 v 1.625 z m 10.59688,0 v -10.21093 h 6.14843 v 1.625 h -4.19531 v 2.53906 h 4 v 1.58594 h -4 v 2.83593 h 4.19531 v 1.625 z m 15.31562,0 -1.4375,-3.28125 q -0.20312,-0.46875 -0.57031,-0.70312 -0.35937,-0.24219 -0.85156,-0.24219 h -0.36719 v 4.22656 h -1.92187 v -10.21093 h 2.97656 q 0.84375,0 1.53125,0.14843 0.6875,0.14063 1.17187,0.47657 0.48438,0.33593 0.74219,0.875 0.26563,0.53906 0.26563,1.32031 0,0.5625 -0.16407,1 -0.16406,0.4375 -0.46093,0.75781 -0.29688,0.3125 -0.71094,0.50781 -0.40625,0.19532 -0.89063,0.27344 0.375,0.0781 0.6875,0.42969 0.3125,0.34375 0.625,1 l 1.63282,3.42187 z m -0.47656,-7.20312 q 0,-0.75 -0.47656,-1.07813 -0.47656,-0.32812 -1.42969,-0.32812 h -0.84375 v 2.88281 h 0.78125 q 0.44531,0 0.80469,-0.0937 0.36719,-0.0937 0.625,-0.28125 0.25781,-0.1875 0.39844,-0.46094 0.14062,-0.28125 0.14062,-0.64062 z"
       id="path11" /></g></mask><filter
   id="mask-powermask-path-effect13_inverse"
   inkscape:label="filtermask-powermask-path-effect13"
   style="color-interpolation-filters:sRGB"
   height="100"
   width="100"
   x="-50"
   y="-50"><feColorMatrix
     id="mask-powermask-path-effect13_primitive1"
     values="1"
     type="saturate"
     result="fbSourceGraphic" /><feColorMatrix
     id="mask-powermask-path-effect13_primitive2"
     values="-1 0 0 0 1 0 -1 0 0 1 0 0 -1 0 1 0 0 0 1 0 "
     in="fbSourceGraphic" /></filter><mask
   maskUnits="userSpaceOnUse"
   id="mask-powermask-path-effect14"><g
     id="g14"
     style="font-size:16px;font-family:Arial;-inkscape-font-specification:Arial;letter-spacing:1.8px;fill:#1a1a1a;stroke-width:9.14646"
     aria-label="PIETRO GREGORIO&#10;SOFTWARE ENGINEER"
     transform="translate(404.41916,-337.25575)"><path
       style="font-weight:bold;font-family:Consolas;-inkscape-font-specification:'Consolas Bold';fill:#1a1a1a"
       d="m 20.596255,288.86008 q 0,0.79687 -0.265625,1.47656 -0.265625,0.67187 -0.789062,1.16406 -0.523438,0.49219 -1.304688,0.76563 -0.78125,0.27343 -1.8125,0.27343 h -0.976562 v 3.28125 h -1.9375 v -10.21093 h 2.992187 q 0.992188,0 1.75,0.21875 0.765625,0.21093 1.28125,0.625 0.523438,0.41406 0.789063,1.02343 0.273437,0.60157 0.273437,1.38282 z m -2.015625,0.13281 q 0,-0.40625 -0.132812,-0.73438 -0.125,-0.33593 -0.390625,-0.57031 -0.257813,-0.23437 -0.65625,-0.35937 -0.398438,-0.125 -0.945313,-0.125 h -1.007812 v 3.74218 h 1.070312 q 0.5,0 0.882813,-0.13281 0.382812,-0.14062 0.640625,-0.39844 0.265625,-0.25781 0.398437,-0.61718 0.140625,-0.35938 0.140625,-0.80469 z m 5.64375,-1.8125 v -1.57031 h 6.453125 v 1.57031 h -2.25 v 7.05469 h 2.25 v 1.58593 H 24.22438 v -1.58593 h 2.25 v -7.05469 z m 10.862501,8.64062 v -10.21093 h 6.148437 v 1.625 h -4.195312 v 2.53906 h 4 v 1.58594 h -4 v 2.83593 h 4.195312 v 1.625 z m 14.542186,-8.60937 v 8.60937 h -1.96875 v -8.60937 h -2.796875 v -1.60156 h 7.5625 v 1.60156 z m 11.370314,8.60937 -1.4375,-3.28125 q -0.203125,-0.46875 -0.570312,-0.70312 -0.359375,-0.24219 -0.851563,-0.24219 h -0.367187 v 4.22656 h -1.921875 v -10.21093 h 2.976562 q 0.84375,0 1.53125,0.14843 0.6875,0.14063 1.171875,0.47657 0.484375,0.33593 0.742188,0.875 0.265625,0.53906 0.265625,1.32031 0,0.5625 -0.164063,1 -0.164062,0.4375 -0.460937,0.75781 -0.296875,0.3125 -0.710938,0.50781 -0.40625,0.19532 -0.890625,0.27344 0.375,0.0781 0.6875,0.42969 0.3125,0.34375 0.625,1 l 1.632813,3.42187 z m -0.476562,-7.20312 q 0,-0.75 -0.476563,-1.07813 -0.476562,-0.32812 -1.429687,-0.32812 h -0.84375 v 2.88281 h 0.78125 q 0.445312,0 0.804687,-0.0937 0.367188,-0.0937 0.625,-0.28125 0.257813,-0.1875 0.398438,-0.46094 0.140625,-0.28125 0.140625,-0.64062 z m 13.424999,2.05469 q 0,1.39062 -0.328125,2.39843 -0.320313,1.00782 -0.890625,1.65625 -0.5625,0.64844 -1.328125,0.96094 -0.757813,0.3125 -1.625,0.3125 -2.015625,0 -3.03125,-1.33594 -1.015625,-1.34375 -1.015625,-3.89843 0,-1.39063 0.320312,-2.39844 0.328125,-1.00781 0.890625,-1.65625 0.570313,-0.64844 1.328125,-0.96094 0.765625,-0.3125 1.632813,-0.3125 2.015625,0 3.03125,1.33594 1.015625,1.33594 1.015625,3.89844 z m -2.03125,0.0937 q 0,-1.8125 -0.484375,-2.70313 -0.484375,-0.89062 -1.59375,-0.89062 -0.554688,0 -0.945313,0.23437 -0.390625,0.22656 -0.648437,0.67188 -0.25,0.44531 -0.367188,1.10156 -0.117187,0.64844 -0.117187,1.49219 0,1.8125 0.484375,2.70312 0.492187,0.89063 1.59375,0.89063 0.554687,0 0.945312,-0.22657 0.398438,-0.23437 0.648438,-0.67968 0.25,-0.44532 0.367187,-1.09375 0.117188,-0.65625 0.117188,-1.5 z m 19.162498,0.73437 v -1.58594 h 3.632813 v 5.44532 q -0.703125,0.32812 -1.46875,0.48437 -0.765625,0.15625 -1.664063,0.15625 -1.0625,0 -1.914062,-0.32812 -0.84375,-0.32813 -1.4375,-0.97657 -0.59375,-0.64843 -0.914063,-1.60937 -0.3125,-0.96094 -0.3125,-2.22656 0,-1.27344 0.328125,-2.28125 0.335938,-1.00782 0.96875,-1.70313 0.640625,-0.70312 1.5625,-1.07031 0.929688,-0.36719 2.117188,-0.36719 0.703125,0 1.367187,0.125 0.671875,0.11719 1.335938,0.32031 v 1.89844 q -0.578125,-0.27344 -1.28125,-0.44531 -0.695313,-0.17969 -1.40625,-0.17969 -0.71875,0 -1.273438,0.25 -0.546875,0.25 -0.921875,0.71094 -0.367187,0.46094 -0.5625,1.13281 -0.1875,0.67188 -0.1875,1.51563 0,0.8125 0.148438,1.46875 0.148437,0.64843 0.476562,1.10937 0.335938,0.45313 0.859375,0.69531 0.523438,0.24219 1.273438,0.24219 0.179687,0 0.3125,-0.008 0.132812,-0.0156 0.25,-0.0391 0.117187,-0.0234 0.21875,-0.0547 0.109375,-0.0312 0.226562,-0.0703 v -2.60938 z m 12.307814,4.32031 -1.4375,-3.28125 q -0.20312,-0.46875 -0.57031,-0.70312 -0.35938,-0.24219 -0.85156,-0.24219 h -0.36719 v 4.22656 h -1.921876 v -10.21093 h 2.976566 q 0.84375,0 1.53125,0.14843 0.6875,0.14063 1.17187,0.47657 0.48438,0.33593 0.74219,0.875 0.26562,0.53906 0.26562,1.32031 0,0.5625 -0.16406,1 -0.16406,0.4375 -0.46094,0.75781 -0.29687,0.3125 -0.71093,0.50781 -0.40625,0.19532 -0.89063,0.27344 0.375,0.0781 0.6875,0.42969 0.3125,0.34375 0.625,1 l 1.63281,3.42187 z m -0.47656,-7.20312 q 0,-0.75 -0.47656,-1.07813 -0.47657,-0.32812 -1.42969,-0.32812 h -0.84375 v 2.88281 h 0.78125 q 0.44531,0 0.80469,-0.0937 0.36718,-0.0937 0.625,-0.28125 0.25781,-0.1875 0.39843,-0.46094 0.14063,-0.28125 0.14063,-0.64062 z m 6.35468,7.20312 v -10.21093 h 6.14844 v 1.625 h -4.19531 v 2.53906 h 4 v 1.58594 h -4 v 2.83593 h 4.19531 v 1.625 z m 13.60469,-4.32031 v -1.58594 h 3.63282 v 5.44532 q -0.70313,0.32812 -1.46875,0.48437 -0.76563,0.15625 -1.66407,0.15625 -1.0625,0 -1.91406,-0.32812 -0.84375,-0.32813 -1.4375,-0.97657 -0.59375,-0.64843 -0.91406,-1.60937 -0.3125,-0.96094 -0.3125,-2.22656 0,-1.27344 0.32812,-2.28125 0.33594,-1.00782 0.96875,-1.70313 0.64063,-0.70312 1.5625,-1.07031 0.92969,-0.36719 2.11719,-0.36719 0.70313,0 1.36719,0.125 0.67187,0.11719 1.33594,0.32031 v 1.89844 q -0.57813,-0.27344 -1.28125,-0.44531 -0.69532,-0.17969 -1.40625,-0.17969 -0.71875,0 -1.27344,0.25 -0.54688,0.25 -0.92188,0.71094 -0.36718,0.46094 -0.5625,1.13281 -0.1875,0.67188 -0.1875,1.51563 0,0.8125 0.14844,1.46875 0.14844,0.64843 0.47656,1.10937 0.33594,0.45313 0.85938,0.69531 0.52344,0.24219 1.27344,0.24219 0.17968,0 0.3125,-0.008 0.13281,-0.0156 0.25,-0.0391 0.11718,-0.0234 0.21875,-0.0547 0.10937,-0.0312 0.22656,-0.0703 v -2.60938 z m 14.65938,-0.82812 q 0,1.39062 -0.32812,2.39843 -0.32032,1.00782 -0.89063,1.65625 -0.5625,0.64844 -1.32812,0.96094 -0.75782,0.3125 -1.625,0.3125 -2.01563,0 -3.03125,-1.33594 -1.01563,-1.34375 -1.01563,-3.89843 0,-1.39063 0.32031,-2.39844 0.32813,-1.00781 0.89063,-1.65625 0.57031,-0.64844 1.32812,-0.96094 0.76563,-0.3125 1.63282,-0.3125 2.01562,0 3.03125,1.33594 1.01562,1.33594 1.01562,3.89844 z m -2.03125,0.0937 q 0,-1.8125 -0.48437,-2.70313 -0.48438,-0.89062 -1.59375,-0.89062 -0.55469,0 -0.94532,0.23437 -0.39062,0.22656 -0.64843,0.67188 -0.25,0.44531 -0.36719,1.10156 -0.11719,0.64844 -0.11719,1.49219 0,1.8125 0.48438,2.70312 0.49218,0.89063 1.59375,0.89063 0.55468,0 0.94531,-0.22657 0.39844,-0.23437 0.64844,-0.67968 0.25,-0.44532 0.36718,-1.09375 0.11719,-0.65625 0.11719,-1.5 z m 10.27656,5.05468 -1.4375,-3.28125 q -0.20313,-0.46875 -0.57031,-0.70312 -0.35938,-0.24219 -0.85157,-0.24219 h -0.36718 v 4.22656 h -1.92188 v -10.21093 h 2.97656 q 0.84375,0 1.53125,0.14843 0.6875,0.14063 1.17188,0.47657 0.48437,0.33593 0.74219,0.875 0.26562,0.53906 0.26562,1.32031 0,0.5625 -0.16406,1 -0.16406,0.4375 -0.46094,0.75781 -0.29687,0.3125 -0.71094,0.50781 -0.40625,0.19532 -0.89062,0.27344 0.375,0.0781 0.6875,0.42969 0.3125,0.34375 0.625,1 l 1.63281,3.42187 z m -0.47656,-7.20312 q 0,-0.75 -0.47657,-1.07813 -0.47656,-0.32812 -1.42968,-0.32812 h -0.84375 v 2.88281 h 0.78125 q 0.44531,0 0.80468,-0.0937 0.36719,-0.0937 0.625,-0.28125 0.25782,-0.1875 0.39844,-0.46094 0.14063,-0.28125 0.14063,-0.64062 z m 6.08905,-1.4375 v -1.57031 H 157.84 v 1.57031 h -2.25 v 7.05469 h 2.25 v 1.58593 h -6.45313 v -1.58593 h 2.25 v -7.05469 z m 17.93282,3.49219 q 0,1.39062 -0.32813,2.39843 -0.32031,1.00782 -0.89062,1.65625 -0.5625,0.64844 -1.32813,0.96094 -0.75781,0.3125 -1.625,0.3125 -2.01562,0 -3.03125,-1.33594 -1.01562,-1.34375 -1.01562,-3.89843 0,-1.39063 0.32031,-2.39844 0.32813,-1.00781 0.89063,-1.65625 0.57031,-0.64844 1.32812,-0.96094 0.76563,-0.3125 1.63281,-0.3125 2.01563,0 3.03125,1.33594 1.01563,1.33594 1.01563,3.89844 z m -2.03125,0.0937 q 0,-1.8125 -0.48438,-2.70313 -0.48437,-0.89062 -1.59375,-0.89062 -0.55468,0 -0.94531,0.23437 -0.39062,0.22656 -0.64844,0.67188 -0.25,0.44531 -0.36718,1.10156 -0.11719,0.64844 -0.11719,1.49219 0,1.8125 0.48437,2.70312 0.49219,0.89063 1.59375,0.89063 0.55469,0 0.94532,-0.22657 0.39843,-0.23437 0.64843,-0.67968 0.25,-0.44532 0.36719,-1.09375 0.11719,-0.65625 0.11719,-1.5 z"
       id="path13" /><path
       style="font-weight:bold;font-family:Consolas;-inkscape-font-specification:'Consolas Bold';fill:#1a1a1a"
       d="m 20.42438,313.26434 q 0,0.83593 -0.3125,1.45312 -0.304687,0.61719 -0.859375,1.02344 -0.554687,0.39844 -1.320312,0.59375 -0.765625,0.19531 -1.671875,0.19531 -0.804688,0 -1.554688,-0.0937 -0.75,-0.0937 -1.484375,-0.3125 v -1.89844 q 0.359375,0.125 0.75,0.23438 0.390625,0.10937 0.78125,0.19531 0.398438,0.0781 0.789063,0.125 0.390625,0.0469 0.757812,0.0469 0.546875,0 0.929688,-0.0937 0.382812,-0.0937 0.625,-0.25782 0.242187,-0.16406 0.351562,-0.39062 0.109375,-0.22656 0.109375,-0.5 0,-0.375 -0.21875,-0.625 -0.210937,-0.25781 -0.5625,-0.45313 -0.351562,-0.19531 -0.804687,-0.35156 -0.445313,-0.15625 -0.914063,-0.33594 -0.460937,-0.17968 -0.914062,-0.40625 -0.445313,-0.22656 -0.796875,-0.5625 -0.351563,-0.33593 -0.570313,-0.79687 -0.210937,-0.46875 -0.210937,-1.125 0,-0.60156 0.21875,-1.14063 0.21875,-0.53906 0.6875,-0.9375 0.46875,-0.40625 1.203125,-0.64062 0.734375,-0.24219 1.773437,-0.24219 0.304688,0 0.632813,0.0312 0.335937,0.0234 0.65625,0.0703 0.328125,0.0391 0.625,0.10157 0.304687,0.0547 0.554687,0.11718 v 1.75782 q -0.25,-0.0937 -0.546875,-0.17188 -0.296875,-0.0781 -0.617187,-0.13281 -0.3125,-0.0625 -0.632813,-0.0937 -0.320312,-0.0312 -0.609375,-0.0312 -0.507812,0 -0.859375,0.0859 -0.351562,0.0781 -0.578125,0.22656 -0.226562,0.14062 -0.328125,0.35156 -0.101562,0.21094 -0.101562,0.46875 0,0.32031 0.210937,0.55469 0.21875,0.22656 0.570313,0.41406 0.359375,0.17969 0.804687,0.34375 0.453125,0.15625 0.921875,0.34375 0.476563,0.17969 0.921875,0.41406 0.453125,0.23438 0.804688,0.57032 0.359375,0.33593 0.570312,0.79687 0.21875,0.45313 0.21875,1.07813 z m 11.135938,-2.0625 q 0,1.39062 -0.328125,2.39843 -0.320313,1.00782 -0.890625,1.65625 -0.5625,0.64844 -1.328125,0.96094 -0.757813,0.3125 -1.625,0.3125 -2.015625,0 -3.03125,-1.33594 -1.015625,-1.34375 -1.015625,-3.89843 0,-1.39063 0.320312,-2.39844 0.328125,-1.00781 0.890625,-1.65625 0.570313,-0.64844 1.328125,-0.96094 0.765625,-0.3125 1.632813,-0.3125 2.015625,0 3.03125,1.33594 1.015625,1.33594 1.015625,3.89844 z m -2.03125,0.0937 q 0,-1.8125 -0.484375,-2.70313 -0.484375,-0.89062 -1.59375,-0.89062 -0.554688,0 -0.945313,0.23437 -0.390625,0.22656 -0.648437,0.67188 -0.25,0.44531 -0.367188,1.10156 -0.117187,0.64844 -0.117187,1.49219 0,1.8125 0.484375,2.70312 0.492187,0.89063 1.59375,0.89063 0.554687,0 0.945312,-0.22657 0.398438,-0.23437 0.648438,-0.67968 0.25,-0.44532 0.367187,-1.09375 0.117188,-0.65625 0.117188,-1.5 z m 7.510938,-3.53125 v 2.82812 h 3.859375 v 1.57813 h -3.859375 v 4.17968 h -1.953125 v -10.21093 h 6.03125 v 1.625 z m 12.589061,-0.0234 v 8.60937 h -1.96875 v -8.60937 h -2.796875 v -1.60156 h 7.5625 v 1.60156 z m 13.182814,8.60937 h -2.257812 l -1.007813,-3.14843 -0.367187,-1.28125 -0.351563,1.3125 -0.992187,3.11718 h -2.164063 l -0.570312,-10.21093 h 1.695312 l 0.242188,6.54687 0.0625,1.78906 0.460937,-1.59375 1.125,-3.63281 h 1.210938 l 1.1875,3.85156 0.382812,1.35938 0.03125,-1.59375 0.257813,-6.72656 h 1.632812 z m 9.268749,0 -0.5625,-2.01562 h -3.5625 l -0.578125,2.01562 h -1.90625 l 3.023438,-10.21093 h 2.6875 l 3.023437,10.21093 z m -2.320312,-8.33593 -1.34375,4.75 h 2.671875 z m 12.432812,8.33593 -1.4375,-3.28125 q -0.203125,-0.46875 -0.570313,-0.70312 -0.359375,-0.24219 -0.851562,-0.24219 h -0.367188 v 4.22656 h -1.921875 v -10.21093 h 2.976563 q 0.84375,0 1.53125,0.14843 0.6875,0.14063 1.171875,0.47657 0.484375,0.33593 0.742187,0.875 0.265625,0.53906 0.265625,1.32031 0,0.5625 -0.164062,1 -0.164063,0.4375 -0.460938,0.75781 -0.296875,0.3125 -0.710937,0.50781 -0.40625,0.19532 -0.890625,0.27344 0.375,0.0781 0.6875,0.42969 0.3125,0.34375 0.625,1 l 1.632812,3.42187 z m -0.476563,-7.20312 q 0,-0.75 -0.476562,-1.07813 -0.476563,-0.32812 -1.429688,-0.32812 h -0.84375 v 2.88281 h 0.78125 q 0.445313,0 0.804688,-0.0937 0.367187,-0.0937 0.625,-0.28125 0.257812,-0.1875 0.398437,-0.46094 0.140625,-0.28125 0.140625,-0.64062 z m 6.354687,7.20312 v -10.21093 h 6.148437 v 1.625 h -4.195312 v 2.53906 h 4 v 1.58594 h -4 v 2.83593 h 4.195312 v 1.625 z m 21.193746,0 v -10.21093 h 6.14844 v 1.625 h -4.19531 v 2.53906 h 4 v 1.58594 h -4 v 2.83593 h 4.19531 v 1.625 z m 14.94063,0 -2.73437,-6.09375 -0.5625,-1.3125 v 4.23438 3.17187 h -1.75 v -10.21093 h 2.35937 l 2.78906,6.13281 0.49219,1.19531 v -4.50781 -2.82031 h 1.75 v 10.21093 z m 9.26094,-4.32031 v -1.58594 h 3.63281 v 5.44532 q -0.70312,0.32812 -1.46875,0.48437 -0.76562,0.15625 -1.66406,0.15625 -1.0625,0 -1.91406,-0.32812 -0.84375,-0.32813 -1.4375,-0.97657 -0.59375,-0.64843 -0.91406,-1.60937 -0.3125,-0.96094 -0.3125,-2.22656 0,-1.27344 0.32812,-2.28125 0.33594,-1.00782 0.96875,-1.70313 0.64063,-0.70312 1.5625,-1.07031 0.92969,-0.36719 2.11719,-0.36719 0.70312,0 1.36719,0.125 0.67187,0.11719 1.33593,0.32031 v 1.89844 q -0.57812,-0.27344 -1.28125,-0.44531 -0.69531,-0.17969 -1.40625,-0.17969 -0.71875,0 -1.27343,0.25 -0.54688,0.25 -0.92188,0.71094 -0.36719,0.46094 -0.5625,1.13281 -0.1875,0.67188 -0.1875,1.51563 0,0.8125 0.14844,1.46875 0.14844,0.64843 0.47656,1.10937 0.33594,0.45313 0.85938,0.69531 0.52343,0.24219 1.27343,0.24219 0.17969,0 0.3125,-0.008 0.13282,-0.0156 0.25,-0.0391 0.11719,-0.0234 0.21875,-0.0547 0.10938,-0.0312 0.22657,-0.0703 v -2.60938 z m 7.32343,-4.32031 v -1.57031 h 6.45313 v 1.57031 h -2.25 v 7.05469 h 2.25 v 1.58593 H 140.79 v -1.58593 h 2.25 v -7.05469 z m 15.20625,8.64062 -2.73438,-6.09375 -0.5625,-1.3125 v 4.23438 3.17187 h -1.75 v -10.21093 h 2.35938 l 2.78906,6.13281 0.49219,1.19531 v -4.50781 -2.82031 h 1.75 v 10.21093 z m 6.25313,0 v -10.21093 h 6.14843 v 1.625 h -4.19531 v 2.53906 h 4 v 1.58594 h -4 v 2.83593 h 4.19531 v 1.625 z m 10.59688,0 v -10.21093 h 6.14843 v 1.625 h -4.19531 v 2.53906 h 4 v 1.58594 h -4 v 2.83593 h 4.19531 v 1.625 z m 15.31562,0 -1.4375,-3.28125 q -0.20312,-0.46875 -0.57031,-0.70312 -0.35937,-0.24219 -0.85156,-0.24219 h -0.36719 v 4.22656 h -1.92187 v -10.21093 h 2.97656 q 0.84375,0 1.53125,0.14843 0.6875,0.14063 1.17187,0.47657 0.48438,0.33593 0.74219,0.875 0.26563,0.53906 0.26563,1.32031 0,0.5625 -0.16407,1 -0.16406,0.4375 -0.46093,0.75781 -0.29688,0.3125 -0.71094,0.50781 -0.40625,0.19532 -0.89063,0.27344 0.375,0.0781 0.6875,0.42969 0.3125,0.34375 0.625,1 l 1.63282,3.42187 z m -0.47656,-7.20312 q 0,-0.75 -0.47656,-1.07813 -0.47656,-0.32812 -1.42969,-0.32812 h -0.84375 v 2.88281 h 0.78125 q 0.44531,0 0.80469,-0.0937 0.36719,-0.0937 0.625,-0.28125 0.25781,-0.1875 0.39844,-0.46094 0.14062,-0.28125 0.14062,-0.64062 z"
       id="path14" /></g></mask><clipPath
   id="SVGID_2_"><use
     xlink:href="#SVGID_1_"
     overflow="visible"
     id="use1" /></clipPath><path
   id="SVGID_1_"
   d="m 98.1,244.8 c 1.6,7.5 5.5,11.9 9.4,14.5 h 41.1 c 5,-3.4 10.1,-9.8 10.1,-21.8 v -31 c 0,0 0.6,-7.7 7.7,-10.2 0,0 4.1,-2.9 -0.3,-4.5 0,0 -19.5,-1.6 -19.5,14.4 v 23.6 c 0,0 0.8,8.7 -3.8,12.3 v -29.2 c 0,0 0.3,-9.3 5.1,-12.8 0,0 3.2,-5.7 -3.8,-4.2 0,0 -13.4,1.9 -14,17.6 l -0.3,30 h -3.2 l -0.3,-30 c -0.6,-15.6 -14,-17.6 -14,-17.6 -7,-1.6 -3.8,4.2 -3.8,4.2 4.8,3.5 5.1,12.8 5.1,12.8 v 29.5 c -4.6,-3.3 -3.8,-12.6 -3.8,-12.6 v -23.6 c 0,-16 -19.5,-14.4 -19.5,-14.4 -4.5,1.6 -0.3,4.5 -0.3,4.5 7,2.6 7.7,10.2 7.7,10.2 v 21.7 z" /><defs
   id="defs2"><path
     id="path3"
     d="m 98.1,244.8 c 1.6,7.5 5.5,11.9 9.4,14.5 h 41.1 c 5,-3.4 10.1,-9.8 10.1,-21.8 v -31 c 0,0 0.6,-7.7 7.7,-10.2 0,0 4.1,-2.9 -0.3,-4.5 0,0 -19.5,-1.6 -19.5,14.4 v 23.6 c 0,0 0.8,8.7 -3.8,12.3 v -29.2 c 0,0 0.3,-9.3 5.1,-12.8 0,0 3.2,-5.7 -3.8,-4.2 0,0 -13.4,1.9 -14,17.6 l -0.3,30 h -3.2 l -0.3,-30 c -0.6,-15.6 -14,-17.6 -14,-17.6 -7,-1.6 -3.8,4.2 -3.8,4.2 4.8,3.5 5.1,12.8 5.1,12.8 v 29.5 c -4.6,-3.3 -3.8,-12.6 -3.8,-12.6 v -23.6 c 0,-16 -19.5,-14.4 -19.5,-14.4 -4.5,1.6 -0.3,4.5 -0.3,4.5 7,2.6 7.7,10.2 7.7,10.2 v 21.7 z" /></defs><clipPath
   id="clipPath2"><use
     xlink:href="#SVGID_1_"
     overflow="visible"
     id="use2" /></clipPath></defs><sodipodi:namedview
   id="namedview17"
   pagecolor="#ffffff"
   bordercolor="#000000"
   borderopacity="0.25"
   inkscape:showpageshadow="2"
   inkscape:pageopacity="0.0"
   inkscape:pagecheckerboard="0"
   inkscape:deskcolor="#d1d1d1"
   inkscape:zoom="5.6568546"
   inkscape:cx="146.72465"
   inkscape:cy="192.42142"
   inkscape:window-width="2560"
   inkscape:window-height="1369"
   inkscape:window-x="-8"
   inkscape:window-y="-8"
   inkscape:window-maximized="1"
   inkscape:current-layer="svg17"
   inkscape:document-units="mm" />


<path
   id="path28-3-4-3"
   style="baseline-shift:baseline;display:inline;overflow:visible;vector-effect:none;fill:#ffffff;stroke:none;stroke-width:1;enable-background:accumulate;stop-color:#000000"
   d="m 19.843164,-7.523202e-4 c 0.09225,0.0900440002 0.18978,0.1872674802 0.29102,0.2910156102 l 0.0019,0.003906 0.002,0.001953 c 0.17114,0.16954 0.34446,0.34219812 0.52149,0.51757812 0.0822,0.0814 0.16067,0.15819125 0.24023,0.23828129 h -2.1543 v 1.3867191 h 2.11133 l -1.50195,1.4902343 0.9668,0.9335938 0.7871,-0.78125 0.002,-0.00195 c 0.17544,-0.17959 0.35199,-0.3555769 0.52734,-0.5292969 l 0.23242,-0.2304688 v 2.1796875 h 1.31836 V 3.3156539 l 1.51172,1.4902344 0.30078,-0.265625 c 0.059,-0.052 0.11446,-0.1051832 0.16797,-0.1582032 0.0475,-0.0471 0.11335,-0.1080206 0.19336,-0.1816406 l 0.32422,-0.3007812 -0.31445,-0.3105469 c -0.14279,-0.14147 -0.30101,-0.2945112 -0.47657,-0.4570312 l -0.01171,-0.00781 c -0.16822,-0.16654 -0.33796,-0.33354 -0.51172,-0.5 l -0.0039,-0.00391 c -0.0633,-0.0628 -0.12184,-0.1204706 -0.18359,-0.1816406 h 2.11914 V 1.0519808 h -2.13282 l 1.06836,-1.0527343202 h -1.9414 C 23.261724,0.03505748 23.225984,0.07049948 23.188914,0.10666838 V -7.535202e-4 h -1.31836 V 0.13401208 l -0.13476,-0.1347656002 z m 40.5332,0 2.71289,5.0937499202 -2.78125,4.4824219 h 1.13086 l 3.90235,-2.078125 3.34765,2.078125 h 1.36328 l -2.30468,-4.3300781 3.2539,-5.2460937202 h -0.17383 L 65.495504,2.8410445 60.917384,-7.523202e-4 Z m 25.5293,0 C 85.397464,0.73102161 84.875844,1.5223797 84.692774,1.5695601 c -0.35117,0.0905 -3.1061,-1.61240182 -3.36524,-1.35742181 -0.25913,0.25498 1.37114,3.06292251 1.27344,3.41406251 -0.09766,0.35115 -2.93961,1.9006862 -2.84961,2.2539062 0.08997,0.35322 3.32266,0.3350531 3.57617,0.5957031 0.19406,0.1995273 0.18694,2.1512551 0.33008,3.0996094 h 0.74024 c 0.6144,-0.7951847 1.49634,-2.2422768 1.74609,-2.3066406 0.35117,-0.0905 3.10609,1.6124018 3.36523,1.3574218 0.25914,-0.25499 -1.37113,-3.0629124 -1.27343,-3.4140624 0.09766,-0.35114 2.93961,-1.9006863 2.84961,-2.2539063 -0.08998,-0.35322 -3.32267,-0.3370062 -3.57618,-0.5976562 -0.1516,-0.1558785 -0.18193,-1.38054827 -0.25585,-2.3613281202 z m 5.52734,0 C 91.161954,0.20928106 90.987844,0.38050487 91.011134,0.47190391 c 0.08997,0.35322 3.32266,0.33700625 3.57617,0.59765629 0.2535,0.26065 0.16651,3.5111749 0.51562,3.6093749 0.34911,0.09824 1.94962,-2.7259062 2.30079,-2.8164062 0.35117,-0.09049 3.106086,1.6104588 3.365226,1.3554688 0.231,-0.2272914 -1.038516,-2.4828296 -1.248046,-3.2187500202 z m 17.041016,0 1.51758,2.5292968202 -12.294926,1.9511719 12.294926,1.953125 -1.88477,3.1425781 h 4.01172 l 0.63477,-0.3808594 0.0605,0.3808594 h 3.78321 l 0.0605,-0.3808594 0.63477,0.3808594 h 4.01172 l -1.88477,-3.1425781 12.29297,-1.953125 -12.29297,-1.9511719 1.51758,-2.5292968202 z m 38.29492,0 1.11133,1.8535156202 -8.19531,1.3007812 8.19531,1.3027344 -2.75781,4.5996093 4.5996,-2.7597656 0.51954,3.2792969 h 1.5625 l 0.52148,-3.2792969 4.59961,2.7597656 -2.75977,-4.5996093 8.19727,-1.3027344 -8.19727,-1.3007812 1.11133,-1.8535156202 h -2.93164 l -0.0195,0.0117190002 -0.002,-0.0117190002 H 149.724 L 149.722,0.01096668 149.7025,-7.523202e-4 Z m 18.89258,0 3.63086,6.0546874202 -12.29297,1.953125 9.87109,1.5683594 h 14.27149 l 9.87304,-1.5683594 -12.29492,-1.953125 3.63086,-6.0546874202 h -0.90039 L 175.95839,3.2941695 175.43496,-7.523202e-4 h -2.85743 L 172.0541,3.2941695 166.56191,-7.523202e-4 Z M 8.6751944,0.08518518 c -0.66095,0.0866536 -1.30094,0.23692939 -1.91406,0.44531248 l -0.96094,6.04492184 -3.95898,-2.375 c -0.35492,0.4994928 -0.6663,1.0333986 -0.92578002,1.5957031 L 3.0404344,9.3371382 -5.8562211e-4,9.8195601 c -0.001039998,0.059703 0,0.1197268 0,0.1796875 V 12.760966 L 3.0404344,13.243388 -5.8562211e-4,18.311748 v 1.171875 L 5.8001944,16.003154 l 1.95313,12.294922 1.48828,-9.369141 c 4e-5,-6.45e-4 -4e-5,-0.0013 0,-0.002 0.04077,-0.642802 0.14125,-1.267588 0.29687,-1.871094 3.6e-4,-0.0014 0.00159,-0.0025 0.00196,-0.0039 l 0.16601,-1.048828 0.13672,0.08203 C 10.936214,13.132801 13.377934,10.845273 16.429104,9.9660444 L 12.468164,9.3371382 16.604884,2.4387008 9.7064444,6.5754195 Z M 49.718164,0.99924766 c -0.39693,0.0348159 -1.93245,2.73193354 -2.27539,2.82031244 -0.35117,0.0905 -3.1061,-1.6124018 -3.36524,-1.3574218 -0.25913,0.25498 1.37114,3.0629224 1.27344,3.4140624 -0.09766,0.35115 -2.93961,1.9006863 -2.84961,2.2539063 0.08997,0.35322 3.32266,0.3350531 3.57617,0.5957031 0.07455,0.07665 0.11899,0.4120461 0.1543,0.8496094 h 2.57227 c 0.03572,-0.03089 0.06539,-0.05034 0.08984,-0.056641 0.04905,-0.012639 0.14593,0.00958 0.27539,0.056641 h 2.68555 c -0.40039,-0.879353 -0.92584,-1.9094973 -0.86914,-2.1132813 0.09766,-0.35114 2.93961,-1.9006862 2.84961,-2.2539062 -0.08998,-0.35322 -3.32266,-0.3370062 -3.57617,-0.5976562 -0.2535,-0.26064 -0.16652,-3.511175 -0.51563,-3.609375 -0.0082,-0.002303 -0.01586,-0.002789 -0.02539,-0.001953 z m 143.142576,0.24999994 2.97851,5.59375 -3.33984,5.3828124 5.59179,-2.9785155 4.07227,2.5273435 c 0.19761,0.777168 1.35624,2.839126 1.27344,3.136719 -0.0977,0.35115 -2.93961,1.898733 -2.84961,2.251953 0.0705,0.27674 2.07014,0.327092 3.05469,0.460938 v -5.595703 c -0.21685,-0.107472 -0.42969,-0.209291 -0.62305,-0.296875 l -2.52149,-4.7363286 1.52735,-2.4628906 c -0.32034,-0.4915114 -0.6825,-0.952808 -1.08203,-1.3789063 l -2.69727,1.4375 z m -165.499996,0.25 2.97851,5.59375 -1.54101,2.4824219 h 3.64648 l 0.14649,-0.078125 0.125,0.078125 h 3.52148 l -1.24023,-2.3300781 3.33984,-5.3847656 -5.5918,2.9804687 z M 135.06386,2.9445602 v 2.1953124 l -1.5625,-1.5546875 -0.95703,0.9492188 0.31445,0.3007812 c 0.14289,0.13591 0.29874,0.2867544 0.4668,0.4589844 l 0.002,0.00586 0.002,0.00195 c 0.17114,0.16954 0.3464,0.340245 0.52343,0.515625 0.0822,0.0814 0.15874,0.1601444 0.23829,0.2402344 h -2.15235 v 1.3847656 h 2.10938 l -1.50196,1.4902343 0.66407,0.6425782 h 0.59961 l 0.49218,-0.4882813 0.002,-0.00195 c 0.17544,-0.17959 0.35004,-0.35753 0.52539,-0.53125 l 0.23242,-0.2285156 v 1.25 h 1.32031 v -1.25586 l 1.27149,1.2558594 h 0.50781 l 0.0332,-0.029297 c 0.059,-0.052 0.11446,-0.1051831 0.16797,-0.1582031 0.0475,-0.0471 0.1114,-0.1080207 0.19141,-0.1816407 l 0.32617,-0.3007812 -0.31446,-0.3105469 c -0.14279,-0.14147 -0.30295,-0.2945112 -0.47851,-0.4570312 l -0.0117,-0.00977 c -0.16822,-0.16654 -0.33601,-0.3315868 -0.50977,-0.4980468 l -0.006,-0.00391 c -0.0633,-0.0628 -0.12185,-0.1224237 -0.1836,-0.1835937 h 2.11914 V 6.0578414 h -2.13281 l 1.54687,-1.5253906 -0.33398,-0.3007813 c -0.0611,-0.055 -0.11148,-0.1040112 -0.15234,-0.1445312 l -0.50782,-0.5019532 -0.30273,0.3007813 c -0.14752,0.14615 -0.30929,0.3070319 -0.48633,0.4824219 l -0.002,0.00195 -0.002,0.00391 c -0.16942,0.17363 -0.34224,0.3458213 -0.51758,0.5195313 -0.0761,0.0754 -0.14962,0.14557 -0.22461,0.21875 V 2.9445602 Z M 83.657614,9.5773726 c 0.04384,0.2901103 0.1018,0.4848044 0.1836,0.5078124 0.10074,0.02835 0.3074,-0.1853239 0.55664,-0.5078124 z m -1.57031,0.25 -1.31641,0.00195 v 2.1933624 l -0.92773,-0.923828 v 5.037109 l 0.16601,-0.164062 0.002,-0.002 c 0.17544,-0.17959 0.35004,-0.35753 0.52539,-0.53125 l 0.23242,-0.230469 v 2.179688 h 1.32031 v -2.183547 l 1.50977,1.490234 0.30273,-0.265625 c 0.059,-0.052 0.11446,-0.105183 0.16797,-0.158203 0.0475,-0.0471 0.1114,-0.108021 0.19141,-0.181641 l 0.32617,-0.298828 -0.31445,-0.3125 c -0.14279,-0.14147 -0.30296,-0.292558 -0.47852,-0.455078 l -0.01172,-0.0098 c -0.16822,-0.16654 -0.336,-0.33354 -0.50976,-0.5 l -0.0059,-0.0039 c -0.0633,-0.0628 -0.12185,-0.12047 -0.1836,-0.18164 h 2.1211 v -1.384766 h -2.13477 l 1.54688,-1.527344 -0.33399,-0.298828 c -0.0611,-0.055 -0.11148,-0.105964 -0.15234,-0.146484 l -0.50586,-0.501953 -0.30469,0.300781 c -0.14752,0.14615 -0.30929,0.307032 -0.48633,0.482422 l -0.0019,0.002 -0.002,0.0039 c -0.16942,0.17363 -0.34224,0.345822 -0.51758,0.519532 -0.0761,0.0754 -0.14962,0.145569 -0.22461,0.218749 z m 115.353506,7.1718754 -1.3164,0.002 v 2.193359 l -1.5625,-1.554687 -0.2793,0.277343 c 0.0791,0.477625 0.12541,0.966434 0.13477,1.464844 0.16271,0.161192 0.32807,0.325735 0.49609,0.492188 0.0822,0.0814 0.15872,0.158191 0.23828,0.238281 h -0.73242 v 1.386719 h 0.69141 l -0.69141,0.685547 v 1.589843 l 0.1543,0.148438 0.78906,-0.78125 0.002,-0.002 c 0.17544,-0.17959 0.35004,-0.355577 0.52539,-0.529297 l 0.23242,-0.230469 v 2.179687 h 1.32032 v -2.183593 l 1.50976,1.490234 0.30274,-0.265625 c 0.059,-0.052 0.11446,-0.105183 0.16797,-0.158203 0.0475,-0.0471 0.11139,-0.108021 0.1914,-0.181641 l 0.32617,-0.300781 -0.31445,-0.310547 c -0.14279,-0.14147 -0.30295,-0.294511 -0.47851,-0.457031 l -0.0117,-0.0078 c -0.16822,-0.16654 -0.33601,-0.33354 -0.50977,-0.5 l -0.006,-0.0039 c -0.0633,-0.0628 -0.12184,-0.12047 -0.18359,-0.18164 h 2.12109 v -1.386719 h -2.13476 l 1.54687,-1.525391 -0.33398,-0.300781 c -0.061,-0.05502 -0.11142,-0.10403 -0.15228,-0.14455 l -0.50586,-0.501953 -0.30468,0.300781 c -0.14752,0.14615 -0.30929,0.307032 -0.48633,0.482422 l -0.002,0.002 -0.002,0.0039 c -0.16942,0.17363 -0.34224,0.345821 -0.51758,0.519531 -0.0761,0.0754 -0.14962,0.14557 -0.22461,0.21875 z m -113.583976,1.15625 -4.01367,2.408203 v 2.347656 l 1.19922,-0.06445 z m 49.111326,1.34375 c -0.39693,0.03482 -1.93245,2.731933 -2.27539,2.820312 -0.35117,0.0905 -3.1061,-1.612402 -3.36524,-1.357422 -0.25913,0.25498 1.37114,3.062923 1.27344,3.414063 -0.0977,0.35115 -2.93961,1.900686 -2.84961,2.253906 0.09,0.35322 3.32266,0.335053 3.57617,0.595703 0.2535,0.26065 0.16457,3.511175 0.51368,3.609375 0.34911,0.09824 1.95156,-2.725906 2.30273,-2.816406 0.35117,-0.0905 3.10609,1.612402 3.36523,1.357422 0.25914,-0.25499 -1.37113,-3.062913 -1.27343,-3.414063 0.0977,-0.35114 2.93961,-1.900686 2.84961,-2.253906 -0.09,-0.35322 -3.32267,-0.337006 -3.57618,-0.597656 -0.2535,-0.26064 -0.16651,-3.511175 -0.51562,-3.609375 -0.008,-0.0023 -0.0159,-0.0028 -0.0254,-0.002 z m -100.357416,0.75 2.97851,5.59375 -3.33984,5.382812 5.5918,-2.978516 5.38476,3.341797 -2.97851,-5.59375 3.33984,-5.384765 -5.5918,2.980468 z m 47.23437,2.664062 0.70703,0.753906 0.45118,-0.753906 z m 123.423826,0.283203 -1.30078,8.197266 -4.59961,-2.759766 2.75781,4.599609 -5.70703,0.90625 v 0.791016 l 5.70703,0.90625 -2.75781,4.599609 4.59961,-2.757812 1.30078,8.195312 0.37305,-2.347656 V 25.544169 Z M 3.2259744,23.434794 -5.8562211e-4,25.368388 v 7.933594 L 3.2259744,35.235576 0.46816438,30.635966 8.6634744,29.335185 0.46816438,28.032451 Z m 78.0175796,1.861329 c -6.08841,0.300126 -12.16103,1.149093 -18.01172,2.542968 l 7.06055,1.121094 -4.13672,6.898437 6.89844,-4.136718 1.95312,12.292968 1.95117,-12.292968 6.89844,4.136718 -4.13672,-6.898437 12.29492,-1.953125 -7.36132,-1.169922 -1.03125,1.09961 -1.39454,-1.484375 z m 38.015616,0.482421 -1.95312,12.292969 -6.89844,-4.136719 4.13867,6.898438 -12.29492,1.953125 12.29492,1.951172 -4.13867,6.898437 6.89844,-4.136719 1.95312,12.294922 1.95313,-12.294922 6.89844,4.136719 -4.13672,-6.898437 12.29297,-1.951172 -12.29297,-1.953125 4.13672,-6.898438 -6.89844,4.136719 z m -60.820306,1.158204 -0.43945,0.07031 0.72266,0.115234 c -0.09515,-0.06198 -0.18863,-0.124354 -0.28321,-0.185546 z m -4.55273,2.714843 v 2.195313 l -1.5625,-1.554688 -0.95508,0.949219 0.31445,0.300781 c 0.14289,0.13591 0.29874,0.288708 0.4668,0.460938 l 0.0019,0.0039 0.002,0.002 c 0.17114,0.16954 0.34445,0.340245 0.52148,0.515625 0.0822,0.0814 0.16068,0.160145 0.24024,0.240235 h -2.1543 v 1.384765 h 2.11133 l -1.50196,1.490234 0.9668,0.935547 0.78711,-0.78125 0.002,-0.002 c 0.17544,-0.17959 0.352,-0.35753 0.52735,-0.53125 l 0.23242,-0.228515 v 2.177734 h 1.31836 v -2.183594 l 1.51172,1.492188 0.30078,-0.265625 c 0.059,-0.052 0.11446,-0.105183 0.16797,-0.158203 0.0475,-0.0471 0.11335,-0.108021 0.19336,-0.181641 l 0.32421,-0.300781 -0.31445,-0.310547 c -0.14279,-0.14147 -0.301,-0.294511 -0.47656,-0.457031 l -0.01172,-0.0078 c -0.16822,-0.16654 -0.33796,-0.33354 -0.51172,-0.5 l -0.0039,-0.0039 c -0.0633,-0.0628 -0.12185,-0.122424 -0.1836,-0.183594 h 2.11914 v -1.384765 h -2.13281 l 1.54687,-1.525391 -0.33398,-0.300781 c -0.0611,-0.055 -0.11344,-0.104012 -0.1543,-0.144532 l -0.50586,-0.501953 -0.30273,0.300782 c -0.14752,0.14615 -0.31124,0.307031 -0.48828,0.482421 l -0.002,0.002 -0.002,0.0039 c -0.16942,0.17363 -0.34224,0.345821 -0.51758,0.519531 -0.0761,0.0754 -0.14766,0.14557 -0.22265,0.21875 v -2.167969 z m 43.55469,3.347657 -1.31641,0.002 v 2.193359 l -1.5625,-1.554688 -0.95703,0.949219 0.31445,0.300781 c 0.14289,0.13591 0.29874,0.288708 0.4668,0.460938 l 0.002,0.0039 0.0019,0.002 c 0.17114,0.16954 0.34641,0.342198 0.52344,0.517578 0.0822,0.0814 0.15872,0.158192 0.23828,0.238282 h -2.15234 v 1.386718 h 2.11133 l -1.50391,1.490235 0.9668,0.933594 0.78906,-0.78125 0.0019,-0.002 c 0.17544,-0.17959 0.35004,-0.355576 0.52539,-0.529296 l 0.23243,-0.230469 v 2.179687 h 1.32031 v -2.183593 l 1.50976,1.490234 0.30274,-0.265625 c 0.059,-0.052 0.11446,-0.105183 0.16797,-0.158203 0.0475,-0.0471 0.11139,-0.108021 0.1914,-0.181641 l 0.32618,-0.300781 -0.31446,-0.310547 c -0.14279,-0.14147 -0.30295,-0.294511 -0.47851,-0.457031 l -0.01172,-0.0078 c -0.16822,-0.16654 -0.33601,-0.33354 -0.50977,-0.5 l -0.0059,-0.0039 c -0.0633,-0.0628 -0.12184,-0.120471 -0.18359,-0.181641 H 100.558 V 36.11259 h -2.134756 l 1.54687,-1.525391 -0.33398,-0.300781 c -0.0611,-0.05506 -0.11149,-0.104072 -0.15235,-0.144592 l -0.50586,-0.501954 -0.30468,0.300782 c -0.14752,0.14615 -0.30929,0.307032 -0.48633,0.482422 l -0.002,0.002 -0.002,0.0039 c -0.16942,0.17363 -0.34224,0.345821 -0.51758,0.519531 -0.0761,0.0754 -0.14961,0.14557 -0.2246,0.21875 z m -89.9999996,1.999999 -1.31641,0.002 v 2.193359 l -1.5625,-1.554688 -0.95703,0.949219 0.31445,0.300781 c 0.14289,0.13591 0.29874,0.288708 0.4668,0.460938 l 0.00195,0.0039 0.00196,0.002 c 0.17114,0.16954 0.3464,0.342198 0.52343,0.517578 0.0822,0.0814 0.15872,0.158192 0.23828,0.238282 h -2.15234 v 1.386718 h 2.11133 l -1.50391,1.490235 0.9668,0.933594 0.78906,-0.78125 0.00195,-0.002 c 0.17544,-0.17959 0.35005,-0.355576 0.5254,-0.529296 l 0.23242,-0.230469 v 2.179687 h 1.32031 v -2.183593 l 1.50977,1.490234 0.26953,-0.236328 v -1.369182 c -0.02405,-0.02243 -0.04954,-0.04551 -0.07422,-0.06836 l -0.01172,-0.0078 c -0.16822,-0.16654 -0.33601,-0.33354 -0.50977,-0.5 l -0.00586,-0.0039 c -0.0633,-0.0628 -0.12184,-0.120471 -0.18359,-0.181641 h 0.78516 v -1.386718 h -0.79883 l 0.79883,-0.78711 v -1.443359 l -0.24414,-0.242188 -0.30469,0.300782 c -0.14752,0.14615 -0.30929,0.307032 -0.48633,0.482422 l -0.00195,0.002 -0.00196,0.0039 c -0.16942,0.17363 -0.34223,0.345821 -0.51757,0.519531 -0.0761,0.0754 -0.14962,0.14557 -0.22461,0.21875 z m 36.2734296,1.121094 -1.95312,12.294922 -6.89844,-4.136719 4.13672,6.898438 -12.29297,1.951172 12.29297,1.953124 -4.13672,6.898438 6.89844,-4.136719 1.95312,12.292969 1.95118,-12.292969 6.89843,4.136719 -4.13672,-6.898438 12.29493,-1.953124 -12.29493,-1.951172 4.13672,-6.898438 -6.89843,4.136719 z m 34.39649,8.628906 2.97851,5.59375 -3.33984,5.382813 5.5918,-2.978516 5.38476,3.341797 -2.97851,-5.59375 3.33984,-5.384766 -5.5918,2.980469 z m 116.308586,0.08594 v 12.109375 l 0.46289,-2.91211 4.59766,2.757813 -2.75782,-4.599609 6.91993,-1.097657 v -0.40625 l -6.91993,-1.099609 2.75782,-4.599609 -4.59766,2.759765 z M 9.2220744,45.921122 3.7455044,48.841044 -5.8562211e-4,46.516825 v 2.060547 L 1.3392544,51.092997 -5.8562211e-4,53.253154 v 2.158203 L 3.5912144,53.497294 l 5.38476,3.341797 -2.97851,-5.59375 3.22461,-5.199219 z m 130.1581956,3.371094 -1.31641,0.002 v 2.19336 l -1.5625,-1.554688 -0.95703,0.949219 0.31445,0.300781 c 0.14289,0.13591 0.29874,0.288708 0.4668,0.460938 l 0.002,0.0039 0.002,0.002 c 0.17114,0.16954 0.3464,0.342198 0.52343,0.517578 0.0822,0.0814 0.15874,0.158191 0.23829,0.238281 h -2.15235 v 1.386719 h 2.10938 l -1.50196,1.490234 0.9668,0.933594 0.78906,-0.78125 0.002,-0.002 c 0.17544,-0.17959 0.35004,-0.355577 0.52539,-0.529297 l 0.23242,-0.230469 v 2.179688 h 1.32031 V 54.66921 l 1.50977,1.490234 0.30273,-0.265625 c 0.059,-0.052 0.11446,-0.105183 0.16797,-0.158203 0.0475,-0.0471 0.1114,-0.10802 0.19141,-0.18164 l 0.32617,-0.300782 -0.31446,-0.310546 c -0.14279,-0.14147 -0.30295,-0.294512 -0.47851,-0.457032 l -0.0117,-0.0078 c -0.16822,-0.16654 -0.33601,-0.33354 -0.50977,-0.5 l -0.006,-0.0039 c -0.0633,-0.0628 -0.12185,-0.120471 -0.1836,-0.181641 h 2.11914 v -1.386719 h -2.13281 l 1.54687,-1.52539 -0.33398,-0.300782 c -0.0611,-0.055 -0.11148,-0.104011 -0.15234,-0.144531 l -0.50782,-0.501953 -0.30273,0.300781 c -0.14752,0.14615 -0.30929,0.307032 -0.48633,0.482422 l -0.002,0.002 -0.002,0.0039 c -0.16942,0.17363 -0.34224,0.345821 -0.51758,0.519531 -0.0761,0.0754 -0.14962,0.14557 -0.22461,0.21875 z m -70.162106,0.207031 c -0.39693,0.03482 -1.93245,2.731934 -2.27539,2.820313 -0.35117,0.09049 -3.1061,-1.612412 -3.36524,-1.357422 -0.25913,0.25498 1.37114,3.062912 1.27344,3.414062 -0.09766,0.35115 -2.93961,1.900687 -2.84961,2.253907 0.08997,0.35323 3.32266,0.335053 3.57617,0.595703 0.2535,0.26065 0.16457,3.511175 0.51368,3.609375 0.34911,0.09824 1.95156,-2.725907 2.30273,-2.816407 0.35117,-0.09049 3.10609,1.612412 3.36523,1.357422 0.25914,-0.25498 -1.37113,-3.062912 -1.27343,-3.414062 0.09766,-0.35114 2.93961,-1.900686 2.84961,-2.253906 -0.08998,-0.35322 -3.32267,-0.337007 -3.57618,-0.597657 -0.2535,-0.26065 -0.16651,-3.511175 -0.51562,-3.609375 -0.0082,-0.0023 -0.01586,-0.0028 -0.02539,-0.002 z m 25.72851,3.339844 -1.95312,12.292969 -6.89844,-4.136719 4.13672,6.898437 -12.29297,1.953125 12.29297,1.951172 -4.13672,6.898438 6.89844,-4.136719 1.95312,12.294922 1.95118,-12.294922 6.898426,4.136719 -4.136706,-6.898438 12.294916,-1.951172 -12.294916,-1.953125 4.136706,-6.898437 -6.898426,4.136719 z m 16.494146,6.160156 -1.31641,0.002 v 2.19336 l -1.5625,-1.554688 -0.95703,0.949219 0.31445,0.300781 c 0.14289,0.13591 0.29874,0.288708 0.4668,0.460938 l 0.002,0.0039 0.002,0.002 c 0.17114,0.16954 0.34641,0.342198 0.52344,0.517578 0.0822,0.0814 0.15873,0.158191 0.23828,0.238281 h -2.15234 v 1.386719 h 2.11133 l -1.50391,1.490235 0.9668,0.933593 0.78906,-0.78125 0.002,-0.002 c 0.17544,-0.17959 0.35004,-0.355577 0.52539,-0.529297 l 0.23243,-0.230468 v 2.179687 h 1.32031 v -2.183594 l 1.50976,1.490235 0.30274,-0.265625 c 0.059,-0.052 0.11446,-0.105184 0.16797,-0.158204 0.0475,-0.0471 0.11139,-0.10802 0.1914,-0.18164 l 0.32618,-0.300781 -0.31446,-0.310547 c -0.14279,-0.14147 -0.30295,-0.294511 -0.47851,-0.457031 l -0.0117,-0.0078 c -0.16822,-0.16654 -0.33601,-0.33354 -0.50977,-0.5 l -0.006,-0.0039 c -0.0633,-0.0628 -0.12184,-0.120471 -0.18359,-0.181641 h 2.12109 v -1.386719 h -2.13476 l 1.54687,-1.52539 -0.33398,-0.300781 c -0.0611,-0.055 -0.11149,-0.104012 -0.15235,-0.144532 l -0.50586,-0.501953 -0.30468,0.300781 c -0.14752,0.14615 -0.30929,0.307032 -0.48633,0.482422 l -0.002,0.002 -0.002,0.0039 c -0.16942,0.17363 -0.34224,0.345821 -0.51758,0.519531 -0.0761,0.0754 -0.14961,0.14557 -0.2246,0.21875 z m 12.16992,0.25 2.97851,5.59375 -3.33984,5.382813 5.5918,-2.978516 5.38476,3.341797 -2.97851,-5.59375 3.33984,-5.384766 -5.5918,2.980469 z m -116.5566356,1.238281 -1.30078,8.195313 -4.59961,-2.757813 2.75781,4.597657 -3.91211002211,0.621093 v 1.361328 L 3.9115244,73.1262 l -2.75781,4.599609 4.59961,-2.757812 1.30078,8.195312 1.30273,-8.195312 0.86524,0.519531 V 68.16331 l -0.86524,0.519531 z m 190.0566356,1.761719 2.97851,5.59375 -3.33984,5.382813 5.59179,-2.978516 1.30079,0.806641 v -6.074219 l -1.14649,0.611328 z m -130.865236,0.919922 -1.30273,8.195312 -4.59766,-2.757812 2.75782,4.599609 -8.19532,1.300782 8.19532,1.302734 -2.75782,4.599609 4.59766,-2.757812 1.30273,8.195312 1.30078,-8.195312 4.59961,2.757812 -2.75781,-4.599609 8.19531,-1.302734 -8.19531,-1.300782 2.75781,-4.599609 -4.59961,2.757812 z m -34.10156,0.830078 -1.31836,0.002 v 2.19336 l -1.5625,-1.554688 -0.95508,0.949219 0.31446,0.300781 c 0.14289,0.1359 0.29873,0.288718 0.46679,0.460938 l 0.002,0.0039 0.002,0.002 c 0.17114,0.16954 0.34445,0.342198 0.52148,0.517578 0.0822,0.0814 0.15873,0.158201 0.23829,0.238281 h -2.15235 v 1.386719 h 2.11133 l -1.50195,1.490234 0.96679,0.933594 0.78711,-0.78125 0.002,-0.002 c 0.17544,-0.17959 0.35199,-0.355577 0.52734,-0.529297 l 0.23242,-0.230469 v 2.179688 h 1.31836 v -2.183594 l 1.51172,1.490235 0.30078,-0.265625 c 0.059,-0.052 0.11446,-0.105184 0.16797,-0.158204 0.0475,-0.0471 0.11335,-0.10802 0.19336,-0.18164 l 0.32422,-0.300781 -0.31446,-0.310547 c -0.14279,-0.14147 -0.301,-0.292558 -0.47656,-0.455078 l -0.01172,-0.0098 c -0.16822,-0.16654 -0.33796,-0.33354 -0.51172,-0.5 l -0.0039,-0.0039 c -0.0633,-0.0628 -0.1238,-0.120471 -0.18555,-0.181641 h 2.1211 v -1.386719 h -2.13282 l 1.54688,-1.52539 -0.33399,-0.300782 c -0.0611,-0.055 -0.11343,-0.104011 -0.15429,-0.144531 l -0.50586,-0.501953 -0.30274,0.300781 c -0.14752,0.14615 -0.31124,0.307032 -0.48828,0.482422 l -0.002,0.002 -0.002,0.0039 c -0.16942,0.17363 -0.34224,0.345821 -0.51758,0.519531 -0.0761,0.0754 -0.14767,0.14557 -0.22266,0.21875 z m 110.679686,6.601563 4.13672,6.898437 -12.29493,1.951172 12.29493,1.953125 -4.13672,6.898437 6.52929,-3.916015 c 0.38719,-3.475217 0.57108,-7.18001 0.60157,-11.113281 l -0.23243,1.464843 z m -96.105466,2.148437 c -0.39693,0.03482 -1.93245,2.731934 -2.27539,2.820313 -0.35117,0.0905 -3.1061,-1.612402 -3.36524,-1.357422 -0.25913,0.25498 1.37114,3.062922 1.27344,3.414062 -0.09766,0.35115 -2.93961,1.900686 -2.84961,2.253906 0.08997,0.35322 3.32266,0.335053 3.57617,0.595703 0.2535,0.26065 0.16457,3.511175 0.51368,3.609375 0.34911,0.09824 1.95156,-2.725906 2.30273,-2.816406 0.35117,-0.0905 3.1061,1.612402 3.36524,1.357422 0.25914,-0.25499 -1.37114,-3.062912 -1.27344,-3.414062 0.09766,-0.35114 2.93961,-1.900687 2.84961,-2.253907 -0.08998,-0.35322 -3.32266,-0.337006 -3.57617,-0.597656 -0.2535,-0.26064 -0.16652,-3.511175 -0.51563,-3.609375 -0.0082,-0.0023 -0.01586,-0.0028 -0.02539,-0.002 z m 154.689446,2.28125 -1.30078,8.195312 -4.59961,-2.757812 2.75781,4.599609 -3.8457,0.611328 v 1.38086 l 3.8457,0.611328 -2.75781,4.599609 4.59961,-2.757812 1.30078,8.195312 1.30274,-8.195312 0.93164,0.558593 v -7.404296 l -0.93164,0.558593 z m -179.796866,0.46875 2.97851,5.59375 -2.5039,4.033203 c 10e-5,6.35e-4 -1.1e-4,0.0013 0,0.002 0.04513,0.276991 0.09219,0.554073 0.14062,0.828125 l 4.61524,-2.458984 5.38476,3.341797 -2.97851,-5.59375 3.33984,-5.384766 -5.5918,2.980469 z m 108.068356,0.5 -1.31836,0.002 v 2.193359 l -1.5625,-1.554687 -0.95508,0.949219 0.31445,0.300781 c 0.14289,0.1359 0.29874,0.288717 0.4668,0.460937 l 0.002,0.0039 0.002,0.002 c 0.17114,0.16954 0.34446,0.342198 0.52149,0.517578 0.0822,0.0814 0.16068,0.158201 0.24023,0.238281 h -2.15429 v 1.386719 h 2.11132 l -1.50195,1.490234 0.9668,0.933594 0.78711,-0.78125 0.002,-0.002 c 0.17544,-0.17959 0.35199,-0.355577 0.52734,-0.529297 l 0.23243,-0.230469 v 2.179688 h 1.31836 V 81.37624 l 1.51171,1.490234 0.30079,-0.265625 c 0.059,-0.052 0.11445,-0.105183 0.16796,-0.158203 0.0475,-0.0471 0.11335,-0.10802 0.19336,-0.18164 l 0.32422,-0.300782 -0.3125,-0.310546 c -0.14279,-0.14147 -0.30295,-0.292559 -0.47851,-0.455079 l -0.0117,-0.0098 c -0.16822,-0.16654 -0.33796,-0.33354 -0.51172,-0.5 l -0.004,-0.0039 c -0.0633,-0.0628 -0.12184,-0.120471 -0.18359,-0.181641 h 2.11914 v -1.386719 h -2.13281 l 1.54687,-1.52539 -0.33398,-0.300782 c -0.0611,-0.055 -0.11149,-0.104011 -0.15235,-0.144531 l -0.50781,-0.501953 -0.30273,0.300781 c -0.14752,0.14615 -0.30929,0.307032 -0.48633,0.482422 l -0.002,0.002 -0.002,0.0039 c -0.16942,0.17363 -0.34419,0.345822 -0.51953,0.519532 -0.0761,0.0754 -0.14766,0.14557 -0.22265,0.21875 z m -48.960936,5.25 c -0.39693,0.03482 -1.93245,2.731933 -2.27539,2.820312 -0.35117,0.0905 -3.1061,-1.612401 -3.36524,-1.357421 -0.25913,0.25498 1.37114,3.062922 1.27344,3.414062 -0.09766,0.35115 -2.93961,1.900686 -2.84961,2.253906 0.08997,0.35322 3.32266,0.335053 3.57617,0.595703 0.2535,0.26065 0.16457,3.511175 0.51368,3.609375 0.34911,0.09824 1.95156,-2.725906 2.30273,-2.816406 0.35117,-0.0905 3.10609,1.612402 3.36523,1.357422 0.25914,-0.25499 -1.37113,-3.062913 -1.27343,-3.414063 0.09766,-0.35114 2.93961,-1.900686 2.84961,-2.253906 -0.08998,-0.35322 -3.32267,-0.337006 -3.57618,-0.597656 -0.2535,-0.26064 -0.16651,-3.511175 -0.51562,-3.609375 -0.0082,-0.0023 -0.01586,-0.0028 -0.02539,-0.002 z m 28.892576,1 2.97851,5.59375 -3.33984,5.382812 5.5918,-2.978515 5.38476,3.341797 -2.97851,-5.59375 3.33984,-5.384766 -5.5918,2.980469 z M 2.1244144,84.348856 v 2.195313 L 0.56191438,84.989481 -5.8562211e-4,85.548075 V 86.3137 C 0.12026438,86.429927 0.24853438,86.557448 0.38613438,86.698466 l 0.00195,0.0039 0.00196,0.002 c 0.17114,0.16954 0.3464,0.342198 0.52343,0.517578 0.0822,0.0814 0.15872002,0.160144 0.23828002,0.240234 H -5.8562211e-4 v 1.384766 H 1.1107444 l -1.11133002211,1.101522 v 0.767578 L 0.57363438,91.270731 1.3626944,90.491434 l 0.00195,-0.002 c 0.17544,-0.17959 0.35005,-0.35753 0.5254,-0.53125 l 0.23242,-0.230469 v 2.179688 h 1.32031 v -2.183547 l 1.50977,1.490235 0.30273,-0.265625 c 0.059,-0.052 0.11446,-0.10323 0.16797,-0.15625 0.0475,-0.0471 0.11139,-0.109974 0.1914,-0.183594 l 0.32618,-0.298828 -0.31446,-0.3125 c -0.14279,-0.14147 -0.30295,-0.292558 -0.47851,-0.455078 l -0.01172,-0.0098 c -0.16822,-0.16654 -0.33601,-0.33354 -0.50977,-0.5 l -0.00586,-0.0039 c -0.0633,-0.0628 -0.12184,-0.120471 -0.18359,-0.181641 h 2.12109 v -1.384766 h -2.13476 l 1.54687,-1.527343 -0.33398,-0.298828 c -0.0611,-0.055 -0.11148,-0.104012 -0.15234,-0.144532 l -0.50586,-0.501953 -0.30469,0.298828 c -0.14752,0.14615 -0.30929,0.307032 -0.48633,0.482422 l -0.00195,0.002 -0.00196,0.0039 c -0.16942,0.17363 -0.34223,0.345821 -0.51757,0.519531 -0.0761,0.0754 -0.14962,0.147523 -0.22461,0.220703 v -2.167981 z m 37.6035196,0.337891 -1.30274,8.195312 -4.59961,-2.757812 2.75977,4.597656 -8.19727,1.302734 8.19727,1.300782 -2.75977,4.599611 4.59961,-2.757815 1.30274,8.195315 1.30078,-8.195315 4.59961,2.757815 -2.75782,-4.599611 8.19532,-1.300782 -8.19532,-1.302734 2.75782,-4.597656 -4.59961,2.757812 z m 52.41601,3.433594 -1.31836,0.002 V 90.3157 l -1.5625,-1.554687 -0.95508,0.949218 0.31446,0.300782 c 0.14289,0.13591 0.29873,0.288707 0.46679,0.460937 l 0.002,0.0039 0.002,0.002 c 0.17114,0.16955 0.34445,0.342209 0.52148,0.517579 0.0822,0.0814 0.15872,0.158191 0.23828,0.238281 h -2.15234 v 1.386719 h 2.11133 l -1.50195,1.490234 0.96679,0.933594 0.78711,-0.779297 0.002,-0.002 c 0.17544,-0.17958 0.35199,-0.35753 0.52734,-0.53125 l 0.23242,-0.230469 v 2.179687 h 1.31836 v -2.183593 l 1.51172,1.490234 0.30078,-0.265625 c 0.059,-0.052 0.11446,-0.105183 0.16797,-0.158203 0.0475,-0.0471 0.11335,-0.108021 0.19336,-0.181641 l 0.32422,-0.300781 -0.31446,-0.310547 c -0.14279,-0.14146 -0.301,-0.292558 -0.47656,-0.455078 l -0.01172,-0.0098 c -0.16822,-0.16654 -0.33796,-0.33355 -0.51172,-0.5 l -0.0039,-0.0039 c -0.0633,-0.0628 -0.1238,-0.12047 -0.18555,-0.18164 h 2.12109 v -1.386719 h -2.13281 l 1.54688,-1.525391 -0.33399,-0.300781 c -0.0611,-0.055 -0.11343,-0.104011 -0.15429,-0.144531 l -0.50586,-0.501953 -0.30274,0.300781 c -0.14752,0.14615 -0.31124,0.307032 -0.48828,0.482422 l -0.002,0.002 -0.002,0.0039 c -0.16942,0.17363 -0.34223,0.345821 -0.51757,0.519531 -0.0761,0.0754 -0.14767,0.14557 -0.22266,0.21875 z m 49.824216,1.128906 c -0.39693,0.03482 -1.93245,2.731933 -2.27539,2.820312 -0.35117,0.0905 -3.1061,-1.612402 -3.36524,-1.357422 -0.25913,0.25498 1.37114,3.062923 1.27344,3.414063 -0.0977,0.35115 -2.93961,1.900686 -2.84961,2.253906 0.09,0.35322 3.32266,0.335053 3.57617,0.595703 0.2535,0.26065 0.16457,3.511171 0.51368,3.609371 0.34911,0.0982 1.95156,-2.725902 2.30273,-2.816402 0.35117,-0.0905 3.10609,1.612402 3.36523,1.357422 0.25914,-0.25498 -1.37113,-3.062923 -1.27343,-3.414063 0.0977,-0.35115 2.93961,-1.900686 2.84961,-2.253906 -0.09,-0.35322 -3.32267,-0.337006 -3.57618,-0.597656 -0.2535,-0.26064 -0.16651,-3.511175 -0.51562,-3.609375 -0.008,-0.0023 -0.0159,-0.0028 -0.0254,-0.002 z m -43.478516,4.539062 -1.30078,8.195321 -4.59961,-2.757821 2.75782,4.599611 -8.19532,1.30078 8.19532,1.30274 -2.75782,4.59765 4.59961,-2.75781 1.30078,8.19727 1.30274,-8.19727 4.597646,2.75781 -2.75781,-4.59765 8.19531,-1.30274 -8.19531,-1.30078 2.75781,-4.599611 -4.597646,2.757821 z m 30.054686,1.966797 -1.30273,8.195314 -4.59961,-2.75781 2.75976,4.59961 -8.19726,1.30078 8.19726,1.30273 -2.75976,4.59961 4.59961,-2.75976 1.02539,6.45898 h 0.002 c 0.20001,-0.0918 0.39913,-0.18564 0.5957,-0.27929 l 0.98047,-6.17969 4.59961,2.75976 -2.75781,-4.59961 8.19531,-1.30273 -8.19531,-1.30078 2.75781,-4.59961 -4.59961,2.75781 z m -55.037106,0.53711 -1.31836,0.002 v 2.193359 l -1.5625,-1.554687 -0.95508,0.949218 0.31446,0.300781 c 0.14289,0.13591 0.29873,0.288708 0.46679,0.460938 l 0.002,0.0039 0.002,0.002 c 0.17114,0.16954 0.34445,0.342198 0.52148,0.517578 0.0822,0.0814 0.16068,0.158192 0.24024,0.238282 h -2.1543 v 1.386715 h 2.11133 l -1.50195,1.49023 0.96679,0.9336 0.78711,-0.78125 0.002,-0.002 c 0.17544,-0.17959 0.35199,-0.35557 0.52734,-0.52929 l 0.23242,-0.23047 v 2.17969 h 1.31836 v -2.1836 l 1.51172,1.49024 0.30078,-0.26563 c 0.059,-0.052 0.11446,-0.10518 0.16797,-0.1582 0.0475,-0.0471 0.11335,-0.10802 0.19336,-0.18164 l 0.32617,-0.30078 -0.31445,-0.31055 c -0.14279,-0.14147 -0.30296,-0.29451 -0.47852,-0.45703 l -0.01172,-0.008 c -0.16822,-0.16654 -0.33795,-0.33354 -0.51171,-0.5 l -0.0039,-0.004 c -0.0633,-0.0628 -0.12184,-0.12047 -0.18359,-0.18164 h 2.11914 v -1.386719 h -2.13282 l 1.54688,-1.525391 -0.33399,-0.300781 c -0.0611,-0.055 -0.11148,-0.104011 -0.15234,-0.144531 l -0.50781,-0.501953 -0.30274,0.300781 c -0.14752,0.14615 -0.30928,0.307032 -0.48632,0.482422 l -0.002,0.002 -0.0019,0.0039 c -0.16942,0.17363 -0.34224,0.345821 -0.51758,0.519531 -0.0761,0.0754 -0.14962,0.14557 -0.22461,0.21875 z m -65.1699196,1.068359 -5.5918,2.980465 -2.74609002211,-1.705075 v 3.318365 L 0.33925438,102.593 -5.8562211e-4,103.13988 v 3.23828 L 2.5912144,104.9973 l 5.38476,3.34179 -2.97851,-5.59375 z m 188.0410056,0.388672 -1.3164,0.002 v 2.193359 l -0.64258,-0.638672 v 4.464846 c 0.13658,-0.13884 0.27181,-0.27503 0.4082,-0.41016 l 0.23242,-0.23047 v 2.17969 h 1.32032 v -2.1836 l 1.50976,1.49024 0.30274,-0.26563 c 0.059,-0.052 0.11446,-0.10518 0.16797,-0.1582 0.0475,-0.0471 0.11139,-0.10802 0.1914,-0.18164 l 0.32617,-0.30078 -0.31445,-0.31055 c -0.14279,-0.14147 -0.30295,-0.29256 -0.47851,-0.45508 l -0.0117,-0.01 c -0.16822,-0.16654 -0.33601,-0.33354 -0.50977,-0.5 l -0.006,-0.004 c -0.0633,-0.0628 -0.12184,-0.12047 -0.18359,-0.18164 h 2.12109 v -1.38672 h -2.13476 l 1.54687,-1.525386 -0.33398,-0.300781 c -0.0611,-0.055 -0.11149,-0.104011 -0.15235,-0.144531 l -0.50586,-0.501953 -0.30468,0.300781 c -0.14752,0.14615 -0.30929,0.307032 -0.48633,0.482422 l -0.002,0.002 -0.002,0.0039 c -0.16942,0.17363 -0.34224,0.345821 -0.51758,0.519531 -0.0761,0.0754 -0.14962,0.14557 -0.22461,0.21875 z M 52.468164,101.99925 c -0.39693,0.0348 -1.93245,2.73193 -2.27539,2.82031 -0.35117,0.0905 -3.1061,-1.6124 -3.36524,-1.35742 -0.25913,0.25499 1.37114,3.06291 1.27344,3.41406 -0.09766,0.35114 -2.93961,1.90069 -2.84961,2.25391 0.08997,0.35322 3.32266,0.33505 3.57617,0.5957 0.2535,0.26064 0.16457,3.51118 0.51368,3.60938 0.34911,0.0982 1.95156,-2.72591 2.30273,-2.81641 0.35117,-0.0905 3.1061,1.6124 3.36524,1.35742 0.25914,-0.25498 -1.37114,-3.06292 -1.27344,-3.41406 0.09766,-0.35115 2.93961,-1.90068 2.84961,-2.2539 -0.08998,-0.35322 -3.32266,-0.33701 -3.57617,-0.59766 -0.2535,-0.26065 -0.16652,-3.51118 -0.51563,-3.60938 -0.0082,-0.002 -0.01586,-0.003 -0.02539,-0.002 z m 13.49805,1.74805 -1.95118,12.29297 -6.89843,-4.13672 4.13672,6.89843 -6.86133,1.08985 c 4.4324,1.21047 9.37943,2.11071 14.88086,2.69726 -1.74032,1.16022 -3.48166,2.74376 -4.93555,4.91407 -3e-4,4.4e-4 3e-4,0.002 0,0.002 l 1.62891,10.25781 1.95312,-12.29492 6.89844,4.13672 -4.13672,-6.89844 12.29297,-1.95117 -12.29297,-1.95313 4.13672,-6.89843 -6.89844,4.13672 z m 137.675776,3.41797 c -0.57207,0.80222 -1.23764,1.84977 -1.44922,1.90429 -0.35117,0.0905 -3.1061,-1.6124 -3.36524,-1.35742 -0.25913,0.25499 1.37114,3.06291 1.27344,3.41406 -0.0977,0.35114 -2.93961,1.90069 -2.84961,2.25391 0.09,0.35322 3.32266,0.33505 3.57617,0.5957 0.2535,0.26064 0.16456,3.51118 0.51367,3.60938 0.34822,0.098 1.94413,-2.71022 2.30079,-2.81446 z m -90.17383,0.58398 c -0.39693,0.0348 -1.93245,2.73193 -2.27539,2.82031 -0.35117,0.0905 -3.1061,-1.6124 -3.36524,-1.35742 -0.25913,0.25498 1.37114,3.06292 1.27344,3.41406 -0.0977,0.35115 -2.93961,1.90069 -2.84961,2.25391 0.09,0.35322 3.32266,0.33505 3.57617,0.5957 0.2535,0.26065 0.16457,3.51118 0.51368,3.60938 0.34911,0.0982 1.95156,-2.72591 2.30273,-2.81641 0.35117,-0.0905 3.10609,1.6124 3.36523,1.35742 0.25914,-0.25499 -1.37113,-3.06291 -1.27343,-3.41406 0.0977,-0.35114 2.93961,-1.90069 2.84961,-2.25391 -0.09,-0.35322 -3.32267,-0.337 -3.57618,-0.59765 -0.2535,-0.26065 -0.16651,-3.51118 -0.51562,-3.60938 -0.008,-0.002 -0.0159,-0.003 -0.0254,-0.002 z M -5.8562211e-4,109.23948 v 7.93946 C 0.92467438,117.63575 2.1072844,118.27153 2.2728544,118.10863 c 0.25914,-0.25499 -1.37114002,-3.06096 -1.27344002,-3.41211 0.09766,-0.35114 2.93961002,-1.90069 2.84961002,-2.25391 -0.08998,-0.35322 -3.32266002,-0.33702 -3.57617002,-0.59766 -0.16451,-0.16914 -0.18372,-1.59668 -0.27344000211,-2.60547 z m 7.92773002211,3.94336 -1.95312,12.29493 -5.97461002211,-3.58204 v 0.98633 L 3.2123044,128.23948 -5.8562211e-4,128.74925 v 2.88477 L 3.2123044,132.14378 -5.8562211e-4,137.5012 v 0.98633 L 5.9740244,134.9055 l 1.95312,12.29297 1.29493,-8.15039 v -17.71289 z m 131.1113256,2.28125 -1.0918,6.86914 -4.59765,-2.75781 2.75781,4.59961 -7.25781,1.15235 c -0.0329,0.0935 -0.0657,0.18843 -0.0977,0.2832 l 7.35547,1.16797 -2.75781,4.59961 4.59765,-2.75782 0.67188,4.22071 c 0.39183,-0.99974 0.9319,-1.92073 1.67773,-2.625 l 0.25391,-1.59571 1.86914,1.1211 h 1.75 l -1.77734,-2.96289 8.19531,-1.30274 -8.19531,-1.30078 2.75781,-4.59961 -4.59961,2.75781 -1.08984,-6.86914 z m 30.30078,0 0.95313,1.58985 -12.29297,1.95312 12.29297,1.95313 -4.13672,6.89844 6.89844,-4.13672 1.95312,12.29297 1.95117,-12.29297 0.28125,0.16797 c -1.64519,-4.09228 -4.23263,-6.73855 -6.78906,-8.42579 z m -71.513666,1.35938 v 2.19531 l -1.5625,-1.55469 -0.95508,0.94922 0.31446,0.30078 c 0.14289,0.13591 0.29873,0.28676 0.46679,0.45899 l 0.002,0.004 0.002,0.002 c 0.17114,0.16954 0.34445,0.3422 0.52148,0.51758 0.0822,0.0814 0.15872,0.16014 0.23828,0.24023 h -2.15234 v 1.38477 h 2.11133 l -1.50195,1.49023 0.96679,0.93555 0.78711,-0.78125 0.002,-0.002 c 0.17544,-0.17959 0.35199,-0.35753 0.52734,-0.53125 l 0.23242,-0.23046 v 2.17968 h 1.31836 v -2.18359 l 1.511716,1.49023 0.30078,-0.26367 c 0.059,-0.052 0.11446,-0.10518 0.16797,-0.1582 0.0475,-0.0471 0.11335,-0.10802 0.19336,-0.18164 l 0.32422,-0.30078 -0.31446,-0.3125 c -0.14279,-0.14147 -0.301,-0.29256 -0.47656,-0.45508 l -0.0117,-0.01 c -0.16822,-0.16654 -0.33796,-0.33354 -0.51172,-0.5 l -0.004,-0.004 c -0.0633,-0.0628 -0.1238,-0.12047 -0.18555,-0.18164 h 2.12109 v -1.38477 h -2.13281 l 1.54688,-1.52539 -0.33399,-0.30078 c -0.0611,-0.055 -0.11343,-0.10401 -0.15429,-0.14453 l -0.50586,-0.50196 -0.30274,0.30079 c -0.14752,0.14615 -0.31124,0.30507 -0.488276,0.48046 l -0.002,0.002 -0.002,0.006 c -0.16942,0.17363 -0.34223,0.34582 -0.51757,0.51953 -0.0761,0.0754 -0.14767,0.14557 -0.22266,0.21875 v -2.16797 z m -77.55078,1.54492 c -0.46783,0.0122 -1.34979,0.0642 -2.14062,0.27344 l 1.70507,3.20117 -0.80664,1.29883 c 0.29672,0.22673 0.62426,0.46415 0.98438,0.71289 0,0 0.48821,0.23346 1.27929,0.81641 l 0.79493,-0.42383 5.38476,3.34179 -2.97851,-5.59375 1.38672,-2.23632 c -0.72882,-0.34092 -1.50243,-0.6361 -2.32227,-0.86914 l -1.31641,0.70117 z m 182.312496,0.74219 -5.5918,2.98047 -2.57617,-1.59961 v 3.5332 l 0.16992,0.31836 -0.16992,0.27344 v 3.41992 l 2.42187,-1.28906 5.38477,3.34179 -2.97852,-5.59375 z m -42.92774,0.25195 -1.30078,8.19531 -4.59961,-2.75781 2.75782,4.59766 -2.16211,0.34375 h 10.60937 l -2.16211,-0.34375 2.75782,-4.59766 -4.59766,2.75781 z m -63.392566,4.55274 -1.30274,8.19531 -4.59961,-2.75781 2.75977,4.59961 -3.48633,0.55273 v 1.49609 l 3.48633,0.55274 -0.1875,0.3125 h 5.82226 c 1.1821,0.92511 1.942336,2.27217 2.427736,3.69922 l 0.98047,0.58789 -2.757806,-4.59961 8.195306,-1.30078 -8.195306,-1.30078 2.757806,-4.59961 -4.599606,2.75781 z m 69.427726,5.94336 c 0.50677,0.42359 0.93183,0.92525 1.28906,1.47851 l 4.01368,-0.63672 z m -86.976556,0.39062 c -0.39693,0.0348 -1.93245,2.73193 -2.27539,2.82031 -0.35117,0.0905 -3.1061,-1.6124 -3.36524,-1.35742 -0.25913,0.25499 1.37114,3.06292 1.27344,3.41406 -0.09766,0.35115 -2.93961,1.90069 -2.84961,2.25391 0.04369,0.17153 0.82748,0.25503 1.65235,0.32617 0.27788,-0.31535 0.58872,-0.59857 0.93554,-0.83984 h 5.91016 c -0.0174,-0.0698 -0.02265,-0.12204 -0.01367,-0.1543 0.09766,-0.35115 2.93961,-1.90069 2.84961,-2.25391 -0.08998,-0.35322 -3.32267,-0.337 -3.57618,-0.59765 -0.2535,-0.26065 -0.16651,-3.51118 -0.51562,-3.60938 -0.0082,-0.002 -0.01586,-0.003 -0.02539,-0.002 z m 116.951166,2.81641 -1.30078,8.19531 -1.73633,-1.04102 h -1.83398 l 1.72851,2.88282 -8.19531,1.30078 8.19531,1.30273 -1.24219,2.07227 h 2.69727 l 0.38672,-0.23242 0.0371,0.23242 h 0.0137 v 0.0879 l 1.25,7.87695 1.30273,-8.19726 4.59961,2.75781 -2.75976,-4.59766 4.83008,-0.76758 v -1.07031 l -4.83008,-0.76562 2.75976,-4.59961 -4.59961,2.75781 z m -154.267576,2.0664 -0.78125,4.92188 -4.59961,-2.75781 2.75782,4.59765 -5.50196,0.875 c 0.28402,0.33214 0.58991,0.66552 0.91797,1 l 0.002,0.002 4.58203,0.72657 -1.21485,2.02734 c 0.43619,0.28358 0.894,0.55776 1.37696,0.82031 h 0.002 l 1.67773,-1.00586 0.31055,1.95508 c 0.59431,0.24707 1.21776,0.47708 1.87305,0.6836 l 0.41797,-2.63868 4.59961,2.75782 -2.75782,-4.59961 8.19532,-1.30078 -8.19532,-1.30274 2.72461,-4.54297 c -0.01617,-0.002 -0.03265,-0.004 -0.04883,-0.006 l -4.51757,2.70899 -0.68164,-4.29492 c -0.382,-0.19054 -0.76095,-0.39936 -1.13868,-0.62696 z m 17.58594,0.69336 c -0.41297,0.15391 -0.8519,0.30834 -1.31641,0.45703 v 1.2168 l -0.93945,-0.93359 c -0.48723,0.13774 -0.99496,0.26641 -1.52148,0.38281 l 0.25586,0.24609 c 0.14289,0.13591 0.29873,0.28871 0.46679,0.46094 l 0.002,0.004 0.002,0.002 c 0.17114,0.16954 0.34641,0.3422 0.52344,0.51758 0.0822,0.0814 0.15872,0.15819 0.23828,0.23828 h -2.15235 v 1.38476 h 2.11133 l -1.5039,1.49219 0.96679,0.9336 0.78907,-0.78125 0.002,-0.002 c 0.17544,-0.17959 0.35004,-0.35753 0.52539,-0.53125 l 0.23242,-0.22851 v 2.17773 h 1.32031 v -2.18359 l 1.50977,1.49219 0.30273,-0.26563 c 0.059,-0.052 0.11446,-0.10518 0.16797,-0.1582 0.0475,-0.0471 0.1114,-0.10802 0.19141,-0.18164 l 0.32617,-0.30078 -0.31445,-0.31055 c -0.14279,-0.14147 -0.30296,-0.29451 -0.47852,-0.45703 l -0.01172,-0.008 c -0.16822,-0.16654 -0.336,-0.33354 -0.50976,-0.5 l -0.0059,-0.004 c -0.0633,-0.0628 -0.12185,-0.12243 -0.1836,-0.1836 h 2.11915 v -1.38476 h -2.13282 l 1.54688,-1.52539 -0.33399,-0.30078 c -0.0611,-0.055 -0.11148,-0.10401 -0.15234,-0.14453 l -0.50586,-0.50196 -0.30469,0.30078 c -0.14752,0.14615 -0.30929,0.30704 -0.48633,0.48243 l -0.002,0.002 -0.002,0.004 c -0.16942,0.17363 -0.34224,0.34582 -0.51758,0.51953 -0.0761,0.0754 -0.14962,0.14557 -0.22461,0.21875 z m 75.843746,1.11914 v 2.19532 l -1.5625,-1.55469 -0.95703,0.94922 0.31445,0.30078 c 0.14289,0.13591 0.29874,0.28675 0.4668,0.45898 l 0.002,0.006 0.002,0.002 c 0.17114,0.16954 0.34641,0.34025 0.52344,0.51563 0.0822,0.0814 0.15873,0.16014 0.23828,0.24023 h -2.15234 v 1.38477 h 2.11133 l -1.50391,1.49023 0.9668,0.93555 0.78906,-0.78125 0.002,-0.002 c 0.17544,-0.17959 0.35004,-0.35753 0.52539,-0.53125 l 0.23243,-0.22852 v 2.17774 h 1.32031 v -2.1836 l 1.51172,1.49219 0.008,-0.008 v -1.84766 c -0.11091,-0.10917 -0.22212,-0.21714 -0.33594,-0.32617 l -0.006,-0.004 c -0.0633,-0.0628 -0.12184,-0.12242 -0.18359,-0.18359 h 0.52539 v -1.05469 c 0,0 -0.0109,-0.11781 -0.0215,-0.33008 h -0.51758 l 0.5,-0.49218 c -2e-5,-7.8e-4 2e-5,-0.001 0,-0.002 -0.0119,-0.49387 -0.01,-1.17681 0.0391,-1.96289 l -0.28906,0.28516 c -0.14752,0.14615 -0.30929,0.30703 -0.48633,0.48242 l -0.002,0.002 -0.002,0.004 c -0.16942,0.17363 -0.34223,0.34582 -0.51757,0.51953 -0.0761,0.0754 -0.14962,0.14557 -0.22461,0.21875 v -2.16797 z m -30.2207,1.80469 2.97851,5.59375 -3.33984,5.38281 5.5918,-2.97851 2.35156,1.45898 v -7.19922 c 0,-0.0293 7e-5,-0.0587 0,-0.0879 l -2.19727,1.17188 z m 70.75,0.77539 v 2.19531 l -1.5625,-1.55468 -0.95508,0.94921 0.31445,0.30079 c 0.14289,0.13591 0.29874,0.2887 0.4668,0.46093 l 0.002,0.004 0.002,0.002 c 0.17114,0.16954 0.34446,0.3422 0.52149,0.51758 0.0822,0.0814 0.16068,0.15819 0.24023,0.23828 h -2.15429 v 1.38477 h 2.11132 l -1.50195,1.49219 0.9668,0.93359 0.78711,-0.78125 0.002,-0.002 c 0.17544,-0.17959 0.35199,-0.35558 0.52734,-0.5293 l 0.23243,-0.23047 v 2.17773 h 1.31836 v -2.18164 l 1.51171,1.49024 0.30079,-0.26563 c 0.059,-0.052 0.11445,-0.10518 0.16796,-0.1582 0.0475,-0.0471 0.11335,-0.10802 0.19336,-0.18164 l 0.13282,-0.12305 v -0.24609 l -1.41993,-1.41992 1.35938,-1.35938 h -1.26367 l 1.32422,-1.30664 v -0.41992 l -0.11133,-0.0996 c -0.0611,-0.055 -0.11149,-0.10401 -0.15235,-0.14453 l -0.50781,-0.50195 -0.30273,0.30078 c -0.14752,0.14615 -0.30929,0.30703 -0.48633,0.48242 l -0.002,0.002 -0.002,0.004 c -0.16942,0.17363 -0.34419,0.34582 -0.51953,0.51953 -0.0761,0.0754 -0.14766,0.14557 -0.22265,0.21875 v -2.16797 z m 3.625,5.89258 0.12695,0.12695 0.0645,-0.0586 -0.1914,-0.18945 z m 0,-2.7793 v 1.38672 h 0.80859 v -1.38672 z m -116.124996,6.36133 2.97851,5.59375 -3.33984,5.38281 5.5918,-2.97851 2.78711,1.73047 v -3.26758 l -0.38086,-0.71485 0.38086,-0.61328 v -3.19336 l -2.63282,1.40235 z m -55.9140596,1.17188 v 2.19531 l -1.5625,-1.55469 -0.95508,0.94922 0.31445,0.30078 c 0.14289,0.13591 0.29874,0.28871 0.4668,0.46094 l 0.00195,0.004 0.00195,0.002 c 0.17114,0.16954 0.34446,0.3422 0.52149,0.51758 0.0822,0.0814 0.16067,0.15819 0.24023,0.23828 h -2.15429 v 1.38476 h 2.11132 l -1.50195,1.49219 0.9668,0.93359 0.78711,-0.78125 0.00195,-0.002 c 0.17544,-0.17959 0.35199,-0.35558 0.52734,-0.5293 l 0.23243,-0.23047 v 2.17774 h 1.31836 v -2.18164 l 0.95703,0.94336 v -5.10547 c -0.0712,0.0705 -0.1342,0.13296 -0.21094,0.20898 l -0.00195,0.002 -0.00196,0.004 c -0.16942,0.17363 -0.34419,0.34582 -0.51953,0.51953 -0.0761,0.0754 -0.14766,0.14557 -0.22265,0.21875 v -2.16796 z m 126.5214756,0.0781 c -0.39693,0.0348 -1.93245,2.73193 -2.27539,2.82031 -0.35117,0.0905 -3.1061,-1.6124 -3.36524,-1.35742 -0.25913,0.25499 1.37114,3.06292 1.27344,3.41406 -0.0525,0.18869 -0.89757,0.72345 -1.6543,1.23243 v 1.30468 c 0.9793,0.0982 2.22726,0.15457 2.38086,0.3125 0.2535,0.26065 0.16457,3.51118 0.51368,3.60938 0.34911,0.0982 1.95156,-2.72591 2.30273,-2.81641 0.35117,-0.0905 3.10609,1.6124 3.36523,1.35742 0.25914,-0.25498 -1.37113,-3.06292 -1.27343,-3.41406 0.0977,-0.35115 2.93961,-1.90069 2.84961,-2.25391 -0.09,-0.35322 -3.32267,-0.337 -3.57618,-0.59765 -0.2535,-0.26065 -0.16651,-3.51118 -0.51562,-3.60938 -0.008,-0.002 -0.0159,-0.003 -0.0254,-0.002 z m -27.92383,0.12695 c -0.38159,-0.008 -1.93947,2.73123 -2.28516,2.82032 -0.14263,0.0368 -0.68166,-0.22203 -1.28906,-0.52539 v 5.63476 c 0.16318,0.77141 0.13094,3.31947 0.43946,3.40625 0.34911,0.0982 1.95156,-2.72591 2.30273,-2.81641 0.35117,-0.0905 3.10414,1.61241 3.36328,1.35743 0.25914,-0.25498 -1.37114,-3.06293 -1.27344,-3.41407 0.0977,-0.35115 2.93961,-1.90068 2.84961,-2.2539 -0.09,-0.35322 -3.32266,-0.33506 -3.57617,-0.59571 -0.2535,-0.26065 -0.16456,-3.51117 -0.51367,-3.60937 -0.005,-0.002 -0.0115,-0.004 -0.0176,-0.004 z m 98.09766,3.15235 c -0.4876,0.29678 -1.87534,2.70754 -2.19922,2.79101 -0.35117,0.0905 -3.1061,-1.6124 -3.36524,-1.35742 -0.25913,0.25499 1.37114,3.06292 1.27344,3.41406 -0.0977,0.35115 -2.93961,1.90069 -2.84961,2.25391 0.09,0.35322 3.32266,0.33505 3.57617,0.5957 0.2535,0.26065 0.16456,3.51118 0.51367,3.60938 0.34911,0.0982 1.95157,-2.72591 2.30274,-2.81641 0.0978,-0.0252 0.38301,0.0898 0.74805,0.26172 z m -25.55469,1.83203 -5.5918,2.98047 -3.73437,-2.31836 v 2.07617 l 1.32812,2.49414 -1.17578,1.89258 c 1e-4,6.5e-4 -1e-4,0.001 0,0.002 0.11039,0.7436 0.27938,1.43395 0.49609,2.07227 l 2.93165,-1.5625 5.38476,3.34179 -2.97851,-5.59375 z M 6.7181644,163.24925 c -0.39693,0.0348 -1.93245,2.73193 -2.27539,2.82031 -0.35117,0.0905 -3.10609,-1.6124 -3.36523,-1.35742 -0.25913002,0.25499 1.37113,3.06292 1.27343,3.41406 -0.07007,0.25195 -1.55240002,1.11965 -2.35156002211,1.72071 v 0.72656 C 0.93702438,170.73899 2.8831344,170.77593 3.0775444,170.97581 c 0.2535,0.26065 0.16456,3.51118 0.51367,3.60938 0.34911,0.0982 1.95156,-2.72591 2.30273,-2.81641 0.33846,-0.0872 2.91045,1.49093 3.32813,1.37695 v -0.42578 c -0.27482,-0.85407 -1.31493,-2.72532 -1.23633,-3.00781 0.0429,-0.15424 0.61537,-0.53956 1.23633,-0.95312 v -1.625 c -0.88537,-0.077 -1.83052,-0.13734 -1.96289,-0.27344 -0.2535,-0.26065 -0.16652,-3.51118 -0.51563,-3.60938 -0.00818,-0.002 -0.01586,-0.003 -0.02539,-0.002 z m 97.0527256,1.09961 v 2.19531 l -1.5625,-1.55469 -0.23828,0.23633 v 1.40821 c 0.0208,0.021 0.0413,0.0428 0.0625,0.0644 l 0.002,0.004 0.002,0.002 c 0.17114,0.16954 0.34641,0.3422 0.52344,0.51758 0.0822,0.0814 0.15872,0.16014 0.23828,0.24023 h -0.82813 c 3.1e-4,0.48039 0.022,0.94123 0.0625,1.38477 h 0.72461 l -0.65039,0.64453 c 0.077,0.55337 0.18572,1.07708 0.32227,1.57226 l 0.58007,-0.57226 0.002,-0.002 c 0.17544,-0.17959 0.35004,-0.35753 0.52539,-0.53125 l 0.23242,-0.23046 v 2.17968 h 1.32031 v -2.18359 l 1.50977,1.49023 0.30273,-0.26562 c 0.059,-0.052 0.11446,-0.10323 0.16797,-0.15625 0.0475,-0.0471 0.1114,-0.10998 0.19141,-0.1836 l 0.32617,-0.29882 -0.31445,-0.3125 c -0.14279,-0.14147 -0.30296,-0.29256 -0.47852,-0.45508 l -0.0117,-0.01 c -0.16822,-0.16654 -0.336,-0.33354 -0.50976,-0.5 l -0.006,-0.004 c -0.0633,-0.0628 -0.12185,-0.12047 -0.1836,-0.18164 h 2.1211 v -1.38477 h -2.13477 l 1.54688,-1.52734 -0.33399,-0.29883 c -0.0611,-0.055 -0.11148,-0.10401 -0.15234,-0.14453 l -0.50586,-0.50196 -0.30469,0.29883 c -0.14752,0.14615 -0.30929,0.30703 -0.48633,0.48242 l -0.002,0.002 -0.002,0.004 c -0.16942,0.17363 -0.34224,0.34582 -0.51758,0.51953 -0.0761,0.0754 -0.14962,0.14753 -0.22461,0.22071 v -2.16797 z m -43.115226,1.28125 v 1.56836 c 0,0 -0.12524,1.60419 -0.98633,3.47851 0.944,0.44262 2.45035,1.29078 2.63867,1.10547 0.25914,-0.25498 -1.37113,-3.06097 -1.27343,-3.41211 0.09766,-0.35115 2.93961,-1.90068 2.84961,-2.2539 -0.07496,-0.29425 -2.33079,-0.33135 -3.22852,-0.48633 z m 133.763666,0.52539 v 1.33203 l 1.91992,3.60547 -1.95312,3.14648 c -5e-5,6.6e-4 5e-5,0.001 0,0.002 -0.0444,0.55998 -0.13351,1.107 -0.26563,1.63672 l 4.4707,-2.38086 5.05079,3.13476 v -0.41992 l -2.64454,-4.9668 2.64454,-4.26367 v -0.75 l -4.89649,2.60938 z m -126.324216,0.14258 v 2.19531 l -1.56054,-1.55469 -0.95704,0.94922 0.31446,0.30078 c 0.14289,0.13591 0.29873,0.28676 0.46679,0.45899 l 0.002,0.006 0.002,0.002 c 0.17114,0.16954 0.34641,0.34024 0.52344,0.51562 0.0822,0.0814 0.15872,0.16015 0.23828,0.24024 h -2.1543 v 1.38476 h 2.11133 l -1.50195,1.49024 0.96679,0.93555 0.78907,-0.78125 0.002,-0.002 c 0.17544,-0.17959 0.35004,-0.35753 0.52539,-0.53125 l 0.23242,-0.22851 v 2.17773 h 1.10157 c 0.07455,-0.1178 0.14637,-0.23679 0.21679,-0.35937 v -1.82422 l 0.59961,0.59179 c 0.17918,-0.44126 0.33409,-0.90931 0.46094,-1.40429 -0.02153,-0.0213 -0.04249,-0.0427 -0.06445,-0.0645 h 0.08203 c 0.11005,-0.43984 0.19737,-0.90056 0.26172,-1.38476 h -0.35743 l 0.4043,-0.39844 c 0.05128,-0.49721 0.07813,-1.01812 0.07813,-1.5625 v -0.4414 l -0.23243,0.23046 c -0.14752,0.14615 -0.30928,0.30704 -0.48632,0.48243 l -0.002,0.002 -0.0019,0.004 c -0.16942,0.17363 -0.34224,0.34582 -0.51758,0.51953 -0.0761,0.0754 -0.14962,0.14557 -0.22461,0.21875 v -2.16797 z m 42.464846,3.40625 -1.30274,8.19726 -4.59961,-2.75781 0.0703,0.11524 c 9.5e-4,0.001 0.001,0.003 0.002,0.004 2.49641,2.7122 6.22045,3.77047 9.1582,4.16797 l 2.57227,-4.28711 -4.59961,2.75781 z m -103.8808556,7.91015 2.75781,4.59961 -8.19531,1.30078 8.19531,1.30274 -2.75781,4.59766 4.5996096,-2.75782 1.30078,8.19532 1.30273,-8.19532 4.59766,2.75782 -2.75781,-4.59766 8.19726,-1.30274 -0.51758,-0.082 h -4.17968 c -3.17874,0 -6.0029,-1.46744 -7.83203,-3.76562 l -0.11133,0.70508 z m 182.8046756,4.45118 c -1.4837,0.86953 -3.21364,1.36718 -5.06445,1.36718 h -0.16016 c -0.59657,0.53258 -2.78223,1.76764 -2.70312,2.07813 0.09,0.35322 3.32266,0.33505 3.57617,0.5957 0.2535,0.26065 0.16456,3.51118 0.51367,3.60938 0.34911,0.0982 1.95157,-2.72591 2.30274,-2.81641 0.35117,-0.0905 3.10609,1.6124 3.36523,1.35742 0.25914,-0.25498 -1.37114,-3.06292 -1.27344,-3.41406 0.0977,-0.35115 2.93961,-1.90069 2.84961,-2.25391 -0.0806,-0.31638 -2.68225,-0.3355 -3.40625,-0.52343 z m -163.523426,1.36718 -1.10938,6.99414 -4.59961,-2.75781 2.75782,4.59961 -8.19532,1.30078 8.19532,1.30274 -2.75782,4.59961 4.59961,-2.75977 1.30078,8.19727 1.30078,-8.19727 4.59961,2.75977 -2.75781,-4.59961 8.19531,-1.30274 -8.19531,-1.30078 2.75781,-4.59961 -4.59961,2.75781 -1.10937,-6.99414 z m 12.4707,0 -3.97461,6.62696 6.89844,-4.13672 1.95312,12.29297 1.95313,-12.29297 6.89844,4.13672 -3.97461,-6.62696 z m 68.333976,0 -2.10742,3.51172 4.59961,-2.75781 1.30274,8.19531 1.30078,-8.19531 4.59961,2.75781 -2.10547,-3.51172 z m 33.55469,0 0.97266,1.6211 -12.29297,1.95312 12.29297,1.95313 -4.13672,6.89843 6.89844,-4.13671 1.95312,12.29296 1.95117,-12.29296 6.89844,4.13671 -4.13672,-6.89843 12.29492,-1.95313 -12.29492,-1.95312 0.97266,-1.6211 z m 29.54102,0 -0.66993,4.21485 -4.5996,-2.75782 2.75781,4.59961 -8.19531,1.30079 8.19531,1.30273 -2.75781,4.59766 4.5996,-2.75782 1.30079,8.19532 1.30078,-8.19532 4.59961,2.75782 -2.75782,-4.59766 8.19532,-1.30273 -8.19532,-1.30079 2.75782,-4.59961 -4.59961,2.75782 -0.66992,-4.21485 z m -81.732416,0.85938 -1.95313,12.29492 -6.89844,-4.13867 4.13672,6.89844 -12.29297,1.95312 12.29297,1.95313 -4.13672,6.89843 6.89844,-4.13672 1.95313,12.29297 1.95312,-12.29297 6.89844,4.13672 -4.13867,-6.89843 12.294916,-1.95313 -12.294916,-1.95312 4.13867,-6.89844 -6.89844,4.13867 z m -31.24219,0.53125 v 2.19531 l -1.5625,-1.55469 -0.95508,0.94922 0.31445,0.30078 c 0.14289,0.13591 0.29874,0.28676 0.4668,0.45899 l 0.0019,0.004 0.002,0.002 c 0.17114,0.16954 0.34445,0.3422 0.52148,0.51758 0.0822,0.0814 0.16068,0.16014 0.24024,0.24023 h -2.1543 v 1.38477 h 2.11133 l -1.50196,1.49023 0.9668,0.93555 0.78711,-0.78125 0.002,-0.002 c 0.17544,-0.17959 0.352,-0.35753 0.52735,-0.53125 l 0.23242,-0.23047 v 2.17969 h 1.31836 v -2.18359 l 1.51172,1.49023 0.30078,-0.26367 c 0.059,-0.052 0.11446,-0.10518 0.16797,-0.1582 0.0475,-0.0471 0.11335,-0.10802 0.19336,-0.18164 l 0.32421,-0.30078 -0.31445,-0.3125 c -0.14279,-0.14147 -0.301,-0.29256 -0.47656,-0.45508 l -0.01172,-0.01 c -0.16822,-0.16654 -0.33796,-0.33354 -0.51172,-0.5 l -0.0039,-0.004 c -0.0633,-0.0628 -0.12185,-0.12047 -0.1836,-0.18164 h 2.11914 v -1.38477 h -2.13281 l 1.54687,-1.52539 -0.33398,-0.30078 c -0.0611,-0.055 -0.11344,-0.10401 -0.1543,-0.14453 l -0.50586,-0.50196 -0.30273,0.30078 c -0.14752,0.14615 -0.31124,0.30508 -0.48828,0.48047 l -0.002,0.002 -0.002,0.006 c -0.16942,0.17363 -0.34224,0.34582 -0.51758,0.51953 -0.0761,0.0754 -0.14766,0.14557 -0.22265,0.21875 v -2.16797 z m 66.828116,0.58594 v 2.19531 l -1.5625,-1.55469 -0.95508,0.94922 0.31446,0.30078 c 0.14289,0.13591 0.29873,0.28676 0.46679,0.45899 l 0.002,0.004 0.002,0.002 c 0.17114,0.16954 0.34446,0.3422 0.52149,0.51758 0.0822,0.0814 0.16068,0.16015 0.24023,0.24024 h -2.1543 v 1.38476 h 2.11133 l -1.50195,1.49024 0.96679,0.93359 0.78711,-0.7793 0.002,-0.002 c 0.17544,-0.17959 0.35199,-0.35753 0.52734,-0.53125 l 0.23242,-0.23047 v 2.17969 h 1.31836 v -2.18359 l 1.51172,1.49023 0.30078,-0.26367 c 0.059,-0.052 0.11446,-0.10518 0.16797,-0.1582 0.0475,-0.0471 0.11335,-0.10803 0.19336,-0.18165 l 0.32422,-0.30078 -0.3125,-0.3125 c -0.14279,-0.14147 -0.30296,-0.29255 -0.47852,-0.45507 l -0.0117,-0.01 c -0.16822,-0.16654 -0.33795,-0.33354 -0.51171,-0.5 l -0.004,-0.004 c -0.0633,-0.0628 -0.12184,-0.12047 -0.18359,-0.18164 h 2.11914 v -1.38476 h -2.13282 l 1.54688,-1.52539 -0.33399,-0.30078 c -0.0611,-0.055 -0.11148,-0.10402 -0.15234,-0.14454 l -0.50781,-0.50195 -0.30274,0.29883 c -0.14752,0.14615 -0.30928,0.30703 -0.48632,0.48242 l -0.002,0.002 -0.002,0.004 c -0.16942,0.17363 -0.34419,0.34582 -0.51953,0.51953 -0.0761,0.0754 -0.14767,0.14752 -0.22266,0.2207 v -2.16796 z m 72.64258,0.12109 v 2.19531 l -1.5625,-1.55469 -0.95703,0.94922 0.31445,0.30078 c 0.14289,0.13591 0.29874,0.28676 0.4668,0.45899 l 0.002,0.004 0.002,0.002 c 0.17114,0.16954 0.34641,0.3422 0.52344,0.51758 0.0822,0.0814 0.15872,0.16014 0.23828,0.24023 h -2.15234 v 1.38477 h 2.10937 l -1.50195,1.49023 0.9668,0.93555 0.78906,-0.78125 0.002,-0.002 c 0.17544,-0.17959 0.35004,-0.35753 0.52539,-0.53125 l 0.23243,-0.23046 v 2.17968 h 1.32031 v -2.18359 l 1.50976,1.49023 0.30079,-0.26367 c 0.059,-0.052 0.11641,-0.10518 0.16992,-0.1582 0.0475,-0.0471 0.11139,-0.10802 0.1914,-0.18164 l 0.32618,-0.30078 -0.31446,-0.31055 c -0.14279,-0.14147 -0.30295,-0.29451 -0.47851,-0.45703 l -0.0117,-0.01 c -0.16822,-0.16654 -0.33601,-0.33158 -0.50977,-0.49804 l -0.006,-0.006 c -0.0633,-0.0628 -0.12184,-0.12047 -0.18359,-0.18164 h 2.11914 v -1.38477 h -2.13281 l 1.54687,-1.52539 -0.33398,-0.30078 c -0.0611,-0.055 -0.11149,-0.10401 -0.15235,-0.14453 l -0.50781,-0.50196 -0.30273,0.30079 c -0.14752,0.14615 -0.30929,0.30507 -0.48633,0.48046 l -0.002,0.004 -0.002,0.004 c -0.16942,0.17363 -0.34223,0.34582 -0.51757,0.51953 -0.0761,0.0754 -0.14962,0.14557 -0.22461,0.21875 v -2.16797 z m -122.388666,0.46875 c -0.39693,0.0348 -1.93245,2.73193 -2.27539,2.82031 -0.35117,0.0905 -3.1061,-1.6124 -3.36524,-1.35742 -0.25913,0.25499 1.37114,3.06292 1.27344,3.41406 -0.09766,0.35115 -2.93961,1.90069 -2.84961,2.25391 0.08997,0.35322 3.32266,0.33505 3.57617,0.5957 0.2535,0.26065 0.16457,3.51118 0.51368,3.60938 0.34911,0.0982 1.95156,-2.72591 2.30273,-2.81641 0.35117,-0.0905 3.10609,1.6124 3.36523,1.35742 0.25914,-0.25498 -1.37113,-3.06292 -1.27343,-3.41406 0.09766,-0.35115 2.93961,-1.90069 2.84961,-2.25391 -0.08998,-0.35322 -3.32267,-0.337 -3.57618,-0.59765 -0.2535,-0.26065 -0.16651,-3.51118 -0.51562,-3.60938 -0.0082,-0.002 -0.01586,-0.003 -0.02539,-0.002 z m 46.685546,6.38281 -1.30079,8.19727 -4.5996,-2.75977 2.75781,4.59961 -8.19531,1.30274 8.19531,1.30078 -2.75781,4.59961 4.5996,-2.75782 1.30079,8.19532 1.30273,-8.19532 4.59961,2.75782 -2.75977,-4.59961 8.19727,-1.30078 -8.19727,-1.30274 2.75977,-4.59961 -4.59961,2.75977 z m 61.34179,0.27344 -1.95117,12.29492 -6.89844,-4.13672 4.13672,6.89844 -12.29492,1.95313 12.29492,1.95117 -4.13672,6.89843 6.89844,-4.13671 1.95117,12.29492 1.95313,-12.29492 6.89843,4.13671 -4.13671,-6.89843 12.29296,-1.95117 -12.29296,-1.95313 4.13671,-6.89844 -6.89843,4.13672 z m -172.6152256,3.34375 -1.31641,0.002 v 2.19336 l -1.5625,-1.55469 -0.95703,0.94922 0.31446,0.30078 c 0.14289,0.13591 0.29873,0.28871 0.46679,0.46094 l 0.00196,0.004 0.00195,0.002 c 0.17114,0.16954 0.34641,0.3422 0.52344,0.51758 0.0822,0.0814 0.15872,0.15819 0.23828,0.23828 h -2.15235 v 1.38672 h 2.10938 l -1.50195,1.49023 0.96679,0.9336 0.78906,-0.78125 0.00196,-0.002 c 0.17544,-0.17959 0.35004,-0.35557 0.52539,-0.52929 l 0.23242,-0.23047 v 2.17969 h 1.32031 v -2.1836 l 1.5097696,1.49024 0.30273,-0.26563 c 0.059,-0.052 0.11446,-0.10518 0.16797,-0.1582 0.0475,-0.0471 0.1114,-0.10802 0.19141,-0.18164 l 0.32617,-0.30078 -0.31445,-0.31055 c -0.14279,-0.14147 -0.30296,-0.29256 -0.47852,-0.45508 l -0.01172,-0.01 c -0.16822,-0.16654 -0.336,-0.33354 -0.50976,-0.5 l -0.0059,-0.004 c -0.0633,-0.0628 -0.12185,-0.12047 -0.1836,-0.18164 h 2.11914 v -1.38672 h -2.13281 l 1.54688,-1.52539 -0.33399,-0.30078 c -0.0611,-0.055 -0.11148,-0.10401 -0.15234,-0.14453 l -0.50781,-0.50196 -0.30274,0.30079 c -0.14752,0.14615 -0.30929,0.30703 -0.48633,0.48242 l -0.002,0.002 -0.0019,0.004 c -0.1694196,0.17363 -0.3422396,0.34582 -0.5175796,0.51953 -0.0761,0.0754 -0.14962,0.14557 -0.22461,0.21875 z m 194.2617156,1.01367 c -0.60257,0.6871 -1.67032,2.48477 -1.94922,2.55664 -0.35117,0.0905 -3.1061,-1.6124 -3.36524,-1.35742 -0.25913,0.25499 1.37114,3.06292 1.27344,3.41406 -0.0977,0.35115 -2.93961,1.90069 -2.84961,2.25391 0.09,0.35322 3.32266,0.33505 3.57617,0.5957 0.2535,0.26065 0.16456,3.51118 0.51367,3.60938 0.34911,0.0982 1.95157,-2.72591 2.30274,-2.81641 0.0741,-0.0191 0.25596,0.0412 0.49805,0.14649 z m -44.40235,1.51758 v 2.19531 l -1.5625,-1.55469 -0.95508,0.94922 0.31446,0.30078 c 0.14289,0.13591 0.29873,0.28676 0.46679,0.45899 l 0.002,0.004 0.002,0.002 c 0.17114,0.16954 0.34446,0.3422 0.52149,0.51758 0.0822,0.0814 0.16068,0.16014 0.24023,0.24023 h -2.1543 v 1.38477 h 2.11133 l -1.50195,1.49023 0.96679,0.93555 0.78711,-0.78125 0.002,-0.002 c 0.17544,-0.17959 0.35199,-0.35753 0.52734,-0.53125 l 0.23242,-0.23046 v 2.17968 h 1.31836 v -2.18359 l 1.51172,1.49023 0.30078,-0.26367 c 0.059,-0.052 0.11446,-0.10518 0.16797,-0.1582 0.0475,-0.0471 0.11335,-0.10802 0.19336,-0.18164 l 0.32422,-0.30078 -0.31445,-0.31055 c -0.14279,-0.14147 -0.30101,-0.29451 -0.47657,-0.45703 l -0.0117,-0.01 c -0.16822,-0.16654 -0.33795,-0.33158 -0.51171,-0.49804 l -0.004,-0.006 c -0.0633,-0.0628 -0.12184,-0.12047 -0.18359,-0.18164 h 2.11914 v -1.38477 h -2.13282 l 1.54688,-1.52539 -0.33399,-0.30078 c -0.0611,-0.055 -0.11343,-0.10401 -0.15429,-0.14453 l -0.50586,-0.50196 -0.30274,0.30079 c -0.14752,0.14615 -0.30928,0.30507 -0.48632,0.48046 l -0.004,0.004 -0.002,0.004 c -0.16942,0.17363 -0.34224,0.34582 -0.51758,0.51953 -0.0761,0.0754 -0.14767,0.14557 -0.22266,0.21875 v -2.16797 z m -140.939446,2.05469 -1.95312,12.29492 -6.8984396,-4.13867 4.1367196,6.89843 -12.2929696,1.95313 12.2929696,1.95312 -4.1367196,6.89844 6.8984396,-4.13672 1.95312,12.29297 1.95117,-12.29297 6.89844,4.13672 -4.13672,-6.89844 12.29492,-1.95312 -12.29492,-1.95313 4.13672,-6.89843 -6.89844,4.13867 z m 50.41211,0.5957 -1.30273,8.19727 -4.59766,-2.75782 2.75781,4.59766 -8.19726,1.30273 8.19726,1.30079 -2.75781,4.5996 4.59766,-2.75781 1.30273,8.19531 1.30078,-8.19531 4.59961,2.75781 -2.75781,-4.5996 8.19531,-1.30079 -8.19531,-1.30273 2.75781,-4.59766 -4.59961,2.75782 z m -25.10156,1.56836 2.97851,5.59375 -3.33984,5.38281 5.5918,-2.97851 5.38476,3.34179 -2.97851,-5.59375 3.33984,-5.38476 -5.5918,2.98047 z m 96.607416,0 c -0.39693,0.0348 -1.93245,2.73193 -2.27539,2.82031 -0.35117,0.0905 -3.1061,-1.6124 -3.36524,-1.35742 -0.25913,0.25499 1.37114,3.06292 1.27344,3.41406 -0.0977,0.35115 -2.93961,1.90069 -2.84961,2.25391 0.09,0.35322 3.32266,0.33505 3.57617,0.5957 0.2535,0.26065 0.16457,3.51118 0.51368,3.60938 0.34911,0.0982 1.95156,-2.72591 2.30273,-2.81641 0.35117,-0.0905 3.10609,1.6124 3.36523,1.35742 0.25914,-0.25498 -1.37113,-3.06292 -1.27343,-3.41406 0.0977,-0.35115 2.93961,-1.90069 2.84961,-2.25391 -0.09,-0.35322 -3.32267,-0.337 -3.57618,-0.59765 -0.2535,-0.26065 -0.16651,-3.51118 -0.51562,-3.60938 -0.008,-0.002 -0.0159,-0.003 -0.0254,-0.002 z m 8.39258,10.25 2.97851,5.59375 -3.33984,5.38281 5.5918,-2.97851 5.38476,3.34179 -2.97851,-5.59375 3.33984,-5.38476 -5.5918,2.98047 z m -17.22071,2.96094 -1.95312,12.29297 -6.89844,-4.13672 4.13672,6.89843 -12.29297,1.95313 12.29297,1.95312 -0.14648,0.24414 h 9.7207 l -0.14649,-0.24414 12.29493,-1.95312 -12.29493,-1.95313 4.13672,-6.89843 -6.89843,4.13672 z m -23.77929,0.0391 2.97851,5.59375 -3.33984,5.38281 5.5918,-2.97851 5.38476,3.34179 -2.97851,-5.59375 3.33984,-5.38476 -5.5918,2.98047 z m -54.462886,1.64062 -1.31641,0.002 v 2.19336 l -1.5625,-1.55274 -0.95703,0.94922 0.31445,0.29883 c 0.14289,0.13591 0.29874,0.28871 0.4668,0.46094 l 0.002,0.004 0.002,0.002 c 0.17114,0.16954 0.3464,0.34219 0.52343,0.51757 0.0822,0.0814 0.15872,0.16015 0.23828,0.24024 h -2.15234 v 1.38476 h 2.11133 l -1.50391,1.49024 0.9668,0.93359 0.78906,-0.77929 0.002,-0.002 c 0.17544,-0.17959 0.35004,-0.35753 0.52539,-0.53125 l 0.23242,-0.23047 v 2.17969 h 1.32031 v -2.18377 l 1.51172,1.49023 0.30078,-0.26562 c 0.059,-0.052 0.11446,-0.10323 0.16797,-0.15625 0.0475,-0.0471 0.1114,-0.10998 0.19141,-0.1836 l 0.32617,-0.29883 -0.31446,-0.3125 c -0.14279,-0.14147 -0.30295,-0.29255 -0.47851,-0.45507 l -0.01172,-0.01 c -0.16822,-0.16654 -0.33601,-0.33354 -0.50977,-0.5 l -0.0059,-0.004 c -0.0633,-0.0628 -0.12184,-0.12047 -0.18359,-0.18164 h 2.12109 v -1.38476 h -2.13476 l 1.54687,-1.52735 -0.33398,-0.29882 c -0.0611,-0.055 -0.11148,-0.10401 -0.15234,-0.14453 l -0.50586,-0.50196 -0.30469,0.29883 c -0.14752,0.14615 -0.30929,0.30703 -0.48633,0.48242 l -0.002,0.002 -0.002,0.004 c -0.16942,0.17363 -0.34223,0.34582 -0.51757,0.51953 -0.0761,0.0754 -0.14962,0.14753 -0.22461,0.22071 z m 43.18554,2.08399 -1.30078,8.19726 -4.59961,-2.75976 2.75782,4.59961 -8.19532,1.30273 8.19532,1.30078 -1.67969,2.80078 h 1.92187 l 1.59961,-0.95898 0.15235,0.95898 h 2.29882 l 0.15235,-0.95898 1.59961,0.95898 h 1.919916 l -1.679686,-2.80078 8.197266,-1.30078 -8.197266,-1.30273 2.757806,-4.59961 -4.597646,2.75976 z m -13.55859,0.45312 v 2.19532 l -1.5625,-1.55469 -0.95508,0.94922 0.31445,0.30078 c 0.14289,0.13591 0.29874,0.28675 0.4668,0.45898 l 0.002,0.004 0.002,0.002 c 0.17114,0.16954 0.34445,0.3422 0.52148,0.51758 0.0822,0.0814 0.16068,0.16014 0.24024,0.24023 h -2.1543 v 1.38477 h 2.11133 l -1.50196,1.49023 0.9668,0.93555 0.78711,-0.78125 0.0019,-0.002 c 0.17544,-0.17959 0.352,-0.35753 0.52735,-0.53125 l 0.23242,-0.23047 v 2.17969 h 1.31836 v -2.1836 l 1.51172,1.49024 0.30078,-0.26367 c 0.059,-0.052 0.11446,-0.10519 0.16797,-0.15821 0.0475,-0.0471 0.11335,-0.10802 0.19336,-0.18164 l 0.32422,-0.30078 -0.3125,-0.3125 c -0.14279,-0.14147 -0.30296,-0.29256 -0.47852,-0.45508 l -0.01172,-0.01 c -0.16822,-0.16654 -0.33796,-0.33354 -0.51172,-0.5 l -0.0039,-0.004 c -0.0633,-0.0628 -0.12185,-0.12047 -0.1836,-0.18164 h 2.11914 v -1.38477 h -2.13281 l 1.54688,-1.52539 -0.33399,-0.30078 c -0.0611,-0.055 -0.11148,-0.10401 -0.15234,-0.14453 l -0.50781,-0.50195 -0.30274,0.30078 c -0.14752,0.14615 -0.30929,0.30508 -0.48633,0.48047 l -0.0019,0.002 -0.002,0.006 c -0.16942,0.17363 -0.34224,0.34582 -0.51758,0.51953 -0.0761,0.0754 -0.14962,0.14557 -0.22461,0.21875 v -2.16797 z m 106.335936,0.32227 2.97851,5.59375 -3.33984,5.38281 5.59179,-2.97851 5.38477,3.34179 -2.97852,-5.59375 3.33985,-5.38476 -5.5918,2.98047 z m -147.642576,0.25 c -0.39693,0.0348 -1.93245,2.73193 -2.27539,2.82031 -0.35117,0.0905 -3.1061,-1.6124 -3.36524,-1.35742 -0.25913,0.25499 1.37114,3.06292 1.27344,3.41406 -0.09766,0.35115 -2.93961,1.90069 -2.84961,2.25391 0.08997,0.35322 3.32266,0.33505 3.57617,0.5957 0.2535,0.26065 0.16457,3.51118 0.51368,3.60938 0.34911,0.0982 1.95156,-2.72591 2.30273,-2.81641 0.35117,-0.0905 3.1061,1.6124 3.36524,1.35742 0.25914,-0.25498 -1.37114,-3.06292 -1.27344,-3.41406 0.09766,-0.35115 2.93961,-1.90069 2.84961,-2.25391 -0.08998,-0.35322 -3.32266,-0.337 -3.57617,-0.59765 -0.2535,-0.26065 -0.16652,-3.51118 -0.51563,-3.60938 -0.0082,-0.002 -0.01586,-0.003 -0.02539,-0.002 z m 132.089836,3.54297 -1.31836,0.002 v 2.19336 l -1.5625,-1.55469 -0.95508,0.94922 0.31446,0.30078 c 0.14289,0.13591 0.29873,0.28871 0.46679,0.46094 l 0.002,0.004 0.002,0.002 c 0.17114,0.16954 0.34446,0.3422 0.52149,0.51758 0.0822,0.0814 0.16068,0.15819 0.24023,0.23828 h -2.1543 v 1.38672 h 2.11133 l -1.50195,1.49023 0.96679,0.9336 0.78711,-0.78125 0.002,-0.002 c 0.17544,-0.17959 0.35199,-0.35557 0.52734,-0.52929 l 0.23242,-0.23047 v 2.17968 h 1.31836 v -2.18359 l 1.51172,1.49024 0.30078,-0.26563 c 0.059,-0.052 0.11446,-0.10518 0.16797,-0.1582 0.0475,-0.0471 0.11335,-0.10802 0.19336,-0.18164 l 0.32422,-0.30078 -0.31445,-0.31055 c -0.14279,-0.14147 -0.30101,-0.29451 -0.47657,-0.45703 l -0.0117,-0.008 c -0.16822,-0.16654 -0.33795,-0.33354 -0.51171,-0.5 l -0.004,-0.004 c -0.0633,-0.0628 -0.12184,-0.12047 -0.18359,-0.18164 h 2.11914 v -1.38672 h -2.13282 l 1.54688,-1.52539 -0.33399,-0.30078 c -0.0611,-0.055 -0.11343,-0.10401 -0.15429,-0.14453 l -0.50586,-0.50196 -0.30274,0.30078 c -0.14752,0.14615 -0.30928,0.30704 -0.48632,0.48243 l -0.004,0.002 -0.002,0.004 c -0.16942,0.17363 -0.34224,0.34582 -0.51758,0.51953 -0.0761,0.0754 -0.14767,0.14557 -0.22266,0.21875 z M 7.6126944,228.46409 c -0.39693,0.0348 -1.93245,2.72998 -2.27539,2.81836 -0.35117,0.0905 -3.10609,-1.61045 -3.36523,-1.35547 -0.15799,0.15547 0.38546,1.25979 0.8125,2.17774 1.57949,1.64189 3.71773,2.74235 6.11523,3.00195 -0.02251,-0.0825 -0.02957,-0.14362 -0.01953,-0.17969 0.09766,-0.35115 2.9396096,-1.90068 2.8496096,-2.2539 -0.08998,-0.35322 -3.3226596,-0.33701 -3.5761696,-0.59766 -0.2535,-0.26065 -0.16652,-3.51117 -0.51563,-3.60937 -0.00818,-0.002 -0.01586,-0.003 -0.02539,-0.002 z m 64.5703096,0.29297 c -0.39693,0.0348 -1.93245,2.72998 -2.27539,2.81836 -0.35117,0.0905 -3.10609,-1.61045 -3.36523,-1.35547 -0.25913,0.25499 1.37114,3.06292 1.27344,3.41406 -0.063,0.2265 -1.26838,0.95046 -2.0918,1.53125 h 7.7539 c 0.31449,-0.43228 2.9083,-1.86159 2.82227,-2.19921 -0.08998,-0.35322 -3.32266,-0.33701 -3.57617,-0.59766 -0.2535,-0.26065 -0.16652,-3.51118 -0.51563,-3.60938 -0.0082,-0.002 -0.01586,-0.003 -0.02539,-0.002 z m 112.111326,1.36328 c -0.39693,0.0348 -1.93245,2.73194 -2.27539,2.82032 -0.35117,0.0905 -3.1061,-1.61241 -3.36524,-1.35743 -0.25913,0.25499 1.37114,3.06293 1.27344,3.41407 -0.0114,0.041 -0.0596,0.0982 -0.13672,0.16796 h 7.69727 c 0.53317,-0.36718 0.95954,-0.69575 0.92383,-0.83593 -0.09,-0.35322 -3.32266,-0.33506 -3.57617,-0.59571 -0.2535,-0.26065 -0.16652,-3.51117 -0.51563,-3.60937 -0.008,-0.002 -0.0159,-0.005 -0.0254,-0.004 z m -25.63281,0.63672 c -0.39693,0.0348 -1.93245,2.72998 -2.27539,2.81836 -0.35117,0.0905 -3.1061,-1.61045 -3.36524,-1.35547 -0.2071,0.2038 0.79227,2.03774 1.15235,2.94531 h 8.49804 c 0.0791,-0.0841 0.11945,-0.15204 0.10743,-0.19921 -0.09,-0.35322 -3.32267,-0.33701 -3.57618,-0.59766 -0.2535,-0.26065 -0.16651,-3.51118 -0.51562,-3.60938 -0.008,-0.002 -0.0159,-0.003 -0.0254,-0.002 z" /></svg>
