<?xml version="1.0" encoding="UTF-8" standalone="no"?>
<!-- Generator: Adobe Illustrator 15.0.0, SVG Export Plug-In . SVG Version: 6.00 Build 0)  -->

<svg
   version="1.1"
   x="0px"
   y="0px"
   width="53.880001mm"
   height="62.220619mm"
   viewBox="0 0 203.64095 235.16454"
   enable-background="new 0 0 231 207"
   xml:space="preserve"
   id="svg17"
   sodipodi:docname="octocard.svg"
   inkscape:version="1.4.2 (f4327f4, 2025-05-13)"
   xmlns:inkscape="http://www.inkscape.org/namespaces/inkscape"
   xmlns:sodipodi="http://sodipodi.sourceforge.net/DTD/sodipodi-0.dtd"
   xmlns:xlink="http://www.w3.org/1999/xlink"
   xmlns="http://www.w3.org/2000/svg"
   xmlns:svg="http://www.w3.org/2000/svg"><defs
   id="defs17"><inkscape:path-effect
   effect="powermask"
   id="path-effect14"
   is_visible="true"
   lpeversion="1"
   uri="#mask-powermask-path-effect14"
   invert="false"
   hide_mask="false"
   background="true"
   background_color="#ffffffff" /><inkscape:path-effect
   effect="powermask"
   id="path-effect11"
   is_visible="true"
   lpeversion="1"
   uri="#mask-powermask-path-effect11"
   invert="false"
   hide_mask="false"
   background="true"
   background_color="#ffffffff" />
	
	
	
	

	
	
		
	
		
	
		
	
		
	
	
	

		
			
		
			
		
			
		
			
		
			
		
			
		
			
		
			
		
			
	<filter
   id="mask-powermask-path-effect6_inverse"
   inkscape:label="filtermask-powermask-path-effect6"
   style="color-interpolation-filters:sRGB"
   height="100"
   width="100"
   x="-50"
   y="-50"><feColorMatrix
     id="mask-powermask-path-effect6_primitive1"
     values="1"
     type="saturate"
     result="fbSourceGraphic" /><feColorMatrix
     id="mask-powermask-path-effect6_primitive2"
     values="-1 0 0 0 1 0 -1 0 0 1 0 0 -1 0 1 0 0 0 1 0 "
     in="fbSourceGraphic" /></filter><filter
   id="mask-powermask-path-effect8_inverse"
   inkscape:label="filtermask-powermask-path-effect8"
   style="color-interpolation-filters:sRGB"
   height="100"
   width="100"
   x="-50"
   y="-50"><feColorMatrix
     id="mask-powermask-path-effect8_primitive1"
     values="1"
     type="saturate"
     result="fbSourceGraphic" /><feColorMatrix
     id="mask-powermask-path-effect8_primitive2"
     values="-1 0 0 0 1 0 -1 0 0 1 0 0 -1 0 1 0 0 0 1 0 "
     in="fbSourceGraphic" /></filter><filter
   id="mask-powermask-path-effect10_inverse"
   inkscape:label="filtermask-powermask-path-effect10"
   style="color-interpolation-filters:sRGB"
   height="100"
   width="100"
   x="-50"
   y="-50"><feColorMatrix
     id="mask-powermask-path-effect10_primitive1"
     values="1"
     type="saturate"
     result="fbSourceGraphic" /><feColorMatrix
     id="mask-powermask-path-effect10_primitive2"
     values="-1 0 0 0 1 0 -1 0 0 1 0 0 -1 0 1 0 0 0 1 0 "
     in="fbSourceGraphic" /></filter><mask
   maskUnits="userSpaceOnUse"
   id="mask-powermask-path-effect11"><g
     id="g11"
     style="font-size:16px;font-family:Arial;-inkscape-font-specification:Arial;letter-spacing:1.8px;fill:#000000;stroke-width:9.14646"
     aria-label="PIETRO GREGORIO&#10;SOFTWARE ENGINEER"
     transform="translate(602.99983,-457.41703)"><path
       style="font-weight:bold;font-family:Consolas;-inkscape-font-specification:'Consolas Bold';fill:#000000"
       d="m 20.596255,288.86008 q 0,0.79687 -0.265625,1.47656 -0.265625,0.67187 -0.789062,1.16406 -0.523438,0.49219 -1.304688,0.76563 -0.78125,0.27343 -1.8125,0.27343 h -0.976562 v 3.28125 h -1.9375 v -10.21093 h 2.992187 q 0.992188,0 1.75,0.21875 0.765625,0.21093 1.28125,0.625 0.523438,0.41406 0.789063,1.02343 0.273437,0.60157 0.273437,1.38282 z m -2.015625,0.13281 q 0,-0.40625 -0.132812,-0.73438 -0.125,-0.33593 -0.390625,-0.57031 -0.257813,-0.23437 -0.65625,-0.35937 -0.398438,-0.125 -0.945313,-0.125 h -1.007812 v 3.74218 h 1.070312 q 0.5,0 0.882813,-0.13281 0.382812,-0.14062 0.640625,-0.39844 0.265625,-0.25781 0.398437,-0.61718 0.140625,-0.35938 0.140625,-0.80469 z m 5.64375,-1.8125 v -1.57031 h 6.453125 v 1.57031 h -2.25 v 7.05469 h 2.25 v 1.58593 H 24.22438 v -1.58593 h 2.25 v -7.05469 z m 10.862501,8.64062 v -10.21093 h 6.148437 v 1.625 h -4.195312 v 2.53906 h 4 v 1.58594 h -4 v 2.83593 h 4.195312 v 1.625 z m 14.542186,-8.60937 v 8.60937 h -1.96875 v -8.60937 h -2.796875 v -1.60156 h 7.5625 v 1.60156 z m 11.370314,8.60937 -1.4375,-3.28125 q -0.203125,-0.46875 -0.570312,-0.70312 -0.359375,-0.24219 -0.851563,-0.24219 h -0.367187 v 4.22656 h -1.921875 v -10.21093 h 2.976562 q 0.84375,0 1.53125,0.14843 0.6875,0.14063 1.171875,0.47657 0.484375,0.33593 0.742188,0.875 0.265625,0.53906 0.265625,1.32031 0,0.5625 -0.164063,1 -0.164062,0.4375 -0.460937,0.75781 -0.296875,0.3125 -0.710938,0.50781 -0.40625,0.19532 -0.890625,0.27344 0.375,0.0781 0.6875,0.42969 0.3125,0.34375 0.625,1 l 1.632813,3.42187 z m -0.476562,-7.20312 q 0,-0.75 -0.476563,-1.07813 -0.476562,-0.32812 -1.429687,-0.32812 h -0.84375 v 2.88281 h 0.78125 q 0.445312,0 0.804687,-0.0937 0.367188,-0.0937 0.625,-0.28125 0.257813,-0.1875 0.398438,-0.46094 0.140625,-0.28125 0.140625,-0.64062 z m 13.424999,2.05469 q 0,1.39062 -0.328125,2.39843 -0.320313,1.00782 -0.890625,1.65625 -0.5625,0.64844 -1.328125,0.96094 -0.757813,0.3125 -1.625,0.3125 -2.015625,0 -3.03125,-1.33594 -1.015625,-1.34375 -1.015625,-3.89843 0,-1.39063 0.320312,-2.39844 0.328125,-1.00781 0.890625,-1.65625 0.570313,-0.64844 1.328125,-0.96094 0.765625,-0.3125 1.632813,-0.3125 2.015625,0 3.03125,1.33594 1.015625,1.33594 1.015625,3.89844 z m -2.03125,0.0937 q 0,-1.8125 -0.484375,-2.70313 -0.484375,-0.89062 -1.59375,-0.89062 -0.554688,0 -0.945313,0.23437 -0.390625,0.22656 -0.648437,0.67188 -0.25,0.44531 -0.367188,1.10156 -0.117187,0.64844 -0.117187,1.49219 0,1.8125 0.484375,2.70312 0.492187,0.89063 1.59375,0.89063 0.554687,0 0.945312,-0.22657 0.398438,-0.23437 0.648438,-0.67968 0.25,-0.44532 0.367187,-1.09375 0.117188,-0.65625 0.117188,-1.5 z m 19.162498,0.73437 v -1.58594 h 3.632813 v 5.44532 q -0.703125,0.32812 -1.46875,0.48437 -0.765625,0.15625 -1.664063,0.15625 -1.0625,0 -1.914062,-0.32812 -0.84375,-0.32813 -1.4375,-0.97657 -0.59375,-0.64843 -0.914063,-1.60937 -0.3125,-0.96094 -0.3125,-2.22656 0,-1.27344 0.328125,-2.28125 0.335938,-1.00782 0.96875,-1.70313 0.640625,-0.70312 1.5625,-1.07031 0.929688,-0.36719 2.117188,-0.36719 0.703125,0 1.367187,0.125 0.671875,0.11719 1.335938,0.32031 v 1.89844 q -0.578125,-0.27344 -1.28125,-0.44531 -0.695313,-0.17969 -1.40625,-0.17969 -0.71875,0 -1.273438,0.25 -0.546875,0.25 -0.921875,0.71094 -0.367187,0.46094 -0.5625,1.13281 -0.1875,0.67188 -0.1875,1.51563 0,0.8125 0.148438,1.46875 0.148437,0.64843 0.476562,1.10937 0.335938,0.45313 0.859375,0.69531 0.523438,0.24219 1.273438,0.24219 0.179687,0 0.3125,-0.008 0.132812,-0.0156 0.25,-0.0391 0.117187,-0.0234 0.21875,-0.0547 0.109375,-0.0312 0.226562,-0.0703 v -2.60938 z m 12.307814,4.32031 -1.4375,-3.28125 q -0.20312,-0.46875 -0.57031,-0.70312 -0.35938,-0.24219 -0.85156,-0.24219 h -0.36719 v 4.22656 h -1.921876 v -10.21093 h 2.976566 q 0.84375,0 1.53125,0.14843 0.6875,0.14063 1.17187,0.47657 0.48438,0.33593 0.74219,0.875 0.26562,0.53906 0.26562,1.32031 0,0.5625 -0.16406,1 -0.16406,0.4375 -0.46094,0.75781 -0.29687,0.3125 -0.71093,0.50781 -0.40625,0.19532 -0.89063,0.27344 0.375,0.0781 0.6875,0.42969 0.3125,0.34375 0.625,1 l 1.63281,3.42187 z m -0.47656,-7.20312 q 0,-0.75 -0.47656,-1.07813 -0.47657,-0.32812 -1.42969,-0.32812 h -0.84375 v 2.88281 h 0.78125 q 0.44531,0 0.80469,-0.0937 0.36718,-0.0937 0.625,-0.28125 0.25781,-0.1875 0.39843,-0.46094 0.14063,-0.28125 0.14063,-0.64062 z m 6.35468,7.20312 v -10.21093 h 6.14844 v 1.625 h -4.19531 v 2.53906 h 4 v 1.58594 h -4 v 2.83593 h 4.19531 v 1.625 z m 13.60469,-4.32031 v -1.58594 h 3.63282 v 5.44532 q -0.70313,0.32812 -1.46875,0.48437 -0.76563,0.15625 -1.66407,0.15625 -1.0625,0 -1.91406,-0.32812 -0.84375,-0.32813 -1.4375,-0.97657 -0.59375,-0.64843 -0.91406,-1.60937 -0.3125,-0.96094 -0.3125,-2.22656 0,-1.27344 0.32812,-2.28125 0.33594,-1.00782 0.96875,-1.70313 0.64063,-0.70312 1.5625,-1.07031 0.92969,-0.36719 2.11719,-0.36719 0.70313,0 1.36719,0.125 0.67187,0.11719 1.33594,0.32031 v 1.89844 q -0.57813,-0.27344 -1.28125,-0.44531 -0.69532,-0.17969 -1.40625,-0.17969 -0.71875,0 -1.27344,0.25 -0.54688,0.25 -0.92188,0.71094 -0.36718,0.46094 -0.5625,1.13281 -0.1875,0.67188 -0.1875,1.51563 0,0.8125 0.14844,1.46875 0.14844,0.64843 0.47656,1.10937 0.33594,0.45313 0.85938,0.69531 0.52344,0.24219 1.27344,0.24219 0.17968,0 0.3125,-0.008 0.13281,-0.0156 0.25,-0.0391 0.11718,-0.0234 0.21875,-0.0547 0.10937,-0.0312 0.22656,-0.0703 v -2.60938 z m 14.65938,-0.82812 q 0,1.39062 -0.32812,2.39843 -0.32032,1.00782 -0.89063,1.65625 -0.5625,0.64844 -1.32812,0.96094 -0.75782,0.3125 -1.625,0.3125 -2.01563,0 -3.03125,-1.33594 -1.01563,-1.34375 -1.01563,-3.89843 0,-1.39063 0.32031,-2.39844 0.32813,-1.00781 0.89063,-1.65625 0.57031,-0.64844 1.32812,-0.96094 0.76563,-0.3125 1.63282,-0.3125 2.01562,0 3.03125,1.33594 1.01562,1.33594 1.01562,3.89844 z m -2.03125,0.0937 q 0,-1.8125 -0.48437,-2.70313 -0.48438,-0.89062 -1.59375,-0.89062 -0.55469,0 -0.94532,0.23437 -0.39062,0.22656 -0.64843,0.67188 -0.25,0.44531 -0.36719,1.10156 -0.11719,0.64844 -0.11719,1.49219 0,1.8125 0.48438,2.70312 0.49218,0.89063 1.59375,0.89063 0.55468,0 0.94531,-0.22657 0.39844,-0.23437 0.64844,-0.67968 0.25,-0.44532 0.36718,-1.09375 0.11719,-0.65625 0.11719,-1.5 z m 10.27656,5.05468 -1.4375,-3.28125 q -0.20313,-0.46875 -0.57031,-0.70312 -0.35938,-0.24219 -0.85157,-0.24219 h -0.36718 v 4.22656 h -1.92188 v -10.21093 h 2.97656 q 0.84375,0 1.53125,0.14843 0.6875,0.14063 1.17188,0.47657 0.48437,0.33593 0.74219,0.875 0.26562,0.53906 0.26562,1.32031 0,0.5625 -0.16406,1 -0.16406,0.4375 -0.46094,0.75781 -0.29687,0.3125 -0.71094,0.50781 -0.40625,0.19532 -0.89062,0.27344 0.375,0.0781 0.6875,0.42969 0.3125,0.34375 0.625,1 l 1.63281,3.42187 z m -0.47656,-7.20312 q 0,-0.75 -0.47657,-1.07813 -0.47656,-0.32812 -1.42968,-0.32812 h -0.84375 v 2.88281 h 0.78125 q 0.44531,0 0.80468,-0.0937 0.36719,-0.0937 0.625,-0.28125 0.25782,-0.1875 0.39844,-0.46094 0.14063,-0.28125 0.14063,-0.64062 z m 6.08905,-1.4375 v -1.57031 H 157.84 v 1.57031 h -2.25 v 7.05469 h 2.25 v 1.58593 h -6.45313 v -1.58593 h 2.25 v -7.05469 z m 17.93282,3.49219 q 0,1.39062 -0.32813,2.39843 -0.32031,1.00782 -0.89062,1.65625 -0.5625,0.64844 -1.32813,0.96094 -0.75781,0.3125 -1.625,0.3125 -2.01562,0 -3.03125,-1.33594 -1.01562,-1.34375 -1.01562,-3.89843 0,-1.39063 0.32031,-2.39844 0.32813,-1.00781 0.89063,-1.65625 0.57031,-0.64844 1.32812,-0.96094 0.76563,-0.3125 1.63281,-0.3125 2.01563,0 3.03125,1.33594 1.01563,1.33594 1.01563,3.89844 z m -2.03125,0.0937 q 0,-1.8125 -0.48438,-2.70313 -0.48437,-0.89062 -1.59375,-0.89062 -0.55468,0 -0.94531,0.23437 -0.39062,0.22656 -0.64844,0.67188 -0.25,0.44531 -0.36718,1.10156 -0.11719,0.64844 -0.11719,1.49219 0,1.8125 0.48437,2.70312 0.49219,0.89063 1.59375,0.89063 0.55469,0 0.94532,-0.22657 0.39843,-0.23437 0.64843,-0.67968 0.25,-0.44532 0.36719,-1.09375 0.11719,-0.65625 0.11719,-1.5 z"
       id="path10" /><path
       style="font-weight:bold;font-family:Consolas;-inkscape-font-specification:'Consolas Bold';fill:#000000"
       d="m 20.42438,313.26434 q 0,0.83593 -0.3125,1.45312 -0.304687,0.61719 -0.859375,1.02344 -0.554687,0.39844 -1.320312,0.59375 -0.765625,0.19531 -1.671875,0.19531 -0.804688,0 -1.554688,-0.0937 -0.75,-0.0937 -1.484375,-0.3125 v -1.89844 q 0.359375,0.125 0.75,0.23438 0.390625,0.10937 0.78125,0.19531 0.398438,0.0781 0.789063,0.125 0.390625,0.0469 0.757812,0.0469 0.546875,0 0.929688,-0.0937 0.382812,-0.0937 0.625,-0.25782 0.242187,-0.16406 0.351562,-0.39062 0.109375,-0.22656 0.109375,-0.5 0,-0.375 -0.21875,-0.625 -0.210937,-0.25781 -0.5625,-0.45313 -0.351562,-0.19531 -0.804687,-0.35156 -0.445313,-0.15625 -0.914063,-0.33594 -0.460937,-0.17968 -0.914062,-0.40625 -0.445313,-0.22656 -0.796875,-0.5625 -0.351563,-0.33593 -0.570313,-0.79687 -0.210937,-0.46875 -0.210937,-1.125 0,-0.60156 0.21875,-1.14063 0.21875,-0.53906 0.6875,-0.9375 0.46875,-0.40625 1.203125,-0.64062 0.734375,-0.24219 1.773437,-0.24219 0.304688,0 0.632813,0.0312 0.335937,0.0234 0.65625,0.0703 0.328125,0.0391 0.625,0.10157 0.304687,0.0547 0.554687,0.11718 v 1.75782 q -0.25,-0.0937 -0.546875,-0.17188 -0.296875,-0.0781 -0.617187,-0.13281 -0.3125,-0.0625 -0.632813,-0.0937 -0.320312,-0.0312 -0.609375,-0.0312 -0.507812,0 -0.859375,0.0859 -0.351562,0.0781 -0.578125,0.22656 -0.226562,0.14062 -0.328125,0.35156 -0.101562,0.21094 -0.101562,0.46875 0,0.32031 0.210937,0.55469 0.21875,0.22656 0.570313,0.41406 0.359375,0.17969 0.804687,0.34375 0.453125,0.15625 0.921875,0.34375 0.476563,0.17969 0.921875,0.41406 0.453125,0.23438 0.804688,0.57032 0.359375,0.33593 0.570312,0.79687 0.21875,0.45313 0.21875,1.07813 z m 11.135938,-2.0625 q 0,1.39062 -0.328125,2.39843 -0.320313,1.00782 -0.890625,1.65625 -0.5625,0.64844 -1.328125,0.96094 -0.757813,0.3125 -1.625,0.3125 -2.015625,0 -3.03125,-1.33594 -1.015625,-1.34375 -1.015625,-3.89843 0,-1.39063 0.320312,-2.39844 0.328125,-1.00781 0.890625,-1.65625 0.570313,-0.64844 1.328125,-0.96094 0.765625,-0.3125 1.632813,-0.3125 2.015625,0 3.03125,1.33594 1.015625,1.33594 1.015625,3.89844 z m -2.03125,0.0937 q 0,-1.8125 -0.484375,-2.70313 -0.484375,-0.89062 -1.59375,-0.89062 -0.554688,0 -0.945313,0.23437 -0.390625,0.22656 -0.648437,0.67188 -0.25,0.44531 -0.367188,1.10156 -0.117187,0.64844 -0.117187,1.49219 0,1.8125 0.484375,2.70312 0.492187,0.89063 1.59375,0.89063 0.554687,0 0.945312,-0.22657 0.398438,-0.23437 0.648438,-0.67968 0.25,-0.44532 0.367187,-1.09375 0.117188,-0.65625 0.117188,-1.5 z m 7.510938,-3.53125 v 2.82812 h 3.859375 v 1.57813 h -3.859375 v 4.17968 h -1.953125 v -10.21093 h 6.03125 v 1.625 z m 12.589061,-0.0234 v 8.60937 h -1.96875 v -8.60937 h -2.796875 v -1.60156 h 7.5625 v 1.60156 z m 13.182814,8.60937 h -2.257812 l -1.007813,-3.14843 -0.367187,-1.28125 -0.351563,1.3125 -0.992187,3.11718 h -2.164063 l -0.570312,-10.21093 h 1.695312 l 0.242188,6.54687 0.0625,1.78906 0.460937,-1.59375 1.125,-3.63281 h 1.210938 l 1.1875,3.85156 0.382812,1.35938 0.03125,-1.59375 0.257813,-6.72656 h 1.632812 z m 9.268749,0 -0.5625,-2.01562 h -3.5625 l -0.578125,2.01562 h -1.90625 l 3.023438,-10.21093 h 2.6875 l 3.023437,10.21093 z m -2.320312,-8.33593 -1.34375,4.75 h 2.671875 z m 12.432812,8.33593 -1.4375,-3.28125 q -0.203125,-0.46875 -0.570313,-0.70312 -0.359375,-0.24219 -0.851562,-0.24219 h -0.367188 v 4.22656 h -1.921875 v -10.21093 h 2.976563 q 0.84375,0 1.53125,0.14843 0.6875,0.14063 1.171875,0.47657 0.484375,0.33593 0.742187,0.875 0.265625,0.53906 0.265625,1.32031 0,0.5625 -0.164062,1 -0.164063,0.4375 -0.460938,0.75781 -0.296875,0.3125 -0.710937,0.50781 -0.40625,0.19532 -0.890625,0.27344 0.375,0.0781 0.6875,0.42969 0.3125,0.34375 0.625,1 l 1.632812,3.42187 z m -0.476563,-7.20312 q 0,-0.75 -0.476562,-1.07813 -0.476563,-0.32812 -1.429688,-0.32812 h -0.84375 v 2.88281 h 0.78125 q 0.445313,0 0.804688,-0.0937 0.367187,-0.0937 0.625,-0.28125 0.257812,-0.1875 0.398437,-0.46094 0.140625,-0.28125 0.140625,-0.64062 z m 6.354687,7.20312 v -10.21093 h 6.148437 v 1.625 h -4.195312 v 2.53906 h 4 v 1.58594 h -4 v 2.83593 h 4.195312 v 1.625 z m 21.193746,0 v -10.21093 h 6.14844 v 1.625 h -4.19531 v 2.53906 h 4 v 1.58594 h -4 v 2.83593 h 4.19531 v 1.625 z m 14.94063,0 -2.73437,-6.09375 -0.5625,-1.3125 v 4.23438 3.17187 h -1.75 v -10.21093 h 2.35937 l 2.78906,6.13281 0.49219,1.19531 v -4.50781 -2.82031 h 1.75 v 10.21093 z m 9.26094,-4.32031 v -1.58594 h 3.63281 v 5.44532 q -0.70312,0.32812 -1.46875,0.48437 -0.76562,0.15625 -1.66406,0.15625 -1.0625,0 -1.91406,-0.32812 -0.84375,-0.32813 -1.4375,-0.97657 -0.59375,-0.64843 -0.91406,-1.60937 -0.3125,-0.96094 -0.3125,-2.22656 0,-1.27344 0.32812,-2.28125 0.33594,-1.00782 0.96875,-1.70313 0.64063,-0.70312 1.5625,-1.07031 0.92969,-0.36719 2.11719,-0.36719 0.70312,0 1.36719,0.125 0.67187,0.11719 1.33593,0.32031 v 1.89844 q -0.57812,-0.27344 -1.28125,-0.44531 -0.69531,-0.17969 -1.40625,-0.17969 -0.71875,0 -1.27343,0.25 -0.54688,0.25 -0.92188,0.71094 -0.36719,0.46094 -0.5625,1.13281 -0.1875,0.67188 -0.1875,1.51563 0,0.8125 0.14844,1.46875 0.14844,0.64843 0.47656,1.10937 0.33594,0.45313 0.85938,0.69531 0.52343,0.24219 1.27343,0.24219 0.17969,0 0.3125,-0.008 0.13282,-0.0156 0.25,-0.0391 0.11719,-0.0234 0.21875,-0.0547 0.10938,-0.0312 0.22657,-0.0703 v -2.60938 z m 7.32343,-4.32031 v -1.57031 h 6.45313 v 1.57031 h -2.25 v 7.05469 h 2.25 v 1.58593 H 140.79 v -1.58593 h 2.25 v -7.05469 z m 15.20625,8.64062 -2.73438,-6.09375 -0.5625,-1.3125 v 4.23438 3.17187 h -1.75 v -10.21093 h 2.35938 l 2.78906,6.13281 0.49219,1.19531 v -4.50781 -2.82031 h 1.75 v 10.21093 z m 6.25313,0 v -10.21093 h 6.14843 v 1.625 h -4.19531 v 2.53906 h 4 v 1.58594 h -4 v 2.83593 h 4.19531 v 1.625 z m 10.59688,0 v -10.21093 h 6.14843 v 1.625 h -4.19531 v 2.53906 h 4 v 1.58594 h -4 v 2.83593 h 4.19531 v 1.625 z m 15.31562,0 -1.4375,-3.28125 q -0.20312,-0.46875 -0.57031,-0.70312 -0.35937,-0.24219 -0.85156,-0.24219 h -0.36719 v 4.22656 h -1.92187 v -10.21093 h 2.97656 q 0.84375,0 1.53125,0.14843 0.6875,0.14063 1.17187,0.47657 0.48438,0.33593 0.74219,0.875 0.26563,0.53906 0.26563,1.32031 0,0.5625 -0.16407,1 -0.16406,0.4375 -0.46093,0.75781 -0.29688,0.3125 -0.71094,0.50781 -0.40625,0.19532 -0.89063,0.27344 0.375,0.0781 0.6875,0.42969 0.3125,0.34375 0.625,1 l 1.63282,3.42187 z m -0.47656,-7.20312 q 0,-0.75 -0.47656,-1.07813 -0.47656,-0.32812 -1.42969,-0.32812 h -0.84375 v 2.88281 h 0.78125 q 0.44531,0 0.80469,-0.0937 0.36719,-0.0937 0.625,-0.28125 0.25781,-0.1875 0.39844,-0.46094 0.14062,-0.28125 0.14062,-0.64062 z"
       id="path11" /></g></mask><filter
   id="mask-powermask-path-effect13_inverse"
   inkscape:label="filtermask-powermask-path-effect13"
   style="color-interpolation-filters:sRGB"
   height="100"
   width="100"
   x="-50"
   y="-50"><feColorMatrix
     id="mask-powermask-path-effect13_primitive1"
     values="1"
     type="saturate"
     result="fbSourceGraphic" /><feColorMatrix
     id="mask-powermask-path-effect13_primitive2"
     values="-1 0 0 0 1 0 -1 0 0 1 0 0 -1 0 1 0 0 0 1 0 "
     in="fbSourceGraphic" /></filter><mask
   maskUnits="userSpaceOnUse"
   id="mask-powermask-path-effect14"><g
     id="g14"
     style="font-size:16px;font-family:Arial;-inkscape-font-specification:Arial;letter-spacing:1.8px;fill:#1a1a1a;stroke-width:9.14646"
     aria-label="PIETRO GREGORIO&#10;SOFTWARE ENGINEER"
     transform="translate(404.41916,-337.25575)"><path
       style="font-weight:bold;font-family:Consolas;-inkscape-font-specification:'Consolas Bold';fill:#1a1a1a"
       d="m 20.596255,288.86008 q 0,0.79687 -0.265625,1.47656 -0.265625,0.67187 -0.789062,1.16406 -0.523438,0.49219 -1.304688,0.76563 -0.78125,0.27343 -1.8125,0.27343 h -0.976562 v 3.28125 h -1.9375 v -10.21093 h 2.992187 q 0.992188,0 1.75,0.21875 0.765625,0.21093 1.28125,0.625 0.523438,0.41406 0.789063,1.02343 0.273437,0.60157 0.273437,1.38282 z m -2.015625,0.13281 q 0,-0.40625 -0.132812,-0.73438 -0.125,-0.33593 -0.390625,-0.57031 -0.257813,-0.23437 -0.65625,-0.35937 -0.398438,-0.125 -0.945313,-0.125 h -1.007812 v 3.74218 h 1.070312 q 0.5,0 0.882813,-0.13281 0.382812,-0.14062 0.640625,-0.39844 0.265625,-0.25781 0.398437,-0.61718 0.140625,-0.35938 0.140625,-0.80469 z m 5.64375,-1.8125 v -1.57031 h 6.453125 v 1.57031 h -2.25 v 7.05469 h 2.25 v 1.58593 H 24.22438 v -1.58593 h 2.25 v -7.05469 z m 10.862501,8.64062 v -10.21093 h 6.148437 v 1.625 h -4.195312 v 2.53906 h 4 v 1.58594 h -4 v 2.83593 h 4.195312 v 1.625 z m 14.542186,-8.60937 v 8.60937 h -1.96875 v -8.60937 h -2.796875 v -1.60156 h 7.5625 v 1.60156 z m 11.370314,8.60937 -1.4375,-3.28125 q -0.203125,-0.46875 -0.570312,-0.70312 -0.359375,-0.24219 -0.851563,-0.24219 h -0.367187 v 4.22656 h -1.921875 v -10.21093 h 2.976562 q 0.84375,0 1.53125,0.14843 0.6875,0.14063 1.171875,0.47657 0.484375,0.33593 0.742188,0.875 0.265625,0.53906 0.265625,1.32031 0,0.5625 -0.164063,1 -0.164062,0.4375 -0.460937,0.75781 -0.296875,0.3125 -0.710938,0.50781 -0.40625,0.19532 -0.890625,0.27344 0.375,0.0781 0.6875,0.42969 0.3125,0.34375 0.625,1 l 1.632813,3.42187 z m -0.476562,-7.20312 q 0,-0.75 -0.476563,-1.07813 -0.476562,-0.32812 -1.429687,-0.32812 h -0.84375 v 2.88281 h 0.78125 q 0.445312,0 0.804687,-0.0937 0.367188,-0.0937 0.625,-0.28125 0.257813,-0.1875 0.398438,-0.46094 0.140625,-0.28125 0.140625,-0.64062 z m 13.424999,2.05469 q 0,1.39062 -0.328125,2.39843 -0.320313,1.00782 -0.890625,1.65625 -0.5625,0.64844 -1.328125,0.96094 -0.757813,0.3125 -1.625,0.3125 -2.015625,0 -3.03125,-1.33594 -1.015625,-1.34375 -1.015625,-3.89843 0,-1.39063 0.320312,-2.39844 0.328125,-1.00781 0.890625,-1.65625 0.570313,-0.64844 1.328125,-0.96094 0.765625,-0.3125 1.632813,-0.3125 2.015625,0 3.03125,1.33594 1.015625,1.33594 1.015625,3.89844 z m -2.03125,0.0937 q 0,-1.8125 -0.484375,-2.70313 -0.484375,-0.89062 -1.59375,-0.89062 -0.554688,0 -0.945313,0.23437 -0.390625,0.22656 -0.648437,0.67188 -0.25,0.44531 -0.367188,1.10156 -0.117187,0.64844 -0.117187,1.49219 0,1.8125 0.484375,2.70312 0.492187,0.89063 1.59375,0.89063 0.554687,0 0.945312,-0.22657 0.398438,-0.23437 0.648438,-0.67968 0.25,-0.44532 0.367187,-1.09375 0.117188,-0.65625 0.117188,-1.5 z m 19.162498,0.73437 v -1.58594 h 3.632813 v 5.44532 q -0.703125,0.32812 -1.46875,0.48437 -0.765625,0.15625 -1.664063,0.15625 -1.0625,0 -1.914062,-0.32812 -0.84375,-0.32813 -1.4375,-0.97657 -0.59375,-0.64843 -0.914063,-1.60937 -0.3125,-0.96094 -0.3125,-2.22656 0,-1.27344 0.328125,-2.28125 0.335938,-1.00782 0.96875,-1.70313 0.640625,-0.70312 1.5625,-1.07031 0.929688,-0.36719 2.117188,-0.36719 0.703125,0 1.367187,0.125 0.671875,0.11719 1.335938,0.32031 v 1.89844 q -0.578125,-0.27344 -1.28125,-0.44531 -0.695313,-0.17969 -1.40625,-0.17969 -0.71875,0 -1.273438,0.25 -0.546875,0.25 -0.921875,0.71094 -0.367187,0.46094 -0.5625,1.13281 -0.1875,0.67188 -0.1875,1.51563 0,0.8125 0.148438,1.46875 0.148437,0.64843 0.476562,1.10937 0.335938,0.45313 0.859375,0.69531 0.523438,0.24219 1.273438,0.24219 0.179687,0 0.3125,-0.008 0.132812,-0.0156 0.25,-0.0391 0.117187,-0.0234 0.21875,-0.0547 0.109375,-0.0312 0.226562,-0.0703 v -2.60938 z m 12.307814,4.32031 -1.4375,-3.28125 q -0.20312,-0.46875 -0.57031,-0.70312 -0.35938,-0.24219 -0.85156,-0.24219 h -0.36719 v 4.22656 h -1.921876 v -10.21093 h 2.976566 q 0.84375,0 1.53125,0.14843 0.6875,0.14063 1.17187,0.47657 0.48438,0.33593 0.74219,0.875 0.26562,0.53906 0.26562,1.32031 0,0.5625 -0.16406,1 -0.16406,0.4375 -0.46094,0.75781 -0.29687,0.3125 -0.71093,0.50781 -0.40625,0.19532 -0.89063,0.27344 0.375,0.0781 0.6875,0.42969 0.3125,0.34375 0.625,1 l 1.63281,3.42187 z m -0.47656,-7.20312 q 0,-0.75 -0.47656,-1.07813 -0.47657,-0.32812 -1.42969,-0.32812 h -0.84375 v 2.88281 h 0.78125 q 0.44531,0 0.80469,-0.0937 0.36718,-0.0937 0.625,-0.28125 0.25781,-0.1875 0.39843,-0.46094 0.14063,-0.28125 0.14063,-0.64062 z m 6.35468,7.20312 v -10.21093 h 6.14844 v 1.625 h -4.19531 v 2.53906 h 4 v 1.58594 h -4 v 2.83593 h 4.19531 v 1.625 z m 13.60469,-4.32031 v -1.58594 h 3.63282 v 5.44532 q -0.70313,0.32812 -1.46875,0.48437 -0.76563,0.15625 -1.66407,0.15625 -1.0625,0 -1.91406,-0.32812 -0.84375,-0.32813 -1.4375,-0.97657 -0.59375,-0.64843 -0.91406,-1.60937 -0.3125,-0.96094 -0.3125,-2.22656 0,-1.27344 0.32812,-2.28125 0.33594,-1.00782 0.96875,-1.70313 0.64063,-0.70312 1.5625,-1.07031 0.92969,-0.36719 2.11719,-0.36719 0.70313,0 1.36719,0.125 0.67187,0.11719 1.33594,0.32031 v 1.89844 q -0.57813,-0.27344 -1.28125,-0.44531 -0.69532,-0.17969 -1.40625,-0.17969 -0.71875,0 -1.27344,0.25 -0.54688,0.25 -0.92188,0.71094 -0.36718,0.46094 -0.5625,1.13281 -0.1875,0.67188 -0.1875,1.51563 0,0.8125 0.14844,1.46875 0.14844,0.64843 0.47656,1.10937 0.33594,0.45313 0.85938,0.69531 0.52344,0.24219 1.27344,0.24219 0.17968,0 0.3125,-0.008 0.13281,-0.0156 0.25,-0.0391 0.11718,-0.0234 0.21875,-0.0547 0.10937,-0.0312 0.22656,-0.0703 v -2.60938 z m 14.65938,-0.82812 q 0,1.39062 -0.32812,2.39843 -0.32032,1.00782 -0.89063,1.65625 -0.5625,0.64844 -1.32812,0.96094 -0.75782,0.3125 -1.625,0.3125 -2.01563,0 -3.03125,-1.33594 -1.01563,-1.34375 -1.01563,-3.89843 0,-1.39063 0.32031,-2.39844 0.32813,-1.00781 0.89063,-1.65625 0.57031,-0.64844 1.32812,-0.96094 0.76563,-0.3125 1.63282,-0.3125 2.01562,0 3.03125,1.33594 1.01562,1.33594 1.01562,3.89844 z m -2.03125,0.0937 q 0,-1.8125 -0.48437,-2.70313 -0.48438,-0.89062 -1.59375,-0.89062 -0.55469,0 -0.94532,0.23437 -0.39062,0.22656 -0.64843,0.67188 -0.25,0.44531 -0.36719,1.10156 -0.11719,0.64844 -0.11719,1.49219 0,1.8125 0.48438,2.70312 0.49218,0.89063 1.59375,0.89063 0.55468,0 0.94531,-0.22657 0.39844,-0.23437 0.64844,-0.67968 0.25,-0.44532 0.36718,-1.09375 0.11719,-0.65625 0.11719,-1.5 z m 10.27656,5.05468 -1.4375,-3.28125 q -0.20313,-0.46875 -0.57031,-0.70312 -0.35938,-0.24219 -0.85157,-0.24219 h -0.36718 v 4.22656 h -1.92188 v -10.21093 h 2.97656 q 0.84375,0 1.53125,0.14843 0.6875,0.14063 1.17188,0.47657 0.48437,0.33593 0.74219,0.875 0.26562,0.53906 0.26562,1.32031 0,0.5625 -0.16406,1 -0.16406,0.4375 -0.46094,0.75781 -0.29687,0.3125 -0.71094,0.50781 -0.40625,0.19532 -0.89062,0.27344 0.375,0.0781 0.6875,0.42969 0.3125,0.34375 0.625,1 l 1.63281,3.42187 z m -0.47656,-7.20312 q 0,-0.75 -0.47657,-1.07813 -0.47656,-0.32812 -1.42968,-0.32812 h -0.84375 v 2.88281 h 0.78125 q 0.44531,0 0.80468,-0.0937 0.36719,-0.0937 0.625,-0.28125 0.25782,-0.1875 0.39844,-0.46094 0.14063,-0.28125 0.14063,-0.64062 z m 6.08905,-1.4375 v -1.57031 H 157.84 v 1.57031 h -2.25 v 7.05469 h 2.25 v 1.58593 h -6.45313 v -1.58593 h 2.25 v -7.05469 z m 17.93282,3.49219 q 0,1.39062 -0.32813,2.39843 -0.32031,1.00782 -0.89062,1.65625 -0.5625,0.64844 -1.32813,0.96094 -0.75781,0.3125 -1.625,0.3125 -2.01562,0 -3.03125,-1.33594 -1.01562,-1.34375 -1.01562,-3.89843 0,-1.39063 0.32031,-2.39844 0.32813,-1.00781 0.89063,-1.65625 0.57031,-0.64844 1.32812,-0.96094 0.76563,-0.3125 1.63281,-0.3125 2.01563,0 3.03125,1.33594 1.01563,1.33594 1.01563,3.89844 z m -2.03125,0.0937 q 0,-1.8125 -0.48438,-2.70313 -0.48437,-0.89062 -1.59375,-0.89062 -0.55468,0 -0.94531,0.23437 -0.39062,0.22656 -0.64844,0.67188 -0.25,0.44531 -0.36718,1.10156 -0.11719,0.64844 -0.11719,1.49219 0,1.8125 0.48437,2.70312 0.49219,0.89063 1.59375,0.89063 0.55469,0 0.94532,-0.22657 0.39843,-0.23437 0.64843,-0.67968 0.25,-0.44532 0.36719,-1.09375 0.11719,-0.65625 0.11719,-1.5 z"
       id="path13" /><path
       style="font-weight:bold;font-family:Consolas;-inkscape-font-specification:'Consolas Bold';fill:#1a1a1a"
       d="m 20.42438,313.26434 q 0,0.83593 -0.3125,1.45312 -0.304687,0.61719 -0.859375,1.02344 -0.554687,0.39844 -1.320312,0.59375 -0.765625,0.19531 -1.671875,0.19531 -0.804688,0 -1.554688,-0.0937 -0.75,-0.0937 -1.484375,-0.3125 v -1.89844 q 0.359375,0.125 0.75,0.23438 0.390625,0.10937 0.78125,0.19531 0.398438,0.0781 0.789063,0.125 0.390625,0.0469 0.757812,0.0469 0.546875,0 0.929688,-0.0937 0.382812,-0.0937 0.625,-0.25782 0.242187,-0.16406 0.351562,-0.39062 0.109375,-0.22656 0.109375,-0.5 0,-0.375 -0.21875,-0.625 -0.210937,-0.25781 -0.5625,-0.45313 -0.351562,-0.19531 -0.804687,-0.35156 -0.445313,-0.15625 -0.914063,-0.33594 -0.460937,-0.17968 -0.914062,-0.40625 -0.445313,-0.22656 -0.796875,-0.5625 -0.351563,-0.33593 -0.570313,-0.79687 -0.210937,-0.46875 -0.210937,-1.125 0,-0.60156 0.21875,-1.14063 0.21875,-0.53906 0.6875,-0.9375 0.46875,-0.40625 1.203125,-0.64062 0.734375,-0.24219 1.773437,-0.24219 0.304688,0 0.632813,0.0312 0.335937,0.0234 0.65625,0.0703 0.328125,0.0391 0.625,0.10157 0.304687,0.0547 0.554687,0.11718 v 1.75782 q -0.25,-0.0937 -0.546875,-0.17188 -0.296875,-0.0781 -0.617187,-0.13281 -0.3125,-0.0625 -0.632813,-0.0937 -0.320312,-0.0312 -0.609375,-0.0312 -0.507812,0 -0.859375,0.0859 -0.351562,0.0781 -0.578125,0.22656 -0.226562,0.14062 -0.328125,0.35156 -0.101562,0.21094 -0.101562,0.46875 0,0.32031 0.210937,0.55469 0.21875,0.22656 0.570313,0.41406 0.359375,0.17969 0.804687,0.34375 0.453125,0.15625 0.921875,0.34375 0.476563,0.17969 0.921875,0.41406 0.453125,0.23438 0.804688,0.57032 0.359375,0.33593 0.570312,0.79687 0.21875,0.45313 0.21875,1.07813 z m 11.135938,-2.0625 q 0,1.39062 -0.328125,2.39843 -0.320313,1.00782 -0.890625,1.65625 -0.5625,0.64844 -1.328125,0.96094 -0.757813,0.3125 -1.625,0.3125 -2.015625,0 -3.03125,-1.33594 -1.015625,-1.34375 -1.015625,-3.89843 0,-1.39063 0.320312,-2.39844 0.328125,-1.00781 0.890625,-1.65625 0.570313,-0.64844 1.328125,-0.96094 0.765625,-0.3125 1.632813,-0.3125 2.015625,0 3.03125,1.33594 1.015625,1.33594 1.015625,3.89844 z m -2.03125,0.0937 q 0,-1.8125 -0.484375,-2.70313 -0.484375,-0.89062 -1.59375,-0.89062 -0.554688,0 -0.945313,0.23437 -0.390625,0.22656 -0.648437,0.67188 -0.25,0.44531 -0.367188,1.10156 -0.117187,0.64844 -0.117187,1.49219 0,1.8125 0.484375,2.70312 0.492187,0.89063 1.59375,0.89063 0.554687,0 0.945312,-0.22657 0.398438,-0.23437 0.648438,-0.67968 0.25,-0.44532 0.367187,-1.09375 0.117188,-0.65625 0.117188,-1.5 z m 7.510938,-3.53125 v 2.82812 h 3.859375 v 1.57813 h -3.859375 v 4.17968 h -1.953125 v -10.21093 h 6.03125 v 1.625 z m 12.589061,-0.0234 v 8.60937 h -1.96875 v -8.60937 h -2.796875 v -1.60156 h 7.5625 v 1.60156 z m 13.182814,8.60937 h -2.257812 l -1.007813,-3.14843 -0.367187,-1.28125 -0.351563,1.3125 -0.992187,3.11718 h -2.164063 l -0.570312,-10.21093 h 1.695312 l 0.242188,6.54687 0.0625,1.78906 0.460937,-1.59375 1.125,-3.63281 h 1.210938 l 1.1875,3.85156 0.382812,1.35938 0.03125,-1.59375 0.257813,-6.72656 h 1.632812 z m 9.268749,0 -0.5625,-2.01562 h -3.5625 l -0.578125,2.01562 h -1.90625 l 3.023438,-10.21093 h 2.6875 l 3.023437,10.21093 z m -2.320312,-8.33593 -1.34375,4.75 h 2.671875 z m 12.432812,8.33593 -1.4375,-3.28125 q -0.203125,-0.46875 -0.570313,-0.70312 -0.359375,-0.24219 -0.851562,-0.24219 h -0.367188 v 4.22656 h -1.921875 v -10.21093 h 2.976563 q 0.84375,0 1.53125,0.14843 0.6875,0.14063 1.171875,0.47657 0.484375,0.33593 0.742187,0.875 0.265625,0.53906 0.265625,1.32031 0,0.5625 -0.164062,1 -0.164063,0.4375 -0.460938,0.75781 -0.296875,0.3125 -0.710937,0.50781 -0.40625,0.19532 -0.890625,0.27344 0.375,0.0781 0.6875,0.42969 0.3125,0.34375 0.625,1 l 1.632812,3.42187 z m -0.476563,-7.20312 q 0,-0.75 -0.476562,-1.07813 -0.476563,-0.32812 -1.429688,-0.32812 h -0.84375 v 2.88281 h 0.78125 q 0.445313,0 0.804688,-0.0937 0.367187,-0.0937 0.625,-0.28125 0.257812,-0.1875 0.398437,-0.46094 0.140625,-0.28125 0.140625,-0.64062 z m 6.354687,7.20312 v -10.21093 h 6.148437 v 1.625 h -4.195312 v 2.53906 h 4 v 1.58594 h -4 v 2.83593 h 4.195312 v 1.625 z m 21.193746,0 v -10.21093 h 6.14844 v 1.625 h -4.19531 v 2.53906 h 4 v 1.58594 h -4 v 2.83593 h 4.19531 v 1.625 z m 14.94063,0 -2.73437,-6.09375 -0.5625,-1.3125 v 4.23438 3.17187 h -1.75 v -10.21093 h 2.35937 l 2.78906,6.13281 0.49219,1.19531 v -4.50781 -2.82031 h 1.75 v 10.21093 z m 9.26094,-4.32031 v -1.58594 h 3.63281 v 5.44532 q -0.70312,0.32812 -1.46875,0.48437 -0.76562,0.15625 -1.66406,0.15625 -1.0625,0 -1.91406,-0.32812 -0.84375,-0.32813 -1.4375,-0.97657 -0.59375,-0.64843 -0.91406,-1.60937 -0.3125,-0.96094 -0.3125,-2.22656 0,-1.27344 0.32812,-2.28125 0.33594,-1.00782 0.96875,-1.70313 0.64063,-0.70312 1.5625,-1.07031 0.92969,-0.36719 2.11719,-0.36719 0.70312,0 1.36719,0.125 0.67187,0.11719 1.33593,0.32031 v 1.89844 q -0.57812,-0.27344 -1.28125,-0.44531 -0.69531,-0.17969 -1.40625,-0.17969 -0.71875,0 -1.27343,0.25 -0.54688,0.25 -0.92188,0.71094 -0.36719,0.46094 -0.5625,1.13281 -0.1875,0.67188 -0.1875,1.51563 0,0.8125 0.14844,1.46875 0.14844,0.64843 0.47656,1.10937 0.33594,0.45313 0.85938,0.69531 0.52343,0.24219 1.27343,0.24219 0.17969,0 0.3125,-0.008 0.13282,-0.0156 0.25,-0.0391 0.11719,-0.0234 0.21875,-0.0547 0.10938,-0.0312 0.22657,-0.0703 v -2.60938 z m 7.32343,-4.32031 v -1.57031 h 6.45313 v 1.57031 h -2.25 v 7.05469 h 2.25 v 1.58593 H 140.79 v -1.58593 h 2.25 v -7.05469 z m 15.20625,8.64062 -2.73438,-6.09375 -0.5625,-1.3125 v 4.23438 3.17187 h -1.75 v -10.21093 h 2.35938 l 2.78906,6.13281 0.49219,1.19531 v -4.50781 -2.82031 h 1.75 v 10.21093 z m 6.25313,0 v -10.21093 h 6.14843 v 1.625 h -4.19531 v 2.53906 h 4 v 1.58594 h -4 v 2.83593 h 4.19531 v 1.625 z m 10.59688,0 v -10.21093 h 6.14843 v 1.625 h -4.19531 v 2.53906 h 4 v 1.58594 h -4 v 2.83593 h 4.19531 v 1.625 z m 15.31562,0 -1.4375,-3.28125 q -0.20312,-0.46875 -0.57031,-0.70312 -0.35937,-0.24219 -0.85156,-0.24219 h -0.36719 v 4.22656 h -1.92187 v -10.21093 h 2.97656 q 0.84375,0 1.53125,0.14843 0.6875,0.14063 1.17187,0.47657 0.48438,0.33593 0.74219,0.875 0.26563,0.53906 0.26563,1.32031 0,0.5625 -0.16407,1 -0.16406,0.4375 -0.46093,0.75781 -0.29688,0.3125 -0.71094,0.50781 -0.40625,0.19532 -0.89063,0.27344 0.375,0.0781 0.6875,0.42969 0.3125,0.34375 0.625,1 l 1.63282,3.42187 z m -0.47656,-7.20312 q 0,-0.75 -0.47656,-1.07813 -0.47656,-0.32812 -1.42969,-0.32812 h -0.84375 v 2.88281 h 0.78125 q 0.44531,0 0.80469,-0.0937 0.36719,-0.0937 0.625,-0.28125 0.25781,-0.1875 0.39844,-0.46094 0.14062,-0.28125 0.14062,-0.64062 z"
       id="path14" /></g></mask><clipPath
   id="SVGID_2_"><use
     xlink:href="#SVGID_1_"
     overflow="visible"
     id="use1" /></clipPath><path
   id="SVGID_1_"
   d="m 98.1,244.8 c 1.6,7.5 5.5,11.9 9.4,14.5 h 41.1 c 5,-3.4 10.1,-9.8 10.1,-21.8 v -31 c 0,0 0.6,-7.7 7.7,-10.2 0,0 4.1,-2.9 -0.3,-4.5 0,0 -19.5,-1.6 -19.5,14.4 v 23.6 c 0,0 0.8,8.7 -3.8,12.3 v -29.2 c 0,0 0.3,-9.3 5.1,-12.8 0,0 3.2,-5.7 -3.8,-4.2 0,0 -13.4,1.9 -14,17.6 l -0.3,30 h -3.2 l -0.3,-30 c -0.6,-15.6 -14,-17.6 -14,-17.6 -7,-1.6 -3.8,4.2 -3.8,4.2 4.8,3.5 5.1,12.8 5.1,12.8 v 29.5 c -4.6,-3.3 -3.8,-12.6 -3.8,-12.6 v -23.6 c 0,-16 -19.5,-14.4 -19.5,-14.4 -4.5,1.6 -0.3,4.5 -0.3,4.5 7,2.6 7.7,10.2 7.7,10.2 v 21.7 z" /><defs
   id="defs2"><path
     id="path3"
     d="m 98.1,244.8 c 1.6,7.5 5.5,11.9 9.4,14.5 h 41.1 c 5,-3.4 10.1,-9.8 10.1,-21.8 v -31 c 0,0 0.6,-7.7 7.7,-10.2 0,0 4.1,-2.9 -0.3,-4.5 0,0 -19.5,-1.6 -19.5,14.4 v 23.6 c 0,0 0.8,8.7 -3.8,12.3 v -29.2 c 0,0 0.3,-9.3 5.1,-12.8 0,0 3.2,-5.7 -3.8,-4.2 0,0 -13.4,1.9 -14,17.6 l -0.3,30 h -3.2 l -0.3,-30 c -0.6,-15.6 -14,-17.6 -14,-17.6 -7,-1.6 -3.8,4.2 -3.8,4.2 4.8,3.5 5.1,12.8 5.1,12.8 v 29.5 c -4.6,-3.3 -3.8,-12.6 -3.8,-12.6 v -23.6 c 0,-16 -19.5,-14.4 -19.5,-14.4 -4.5,1.6 -0.3,4.5 -0.3,4.5 7,2.6 7.7,10.2 7.7,10.2 v 21.7 z" /></defs><clipPath
   id="clipPath2"><use
     xlink:href="#SVGID_1_"
     overflow="visible"
     id="use2" /></clipPath></defs><sodipodi:namedview
   id="namedview17"
   pagecolor="#ffffff"
   bordercolor="#000000"
   borderopacity="0.25"
   inkscape:showpageshadow="2"
   inkscape:pageopacity="0.0"
   inkscape:pagecheckerboard="0"
   inkscape:deskcolor="#d1d1d1"
   inkscape:zoom="11.313709"
   inkscape:cx="97.492347"
   inkscape:cy="60.059882"
   inkscape:window-width="2560"
   inkscape:window-height="1369"
   inkscape:window-x="-8"
   inkscape:window-y="-8"
   inkscape:window-maximized="1"
   inkscape:current-layer="svg17"
   inkscape:document-units="mm" />


<path
   id="rect17-4-0-1"
   style="stroke-width:9.14645"
   inkscape:label="frame"
   d="m 9.9991883,-7.354352e-4 c -5.54,0 -10.00000003322,4.4599999352 -10.00000003322,9.9999999352 V 225.16528 c 0,5.54 4.46000003322,10 10.00000003322,10 H 193.64176 c 5.54,0 10,-4.46 10,-10 V 9.9992645 c 0,-5.54 -4.46,-9.9999999352 -10,-9.9999999352 z M 19.221838,9.5754363 H 184.41911 c 5.54,0 10,4.4600007 10,10.0000007 V 173.43286 c 0,5.54 -4.46,10 -10,10 H 19.221838 c -5.54,0 -9.9999997,-4.46 -9.9999997,-10 V 19.575437 c 0,-5.54 4.4599997,-10.0000007 9.9999997,-10.0000007 z"
   sodipodi:nodetypes="ssssssssssssssssss" /><path
   id="path6-3-5-9"
   style="stroke-width:3.08524"
   inkscape:label="legs"
   d="m 136.06643,115.46397 c -3.295,2.19669 -8.61914,8.1837 -8.61914,18.41797 v 26.19141 c 0,0 -0.5072,6.50499 -6.50586,8.61718 0,0 -3.54804,2.45094 0.25391,3.80274 0,0 16.47461,1.35205 16.47461,-12.16602 V 140.3878 c 0,0 -0.67547,-7.94286 3.21093,-10.64648 h 24.66993 c 3.8864,3.04157 3.21093,10.64648 3.21093,10.64648 v 19.93945 c 0,13.51807 16.47657,12.16602 16.47657,12.16602 3.802,-1.3518 0.25195,-3.80274 0.25195,-3.80274 -5.9142,-2.19668 -6.50391,-8.61718 -6.50391,-8.61718 v -26.19141 c 0,-10.22304 -4.31075,-15.62987 -8.53515,-18.41797 h -14.02034 v 8.50453 h -6.42897 v -8.50453 z"
   sodipodi:nodetypes="cscccsccccscccscccccc" /><path
   id="path6-6-4"
   style="stroke-width:3.08523"
   inkscape:label="body"
   d="m 34.412138,17.69249 c -1.10362,0.0462 -1.63672,0.214844 -1.63672,0.214844 -5.5762,13.9405 -2.11151,24.332557 -1.09766,26.867187 -6.59005,7.09698 -10.5625,16.137168 -10.5625,27.205078 0,29.616621 12.27397,46.783471 48.15821,50.609371 -3.29503,2.19669 -6.58962,5.91343 -7.94141,12.25 -4.47785,2.1122 -18.50238,7.35027 -26.95117,-7.18164 0,0 -4.73129,-8.61707 -13.77149,-9.29297 0,0 -8.78711,-0.17045 -0.59179,5.49024 0,0 5.82934,2.78964 9.88476,13.18164 0,0 5.32307,17.74126 30.75391,11.99609 v 18.16602 c 0,0 -0.50721,6.50499 -6.50586,8.61718 0,0 -3.54804,2.45093 0.25391,3.80274 0,0 16.4746,1.35008 16.4746,-12.16797 v -19.9375 c 0,0 -0.67549,-7.94287 3.21094,-10.64648 h 9.12291 v -6.99042 h 6.425196 v 6.99042 h 9.121814 c 3.886462,3.04156 3.210942,10.64648 3.210942,10.64648 v 19.9375 c 0,13.51805 16.47461,12.16797 16.47461,12.16797 3.80195,-1.35181 0.25391,-3.80274 0.25391,-3.80274 -5.91414,-2.19668 -6.50586,-8.61718 -6.50586,-8.61718 v -26.19141 c 0,-10.22303 -4.30884,-15.62986 -8.53321,-18.41797 38.09052,-3.80905 46.29883,-20.793 46.29883,-50.525386 0,-12.08176 -4.56216,-21.712566 -11.82812,-28.978516 1.26733,-4.13991 2.95736,-13.349939 -1.68946,-25.093749 0,0 -8.28032,-2.617977 -27.12109,9.970703 -7.35045,-1.85873 -15.207062,-2.789063 -23.064452,-2.789063 -8.61775,0 -17.32031,1.098242 -25.51563,3.294922 C 46.166108,18.519441 37.723008,17.55388 34.412138,17.69249 Z"
   sodipodi:nodetypes="sccsccccccccccsccccccccscccscscccscs" /><path
   fill="#f5ccb3"
   d="m 126.34908,70.347863 c 5.23827,4.8158 8.3643,10.56098 8.3643,16.72859 0,29.063817 -21.62889,29.824197 -48.32703,29.824197 -26.69817,0 -48.32705,-4.05541 -48.32705,-29.824197 0,-6.16761 3.04156,-11.91279 8.27981,-16.6441 8.70224,-7.94186 23.40314,-3.71747 40.04724,-3.71747 16.6441,0 31.2605,-4.30888 39.96273,3.63298 z m 0,0"
   id="path5-8-1-8"
   style="stroke-width:3.08523"
   inkscape:label="face" /><path
   fill="#ffffff"
   d="m 70.33365,88.597233 c 0,8.026349 -4.47785,14.447417 -10.05405,14.447417 -5.5762,0 -10.05405,-6.505558 -10.05405,-14.447417 0,-8.02634 4.47785,-14.44742 10.05405,-14.44742 5.5762,-0.0845 10.05405,6.42108 10.05405,14.44742 z m 0,0"
   id="path7-8-8"
   style="stroke-width:3.08523"
   inkscape:label="left eye" /><path
   fill="#af5c51"
   d="m 67.1231,88.766213 c 0,5.322729 -3.04155,9.631609 -6.67453,9.631609 -3.71746,0 -6.67453,-4.30888 -6.67453,-9.631609 0,-5.32274 3.04155,-9.63162 6.67453,-9.63162 3.63298,0 6.67453,4.30888 6.67453,9.63162 z m 0,0"
   id="path9-4-2"
   style="stroke-width:3.08523"
   inkscape:label="left iris" /><path
   fill="#ffffff"
   d="m 124.32138,88.597233 c 0,8.026349 -4.47785,14.447417 -10.05407,14.447417 -5.57619,0 -10.05404,-6.505558 -10.05404,-14.447417 0,-8.02634 4.47785,-14.44742 10.05404,-14.44742 5.49171,-0.0845 10.05407,6.42108 10.05407,14.44742 z m 0,0"
   id="path8-9-9-4"
   style="stroke-width:3.08523"
   inkscape:label="right eye" /><path
   fill="#af5c51"
   d="m 121.02636,88.766213 c 0,5.322729 -3.04156,9.631609 -6.67454,9.631609 -3.71746,0 -6.67453,-4.30888 -6.67453,-9.631609 0,-5.32274 3.04155,-9.63162 6.67453,-9.63162 3.71746,0 6.67454,4.30888 6.67454,9.63162 z m 0,0"
   id="path12-6-5"
   style="stroke-width:3.08523"
   inkscape:label="right iris" /><path
   fill="#af5c51"
   d="m 89.08995,101.43938 c 0,1.35181 -1.09834,2.53464 -2.53464,2.53464 -1.35179,0 -2.53464,-1.09835 -2.53464,-2.53464 0,-1.43629 1.09835,-2.534628 2.53464,-2.534628 1.35182,0 2.53464,1.098338 2.53464,2.534628 z m 0,0"
   id="path10-2-3-5"
   style="stroke-width:3.08523"
   inkscape:label="nose" /><path
   fill="#af5c51"
   d="m 80.72565,107.77597 c -0.16897,-0.42244 0.0845,-0.84488 0.50694,-1.01385 0.42244,-0.16898 0.84487,0.0845 1.01386,0.50692 0.67588,1.85873 2.36565,3.04156 4.30886,3.04156 1.94321,0 3.63298,-1.26731 4.30889,-3.04156 0.16896,-0.42244 0.59142,-0.6759 1.01386,-0.50692 0.42243,0.16897 0.67591,0.59141 0.50692,1.01385 -0.84487,2.45015 -3.21055,4.1399 -5.82967,4.1399 -2.61912,0 -4.98477,-1.68975 -5.82966,-4.1399 z m 0,0"
   id="path11-7-7-1"
   style="stroke-width:3.08523"
   inkscape:label="mouth" /><g
   id="path4-6"
   style="opacity:1"
   inkscape:label="legs support"><path
     style="baseline-shift:baseline;display:inline;overflow:visible;vector-effect:none;stroke-linejoin:round;enable-background:accumulate;stop-color:#000000;stop-opacity:1"
     d="m 181.3457,140.21875 v 7.55859 h 13.07422 v -7.55859 z"
     id="path31" /><g
     id="g30"><path
       style="baseline-shift:baseline;display:inline;overflow:visible;vector-effect:none;enable-background:accumulate;stop-color:#000000;stop-opacity:1"
       d="m 181.34646,147.77692 -3.77952,-3.77952 3.77952,-3.77952 0.18898,3.77952 z"
       sodipodi:nodetypes="sssssscsss"
       id="path30" /></g></g><g
   id="path4-3-61"
   style="opacity:1;stroke-width:0.968971"
   inkscape:label="body support"
   transform="matrix(1,0,0,1.0650696,0,-0.62311812)"><path
     style="baseline-shift:baseline;display:inline;overflow:visible;vector-effect:none;stroke-width:0.968971;stroke-linejoin:round;enable-background:accumulate;stop-color:#000000;stop-opacity:1"
     d="M 79.84375,9.5761719 V 22.097656 h 7.558594 V 9.5761719 Z"
     id="path29" /><g
     id="g28"
     style="stroke-width:0.968971"><path
       style="baseline-shift:baseline;display:inline;overflow:visible;vector-effect:none;stroke-width:0.968971;enable-background:accumulate;stop-color:#000000;stop-opacity:1"
       d="m 87.403128,22.097035 -3.77952,3.77952 -3.77952,-3.77952 3.77952,-0.188976 z"
       sodipodi:nodetypes="sssssscsss"
       id="path28" /></g></g></svg>
